%TF.GenerationSoftware,KiCad,Pcbnew,7.0.1*%
%TF.CreationDate,2023-11-16T22:14:46-05:00*%
%TF.ProjectId,GRC22_ShutdownChargerBoardV1,47524332-325f-4536-9875-74646f776e43,rev?*%
%TF.SameCoordinates,Original*%
%TF.FileFunction,Legend,Bot*%
%TF.FilePolarity,Positive*%
%FSLAX46Y46*%
G04 Gerber Fmt 4.6, Leading zero omitted, Abs format (unit mm)*
G04 Created by KiCad (PCBNEW 7.0.1) date 2023-11-16 22:14:46*
%MOMM*%
%LPD*%
G01*
G04 APERTURE LIST*
%ADD10C,0.150000*%
%ADD11C,0.200000*%
G04 APERTURE END LIST*
D10*
X178042857Y-52245000D02*
X176900000Y-52245000D01*
X186790476Y-121882380D02*
X186838095Y-121930000D01*
X186838095Y-121930000D02*
X186980952Y-121977619D01*
X186980952Y-121977619D02*
X187076190Y-121977619D01*
X187076190Y-121977619D02*
X187219047Y-121930000D01*
X187219047Y-121930000D02*
X187314285Y-121834761D01*
X187314285Y-121834761D02*
X187361904Y-121739523D01*
X187361904Y-121739523D02*
X187409523Y-121549047D01*
X187409523Y-121549047D02*
X187409523Y-121406190D01*
X187409523Y-121406190D02*
X187361904Y-121215714D01*
X187361904Y-121215714D02*
X187314285Y-121120476D01*
X187314285Y-121120476D02*
X187219047Y-121025238D01*
X187219047Y-121025238D02*
X187076190Y-120977619D01*
X187076190Y-120977619D02*
X186980952Y-120977619D01*
X186980952Y-120977619D02*
X186838095Y-121025238D01*
X186838095Y-121025238D02*
X186790476Y-121072857D01*
X186361904Y-121977619D02*
X186361904Y-120977619D01*
X185933333Y-121977619D02*
X185933333Y-121453809D01*
X185933333Y-121453809D02*
X185980952Y-121358571D01*
X185980952Y-121358571D02*
X186076190Y-121310952D01*
X186076190Y-121310952D02*
X186219047Y-121310952D01*
X186219047Y-121310952D02*
X186314285Y-121358571D01*
X186314285Y-121358571D02*
X186361904Y-121406190D01*
X185028571Y-121977619D02*
X185028571Y-121453809D01*
X185028571Y-121453809D02*
X185076190Y-121358571D01*
X185076190Y-121358571D02*
X185171428Y-121310952D01*
X185171428Y-121310952D02*
X185361904Y-121310952D01*
X185361904Y-121310952D02*
X185457142Y-121358571D01*
X185028571Y-121930000D02*
X185123809Y-121977619D01*
X185123809Y-121977619D02*
X185361904Y-121977619D01*
X185361904Y-121977619D02*
X185457142Y-121930000D01*
X185457142Y-121930000D02*
X185504761Y-121834761D01*
X185504761Y-121834761D02*
X185504761Y-121739523D01*
X185504761Y-121739523D02*
X185457142Y-121644285D01*
X185457142Y-121644285D02*
X185361904Y-121596666D01*
X185361904Y-121596666D02*
X185123809Y-121596666D01*
X185123809Y-121596666D02*
X185028571Y-121549047D01*
X184552380Y-121977619D02*
X184552380Y-121310952D01*
X184552380Y-121501428D02*
X184504761Y-121406190D01*
X184504761Y-121406190D02*
X184457142Y-121358571D01*
X184457142Y-121358571D02*
X184361904Y-121310952D01*
X184361904Y-121310952D02*
X184266666Y-121310952D01*
X183504761Y-121310952D02*
X183504761Y-122120476D01*
X183504761Y-122120476D02*
X183552380Y-122215714D01*
X183552380Y-122215714D02*
X183599999Y-122263333D01*
X183599999Y-122263333D02*
X183695237Y-122310952D01*
X183695237Y-122310952D02*
X183838094Y-122310952D01*
X183838094Y-122310952D02*
X183933332Y-122263333D01*
X183504761Y-121930000D02*
X183599999Y-121977619D01*
X183599999Y-121977619D02*
X183790475Y-121977619D01*
X183790475Y-121977619D02*
X183885713Y-121930000D01*
X183885713Y-121930000D02*
X183933332Y-121882380D01*
X183933332Y-121882380D02*
X183980951Y-121787142D01*
X183980951Y-121787142D02*
X183980951Y-121501428D01*
X183980951Y-121501428D02*
X183933332Y-121406190D01*
X183933332Y-121406190D02*
X183885713Y-121358571D01*
X183885713Y-121358571D02*
X183790475Y-121310952D01*
X183790475Y-121310952D02*
X183599999Y-121310952D01*
X183599999Y-121310952D02*
X183504761Y-121358571D01*
X182647618Y-121930000D02*
X182742856Y-121977619D01*
X182742856Y-121977619D02*
X182933332Y-121977619D01*
X182933332Y-121977619D02*
X183028570Y-121930000D01*
X183028570Y-121930000D02*
X183076189Y-121834761D01*
X183076189Y-121834761D02*
X183076189Y-121453809D01*
X183076189Y-121453809D02*
X183028570Y-121358571D01*
X183028570Y-121358571D02*
X182933332Y-121310952D01*
X182933332Y-121310952D02*
X182742856Y-121310952D01*
X182742856Y-121310952D02*
X182647618Y-121358571D01*
X182647618Y-121358571D02*
X182599999Y-121453809D01*
X182599999Y-121453809D02*
X182599999Y-121549047D01*
X182599999Y-121549047D02*
X183076189Y-121644285D01*
X182171427Y-121977619D02*
X182171427Y-121310952D01*
X182171427Y-121501428D02*
X182123808Y-121406190D01*
X182123808Y-121406190D02*
X182076189Y-121358571D01*
X182076189Y-121358571D02*
X181980951Y-121310952D01*
X181980951Y-121310952D02*
X181885713Y-121310952D01*
X180790474Y-121977619D02*
X180790474Y-120977619D01*
X180790474Y-120977619D02*
X180409522Y-120977619D01*
X180409522Y-120977619D02*
X180314284Y-121025238D01*
X180314284Y-121025238D02*
X180266665Y-121072857D01*
X180266665Y-121072857D02*
X180219046Y-121168095D01*
X180219046Y-121168095D02*
X180219046Y-121310952D01*
X180219046Y-121310952D02*
X180266665Y-121406190D01*
X180266665Y-121406190D02*
X180314284Y-121453809D01*
X180314284Y-121453809D02*
X180409522Y-121501428D01*
X180409522Y-121501428D02*
X180790474Y-121501428D01*
X179885712Y-121310952D02*
X179695236Y-121977619D01*
X179695236Y-121977619D02*
X179504760Y-121501428D01*
X179504760Y-121501428D02*
X179314284Y-121977619D01*
X179314284Y-121977619D02*
X179123808Y-121310952D01*
X178742855Y-121977619D02*
X178742855Y-121310952D01*
X178742855Y-121501428D02*
X178695236Y-121406190D01*
X178695236Y-121406190D02*
X178647617Y-121358571D01*
X178647617Y-121358571D02*
X178552379Y-121310952D01*
X178552379Y-121310952D02*
X178457141Y-121310952D01*
X163142857Y-52345000D02*
X162000000Y-52345000D01*
X154428571Y-59353809D02*
X154285714Y-59401428D01*
X154285714Y-59401428D02*
X154238095Y-59449047D01*
X154238095Y-59449047D02*
X154190476Y-59544285D01*
X154190476Y-59544285D02*
X154190476Y-59687142D01*
X154190476Y-59687142D02*
X154238095Y-59782380D01*
X154238095Y-59782380D02*
X154285714Y-59830000D01*
X154285714Y-59830000D02*
X154380952Y-59877619D01*
X154380952Y-59877619D02*
X154761904Y-59877619D01*
X154761904Y-59877619D02*
X154761904Y-58877619D01*
X154761904Y-58877619D02*
X154428571Y-58877619D01*
X154428571Y-58877619D02*
X154333333Y-58925238D01*
X154333333Y-58925238D02*
X154285714Y-58972857D01*
X154285714Y-58972857D02*
X154238095Y-59068095D01*
X154238095Y-59068095D02*
X154238095Y-59163333D01*
X154238095Y-59163333D02*
X154285714Y-59258571D01*
X154285714Y-59258571D02*
X154333333Y-59306190D01*
X154333333Y-59306190D02*
X154428571Y-59353809D01*
X154428571Y-59353809D02*
X154761904Y-59353809D01*
X153761904Y-59877619D02*
X153761904Y-59210952D01*
X153761904Y-59401428D02*
X153714285Y-59306190D01*
X153714285Y-59306190D02*
X153666666Y-59258571D01*
X153666666Y-59258571D02*
X153571428Y-59210952D01*
X153571428Y-59210952D02*
X153476190Y-59210952D01*
X152714285Y-59877619D02*
X152714285Y-58877619D01*
X152714285Y-59830000D02*
X152809523Y-59877619D01*
X152809523Y-59877619D02*
X152999999Y-59877619D01*
X152999999Y-59877619D02*
X153095237Y-59830000D01*
X153095237Y-59830000D02*
X153142856Y-59782380D01*
X153142856Y-59782380D02*
X153190475Y-59687142D01*
X153190475Y-59687142D02*
X153190475Y-59401428D01*
X153190475Y-59401428D02*
X153142856Y-59306190D01*
X153142856Y-59306190D02*
X153095237Y-59258571D01*
X153095237Y-59258571D02*
X152999999Y-59210952D01*
X152999999Y-59210952D02*
X152809523Y-59210952D01*
X152809523Y-59210952D02*
X152714285Y-59258571D01*
X151476189Y-59877619D02*
X151476189Y-58877619D01*
X151476189Y-58877619D02*
X151095237Y-58877619D01*
X151095237Y-58877619D02*
X150999999Y-58925238D01*
X150999999Y-58925238D02*
X150952380Y-58972857D01*
X150952380Y-58972857D02*
X150904761Y-59068095D01*
X150904761Y-59068095D02*
X150904761Y-59210952D01*
X150904761Y-59210952D02*
X150952380Y-59306190D01*
X150952380Y-59306190D02*
X150999999Y-59353809D01*
X150999999Y-59353809D02*
X151095237Y-59401428D01*
X151095237Y-59401428D02*
X151476189Y-59401428D01*
X150571427Y-59210952D02*
X150380951Y-59877619D01*
X150380951Y-59877619D02*
X150190475Y-59401428D01*
X150190475Y-59401428D02*
X149999999Y-59877619D01*
X149999999Y-59877619D02*
X149809523Y-59210952D01*
X149428570Y-59877619D02*
X149428570Y-59210952D01*
X149428570Y-59401428D02*
X149380951Y-59306190D01*
X149380951Y-59306190D02*
X149333332Y-59258571D01*
X149333332Y-59258571D02*
X149238094Y-59210952D01*
X149238094Y-59210952D02*
X149142856Y-59210952D01*
X147571427Y-59877619D02*
X148047617Y-59877619D01*
X148047617Y-59877619D02*
X148047617Y-58877619D01*
X147238093Y-59353809D02*
X146904760Y-59353809D01*
X146761903Y-59877619D02*
X147238093Y-59877619D01*
X147238093Y-59877619D02*
X147238093Y-58877619D01*
X147238093Y-58877619D02*
X146761903Y-58877619D01*
X146333331Y-59877619D02*
X146333331Y-58877619D01*
X146333331Y-58877619D02*
X146095236Y-58877619D01*
X146095236Y-58877619D02*
X145952379Y-58925238D01*
X145952379Y-58925238D02*
X145857141Y-59020476D01*
X145857141Y-59020476D02*
X145809522Y-59115714D01*
X145809522Y-59115714D02*
X145761903Y-59306190D01*
X145761903Y-59306190D02*
X145761903Y-59449047D01*
X145761903Y-59449047D02*
X145809522Y-59639523D01*
X145809522Y-59639523D02*
X145857141Y-59734761D01*
X145857141Y-59734761D02*
X145952379Y-59830000D01*
X145952379Y-59830000D02*
X146095236Y-59877619D01*
X146095236Y-59877619D02*
X146333331Y-59877619D01*
X150261904Y-121353809D02*
X149928571Y-121353809D01*
X149785714Y-121877619D02*
X150261904Y-121877619D01*
X150261904Y-121877619D02*
X150261904Y-120877619D01*
X150261904Y-120877619D02*
X149785714Y-120877619D01*
X149357142Y-121496666D02*
X148595238Y-121496666D01*
X148166666Y-121830000D02*
X148023809Y-121877619D01*
X148023809Y-121877619D02*
X147785714Y-121877619D01*
X147785714Y-121877619D02*
X147690476Y-121830000D01*
X147690476Y-121830000D02*
X147642857Y-121782380D01*
X147642857Y-121782380D02*
X147595238Y-121687142D01*
X147595238Y-121687142D02*
X147595238Y-121591904D01*
X147595238Y-121591904D02*
X147642857Y-121496666D01*
X147642857Y-121496666D02*
X147690476Y-121449047D01*
X147690476Y-121449047D02*
X147785714Y-121401428D01*
X147785714Y-121401428D02*
X147976190Y-121353809D01*
X147976190Y-121353809D02*
X148071428Y-121306190D01*
X148071428Y-121306190D02*
X148119047Y-121258571D01*
X148119047Y-121258571D02*
X148166666Y-121163333D01*
X148166666Y-121163333D02*
X148166666Y-121068095D01*
X148166666Y-121068095D02*
X148119047Y-120972857D01*
X148119047Y-120972857D02*
X148071428Y-120925238D01*
X148071428Y-120925238D02*
X147976190Y-120877619D01*
X147976190Y-120877619D02*
X147738095Y-120877619D01*
X147738095Y-120877619D02*
X147595238Y-120925238D01*
X147309523Y-121210952D02*
X146928571Y-121210952D01*
X147166666Y-120877619D02*
X147166666Y-121734761D01*
X147166666Y-121734761D02*
X147119047Y-121830000D01*
X147119047Y-121830000D02*
X147023809Y-121877619D01*
X147023809Y-121877619D02*
X146928571Y-121877619D01*
X146452380Y-121877619D02*
X146547618Y-121830000D01*
X146547618Y-121830000D02*
X146595237Y-121782380D01*
X146595237Y-121782380D02*
X146642856Y-121687142D01*
X146642856Y-121687142D02*
X146642856Y-121401428D01*
X146642856Y-121401428D02*
X146595237Y-121306190D01*
X146595237Y-121306190D02*
X146547618Y-121258571D01*
X146547618Y-121258571D02*
X146452380Y-121210952D01*
X146452380Y-121210952D02*
X146309523Y-121210952D01*
X146309523Y-121210952D02*
X146214285Y-121258571D01*
X146214285Y-121258571D02*
X146166666Y-121306190D01*
X146166666Y-121306190D02*
X146119047Y-121401428D01*
X146119047Y-121401428D02*
X146119047Y-121687142D01*
X146119047Y-121687142D02*
X146166666Y-121782380D01*
X146166666Y-121782380D02*
X146214285Y-121830000D01*
X146214285Y-121830000D02*
X146309523Y-121877619D01*
X146309523Y-121877619D02*
X146452380Y-121877619D01*
X145690475Y-121210952D02*
X145690475Y-122210952D01*
X145690475Y-121258571D02*
X145595237Y-121210952D01*
X145595237Y-121210952D02*
X145404761Y-121210952D01*
X145404761Y-121210952D02*
X145309523Y-121258571D01*
X145309523Y-121258571D02*
X145261904Y-121306190D01*
X145261904Y-121306190D02*
X145214285Y-121401428D01*
X145214285Y-121401428D02*
X145214285Y-121687142D01*
X145214285Y-121687142D02*
X145261904Y-121782380D01*
X145261904Y-121782380D02*
X145309523Y-121830000D01*
X145309523Y-121830000D02*
X145404761Y-121877619D01*
X145404761Y-121877619D02*
X145595237Y-121877619D01*
X145595237Y-121877619D02*
X145690475Y-121830000D01*
X160557142Y-112845000D02*
X161700000Y-112845000D01*
X162861904Y-121977619D02*
X162861904Y-120977619D01*
X162861904Y-120977619D02*
X162528571Y-121691904D01*
X162528571Y-121691904D02*
X162195238Y-120977619D01*
X162195238Y-120977619D02*
X162195238Y-121977619D01*
X161719047Y-121977619D02*
X161719047Y-121310952D01*
X161719047Y-120977619D02*
X161766666Y-121025238D01*
X161766666Y-121025238D02*
X161719047Y-121072857D01*
X161719047Y-121072857D02*
X161671428Y-121025238D01*
X161671428Y-121025238D02*
X161719047Y-120977619D01*
X161719047Y-120977619D02*
X161719047Y-121072857D01*
X161242857Y-121310952D02*
X161242857Y-121977619D01*
X161242857Y-121406190D02*
X161195238Y-121358571D01*
X161195238Y-121358571D02*
X161100000Y-121310952D01*
X161100000Y-121310952D02*
X160957143Y-121310952D01*
X160957143Y-121310952D02*
X160861905Y-121358571D01*
X160861905Y-121358571D02*
X160814286Y-121453809D01*
X160814286Y-121453809D02*
X160814286Y-121977619D01*
X160338095Y-121977619D02*
X160338095Y-121310952D01*
X160338095Y-120977619D02*
X160385714Y-121025238D01*
X160385714Y-121025238D02*
X160338095Y-121072857D01*
X160338095Y-121072857D02*
X160290476Y-121025238D01*
X160290476Y-121025238D02*
X160338095Y-120977619D01*
X160338095Y-120977619D02*
X160338095Y-121072857D01*
X160004762Y-121310952D02*
X159623810Y-121310952D01*
X159861905Y-120977619D02*
X159861905Y-121834761D01*
X159861905Y-121834761D02*
X159814286Y-121930000D01*
X159814286Y-121930000D02*
X159719048Y-121977619D01*
X159719048Y-121977619D02*
X159623810Y-121977619D01*
X158861905Y-121977619D02*
X158861905Y-121453809D01*
X158861905Y-121453809D02*
X158909524Y-121358571D01*
X158909524Y-121358571D02*
X159004762Y-121310952D01*
X159004762Y-121310952D02*
X159195238Y-121310952D01*
X159195238Y-121310952D02*
X159290476Y-121358571D01*
X158861905Y-121930000D02*
X158957143Y-121977619D01*
X158957143Y-121977619D02*
X159195238Y-121977619D01*
X159195238Y-121977619D02*
X159290476Y-121930000D01*
X159290476Y-121930000D02*
X159338095Y-121834761D01*
X159338095Y-121834761D02*
X159338095Y-121739523D01*
X159338095Y-121739523D02*
X159290476Y-121644285D01*
X159290476Y-121644285D02*
X159195238Y-121596666D01*
X159195238Y-121596666D02*
X158957143Y-121596666D01*
X158957143Y-121596666D02*
X158861905Y-121549047D01*
X157957143Y-121930000D02*
X158052381Y-121977619D01*
X158052381Y-121977619D02*
X158242857Y-121977619D01*
X158242857Y-121977619D02*
X158338095Y-121930000D01*
X158338095Y-121930000D02*
X158385714Y-121882380D01*
X158385714Y-121882380D02*
X158433333Y-121787142D01*
X158433333Y-121787142D02*
X158433333Y-121501428D01*
X158433333Y-121501428D02*
X158385714Y-121406190D01*
X158385714Y-121406190D02*
X158338095Y-121358571D01*
X158338095Y-121358571D02*
X158242857Y-121310952D01*
X158242857Y-121310952D02*
X158052381Y-121310952D01*
X158052381Y-121310952D02*
X157957143Y-121358571D01*
X157671428Y-121310952D02*
X157290476Y-121310952D01*
X157528571Y-120977619D02*
X157528571Y-121834761D01*
X157528571Y-121834761D02*
X157480952Y-121930000D01*
X157480952Y-121930000D02*
X157385714Y-121977619D01*
X157385714Y-121977619D02*
X157290476Y-121977619D01*
X156814285Y-121977619D02*
X156909523Y-121930000D01*
X156909523Y-121930000D02*
X156957142Y-121882380D01*
X156957142Y-121882380D02*
X157004761Y-121787142D01*
X157004761Y-121787142D02*
X157004761Y-121501428D01*
X157004761Y-121501428D02*
X156957142Y-121406190D01*
X156957142Y-121406190D02*
X156909523Y-121358571D01*
X156909523Y-121358571D02*
X156814285Y-121310952D01*
X156814285Y-121310952D02*
X156671428Y-121310952D01*
X156671428Y-121310952D02*
X156576190Y-121358571D01*
X156576190Y-121358571D02*
X156528571Y-121406190D01*
X156528571Y-121406190D02*
X156480952Y-121501428D01*
X156480952Y-121501428D02*
X156480952Y-121787142D01*
X156480952Y-121787142D02*
X156528571Y-121882380D01*
X156528571Y-121882380D02*
X156576190Y-121930000D01*
X156576190Y-121930000D02*
X156671428Y-121977619D01*
X156671428Y-121977619D02*
X156814285Y-121977619D01*
X156052380Y-121977619D02*
X156052380Y-121310952D01*
X156052380Y-121501428D02*
X156004761Y-121406190D01*
X156004761Y-121406190D02*
X155957142Y-121358571D01*
X155957142Y-121358571D02*
X155861904Y-121310952D01*
X155861904Y-121310952D02*
X155766666Y-121310952D01*
X139061904Y-121977619D02*
X139061904Y-120977619D01*
X138585714Y-121310952D02*
X138585714Y-121977619D01*
X138585714Y-121406190D02*
X138538095Y-121358571D01*
X138538095Y-121358571D02*
X138442857Y-121310952D01*
X138442857Y-121310952D02*
X138300000Y-121310952D01*
X138300000Y-121310952D02*
X138204762Y-121358571D01*
X138204762Y-121358571D02*
X138157143Y-121453809D01*
X138157143Y-121453809D02*
X138157143Y-121977619D01*
X137823809Y-121310952D02*
X137442857Y-121310952D01*
X137680952Y-120977619D02*
X137680952Y-121834761D01*
X137680952Y-121834761D02*
X137633333Y-121930000D01*
X137633333Y-121930000D02*
X137538095Y-121977619D01*
X137538095Y-121977619D02*
X137442857Y-121977619D01*
X136728571Y-121930000D02*
X136823809Y-121977619D01*
X136823809Y-121977619D02*
X137014285Y-121977619D01*
X137014285Y-121977619D02*
X137109523Y-121930000D01*
X137109523Y-121930000D02*
X137157142Y-121834761D01*
X137157142Y-121834761D02*
X137157142Y-121453809D01*
X137157142Y-121453809D02*
X137109523Y-121358571D01*
X137109523Y-121358571D02*
X137014285Y-121310952D01*
X137014285Y-121310952D02*
X136823809Y-121310952D01*
X136823809Y-121310952D02*
X136728571Y-121358571D01*
X136728571Y-121358571D02*
X136680952Y-121453809D01*
X136680952Y-121453809D02*
X136680952Y-121549047D01*
X136680952Y-121549047D02*
X137157142Y-121644285D01*
X136252380Y-121977619D02*
X136252380Y-121310952D01*
X136252380Y-121501428D02*
X136204761Y-121406190D01*
X136204761Y-121406190D02*
X136157142Y-121358571D01*
X136157142Y-121358571D02*
X136061904Y-121310952D01*
X136061904Y-121310952D02*
X135966666Y-121310952D01*
X135490475Y-121977619D02*
X135585713Y-121930000D01*
X135585713Y-121930000D02*
X135633332Y-121834761D01*
X135633332Y-121834761D02*
X135633332Y-120977619D01*
X134966665Y-121977619D02*
X135061903Y-121930000D01*
X135061903Y-121930000D02*
X135109522Y-121882380D01*
X135109522Y-121882380D02*
X135157141Y-121787142D01*
X135157141Y-121787142D02*
X135157141Y-121501428D01*
X135157141Y-121501428D02*
X135109522Y-121406190D01*
X135109522Y-121406190D02*
X135061903Y-121358571D01*
X135061903Y-121358571D02*
X134966665Y-121310952D01*
X134966665Y-121310952D02*
X134823808Y-121310952D01*
X134823808Y-121310952D02*
X134728570Y-121358571D01*
X134728570Y-121358571D02*
X134680951Y-121406190D01*
X134680951Y-121406190D02*
X134633332Y-121501428D01*
X134633332Y-121501428D02*
X134633332Y-121787142D01*
X134633332Y-121787142D02*
X134680951Y-121882380D01*
X134680951Y-121882380D02*
X134728570Y-121930000D01*
X134728570Y-121930000D02*
X134823808Y-121977619D01*
X134823808Y-121977619D02*
X134966665Y-121977619D01*
X133776189Y-121930000D02*
X133871427Y-121977619D01*
X133871427Y-121977619D02*
X134061903Y-121977619D01*
X134061903Y-121977619D02*
X134157141Y-121930000D01*
X134157141Y-121930000D02*
X134204760Y-121882380D01*
X134204760Y-121882380D02*
X134252379Y-121787142D01*
X134252379Y-121787142D02*
X134252379Y-121501428D01*
X134252379Y-121501428D02*
X134204760Y-121406190D01*
X134204760Y-121406190D02*
X134157141Y-121358571D01*
X134157141Y-121358571D02*
X134061903Y-121310952D01*
X134061903Y-121310952D02*
X133871427Y-121310952D01*
X133871427Y-121310952D02*
X133776189Y-121358571D01*
X133347617Y-121977619D02*
X133347617Y-120977619D01*
X133252379Y-121596666D02*
X132966665Y-121977619D01*
X132966665Y-121310952D02*
X133347617Y-121691904D01*
X120585714Y-62377619D02*
X121061904Y-62377619D01*
X121061904Y-62377619D02*
X121109523Y-62853809D01*
X121109523Y-62853809D02*
X121061904Y-62806190D01*
X121061904Y-62806190D02*
X120966666Y-62758571D01*
X120966666Y-62758571D02*
X120728571Y-62758571D01*
X120728571Y-62758571D02*
X120633333Y-62806190D01*
X120633333Y-62806190D02*
X120585714Y-62853809D01*
X120585714Y-62853809D02*
X120538095Y-62949047D01*
X120538095Y-62949047D02*
X120538095Y-63187142D01*
X120538095Y-63187142D02*
X120585714Y-63282380D01*
X120585714Y-63282380D02*
X120633333Y-63330000D01*
X120633333Y-63330000D02*
X120728571Y-63377619D01*
X120728571Y-63377619D02*
X120966666Y-63377619D01*
X120966666Y-63377619D02*
X121061904Y-63330000D01*
X121061904Y-63330000D02*
X121109523Y-63282380D01*
X167628571Y-59353809D02*
X167961904Y-59353809D01*
X167961904Y-59877619D02*
X167961904Y-58877619D01*
X167961904Y-58877619D02*
X167485714Y-58877619D01*
X166676190Y-59877619D02*
X166676190Y-59353809D01*
X166676190Y-59353809D02*
X166723809Y-59258571D01*
X166723809Y-59258571D02*
X166819047Y-59210952D01*
X166819047Y-59210952D02*
X167009523Y-59210952D01*
X167009523Y-59210952D02*
X167104761Y-59258571D01*
X166676190Y-59830000D02*
X166771428Y-59877619D01*
X166771428Y-59877619D02*
X167009523Y-59877619D01*
X167009523Y-59877619D02*
X167104761Y-59830000D01*
X167104761Y-59830000D02*
X167152380Y-59734761D01*
X167152380Y-59734761D02*
X167152380Y-59639523D01*
X167152380Y-59639523D02*
X167104761Y-59544285D01*
X167104761Y-59544285D02*
X167009523Y-59496666D01*
X167009523Y-59496666D02*
X166771428Y-59496666D01*
X166771428Y-59496666D02*
X166676190Y-59449047D01*
X165771428Y-59210952D02*
X165771428Y-59877619D01*
X166199999Y-59210952D02*
X166199999Y-59734761D01*
X166199999Y-59734761D02*
X166152380Y-59830000D01*
X166152380Y-59830000D02*
X166057142Y-59877619D01*
X166057142Y-59877619D02*
X165914285Y-59877619D01*
X165914285Y-59877619D02*
X165819047Y-59830000D01*
X165819047Y-59830000D02*
X165771428Y-59782380D01*
X165152380Y-59877619D02*
X165247618Y-59830000D01*
X165247618Y-59830000D02*
X165295237Y-59734761D01*
X165295237Y-59734761D02*
X165295237Y-58877619D01*
X164914284Y-59210952D02*
X164533332Y-59210952D01*
X164771427Y-58877619D02*
X164771427Y-59734761D01*
X164771427Y-59734761D02*
X164723808Y-59830000D01*
X164723808Y-59830000D02*
X164628570Y-59877619D01*
X164628570Y-59877619D02*
X164533332Y-59877619D01*
X162961903Y-59877619D02*
X163438093Y-59877619D01*
X163438093Y-59877619D02*
X163438093Y-58877619D01*
X162628569Y-59353809D02*
X162295236Y-59353809D01*
X162152379Y-59877619D02*
X162628569Y-59877619D01*
X162628569Y-59877619D02*
X162628569Y-58877619D01*
X162628569Y-58877619D02*
X162152379Y-58877619D01*
X161723807Y-59877619D02*
X161723807Y-58877619D01*
X161723807Y-58877619D02*
X161485712Y-58877619D01*
X161485712Y-58877619D02*
X161342855Y-58925238D01*
X161342855Y-58925238D02*
X161247617Y-59020476D01*
X161247617Y-59020476D02*
X161199998Y-59115714D01*
X161199998Y-59115714D02*
X161152379Y-59306190D01*
X161152379Y-59306190D02*
X161152379Y-59449047D01*
X161152379Y-59449047D02*
X161199998Y-59639523D01*
X161199998Y-59639523D02*
X161247617Y-59734761D01*
X161247617Y-59734761D02*
X161342855Y-59830000D01*
X161342855Y-59830000D02*
X161485712Y-59877619D01*
X161485712Y-59877619D02*
X161723807Y-59877619D01*
D11*
X159515476Y-128459904D02*
X159515476Y-127159904D01*
X159515476Y-127778952D02*
X158772619Y-127778952D01*
X158772619Y-128459904D02*
X158772619Y-127159904D01*
X157967856Y-128459904D02*
X158091666Y-128398000D01*
X158091666Y-128398000D02*
X158153571Y-128336095D01*
X158153571Y-128336095D02*
X158215475Y-128212285D01*
X158215475Y-128212285D02*
X158215475Y-127840857D01*
X158215475Y-127840857D02*
X158153571Y-127717047D01*
X158153571Y-127717047D02*
X158091666Y-127655142D01*
X158091666Y-127655142D02*
X157967856Y-127593238D01*
X157967856Y-127593238D02*
X157782142Y-127593238D01*
X157782142Y-127593238D02*
X157658333Y-127655142D01*
X157658333Y-127655142D02*
X157596428Y-127717047D01*
X157596428Y-127717047D02*
X157534523Y-127840857D01*
X157534523Y-127840857D02*
X157534523Y-128212285D01*
X157534523Y-128212285D02*
X157596428Y-128336095D01*
X157596428Y-128336095D02*
X157658333Y-128398000D01*
X157658333Y-128398000D02*
X157782142Y-128459904D01*
X157782142Y-128459904D02*
X157967856Y-128459904D01*
X156791666Y-128459904D02*
X156915476Y-128398000D01*
X156915476Y-128398000D02*
X156977381Y-128274190D01*
X156977381Y-128274190D02*
X156977381Y-127159904D01*
X155801191Y-128398000D02*
X155925000Y-128459904D01*
X155925000Y-128459904D02*
X156172619Y-128459904D01*
X156172619Y-128459904D02*
X156296429Y-128398000D01*
X156296429Y-128398000D02*
X156358333Y-128274190D01*
X156358333Y-128274190D02*
X156358333Y-127778952D01*
X156358333Y-127778952D02*
X156296429Y-127655142D01*
X156296429Y-127655142D02*
X156172619Y-127593238D01*
X156172619Y-127593238D02*
X155925000Y-127593238D01*
X155925000Y-127593238D02*
X155801191Y-127655142D01*
X155801191Y-127655142D02*
X155739286Y-127778952D01*
X155739286Y-127778952D02*
X155739286Y-127902761D01*
X155739286Y-127902761D02*
X156358333Y-128026571D01*
X154253571Y-128398000D02*
X154067857Y-128459904D01*
X154067857Y-128459904D02*
X153758333Y-128459904D01*
X153758333Y-128459904D02*
X153634524Y-128398000D01*
X153634524Y-128398000D02*
X153572619Y-128336095D01*
X153572619Y-128336095D02*
X153510714Y-128212285D01*
X153510714Y-128212285D02*
X153510714Y-128088476D01*
X153510714Y-128088476D02*
X153572619Y-127964666D01*
X153572619Y-127964666D02*
X153634524Y-127902761D01*
X153634524Y-127902761D02*
X153758333Y-127840857D01*
X153758333Y-127840857D02*
X154005952Y-127778952D01*
X154005952Y-127778952D02*
X154129762Y-127717047D01*
X154129762Y-127717047D02*
X154191667Y-127655142D01*
X154191667Y-127655142D02*
X154253571Y-127531333D01*
X154253571Y-127531333D02*
X154253571Y-127407523D01*
X154253571Y-127407523D02*
X154191667Y-127283714D01*
X154191667Y-127283714D02*
X154129762Y-127221809D01*
X154129762Y-127221809D02*
X154005952Y-127159904D01*
X154005952Y-127159904D02*
X153696429Y-127159904D01*
X153696429Y-127159904D02*
X153510714Y-127221809D01*
X152953572Y-127593238D02*
X152953572Y-128893238D01*
X152953572Y-127655142D02*
X152829762Y-127593238D01*
X152829762Y-127593238D02*
X152582143Y-127593238D01*
X152582143Y-127593238D02*
X152458334Y-127655142D01*
X152458334Y-127655142D02*
X152396429Y-127717047D01*
X152396429Y-127717047D02*
X152334524Y-127840857D01*
X152334524Y-127840857D02*
X152334524Y-128212285D01*
X152334524Y-128212285D02*
X152396429Y-128336095D01*
X152396429Y-128336095D02*
X152458334Y-128398000D01*
X152458334Y-128398000D02*
X152582143Y-128459904D01*
X152582143Y-128459904D02*
X152829762Y-128459904D01*
X152829762Y-128459904D02*
X152953572Y-128398000D01*
X151220239Y-128459904D02*
X151220239Y-127778952D01*
X151220239Y-127778952D02*
X151282144Y-127655142D01*
X151282144Y-127655142D02*
X151405953Y-127593238D01*
X151405953Y-127593238D02*
X151653572Y-127593238D01*
X151653572Y-127593238D02*
X151777382Y-127655142D01*
X151220239Y-128398000D02*
X151344048Y-128459904D01*
X151344048Y-128459904D02*
X151653572Y-128459904D01*
X151653572Y-128459904D02*
X151777382Y-128398000D01*
X151777382Y-128398000D02*
X151839286Y-128274190D01*
X151839286Y-128274190D02*
X151839286Y-128150380D01*
X151839286Y-128150380D02*
X151777382Y-128026571D01*
X151777382Y-128026571D02*
X151653572Y-127964666D01*
X151653572Y-127964666D02*
X151344048Y-127964666D01*
X151344048Y-127964666D02*
X151220239Y-127902761D01*
X150044049Y-128398000D02*
X150167858Y-128459904D01*
X150167858Y-128459904D02*
X150415477Y-128459904D01*
X150415477Y-128459904D02*
X150539287Y-128398000D01*
X150539287Y-128398000D02*
X150601192Y-128336095D01*
X150601192Y-128336095D02*
X150663096Y-128212285D01*
X150663096Y-128212285D02*
X150663096Y-127840857D01*
X150663096Y-127840857D02*
X150601192Y-127717047D01*
X150601192Y-127717047D02*
X150539287Y-127655142D01*
X150539287Y-127655142D02*
X150415477Y-127593238D01*
X150415477Y-127593238D02*
X150167858Y-127593238D01*
X150167858Y-127593238D02*
X150044049Y-127655142D01*
X149486906Y-128459904D02*
X149486906Y-127593238D01*
X149486906Y-127159904D02*
X149548810Y-127221809D01*
X149548810Y-127221809D02*
X149486906Y-127283714D01*
X149486906Y-127283714D02*
X149425001Y-127221809D01*
X149425001Y-127221809D02*
X149486906Y-127159904D01*
X149486906Y-127159904D02*
X149486906Y-127283714D01*
X148867858Y-127593238D02*
X148867858Y-128459904D01*
X148867858Y-127717047D02*
X148805953Y-127655142D01*
X148805953Y-127655142D02*
X148682143Y-127593238D01*
X148682143Y-127593238D02*
X148496429Y-127593238D01*
X148496429Y-127593238D02*
X148372620Y-127655142D01*
X148372620Y-127655142D02*
X148310715Y-127778952D01*
X148310715Y-127778952D02*
X148310715Y-128459904D01*
X147134525Y-127593238D02*
X147134525Y-128645619D01*
X147134525Y-128645619D02*
X147196430Y-128769428D01*
X147196430Y-128769428D02*
X147258334Y-128831333D01*
X147258334Y-128831333D02*
X147382144Y-128893238D01*
X147382144Y-128893238D02*
X147567858Y-128893238D01*
X147567858Y-128893238D02*
X147691668Y-128831333D01*
X147134525Y-128398000D02*
X147258334Y-128459904D01*
X147258334Y-128459904D02*
X147505953Y-128459904D01*
X147505953Y-128459904D02*
X147629763Y-128398000D01*
X147629763Y-128398000D02*
X147691668Y-128336095D01*
X147691668Y-128336095D02*
X147753572Y-128212285D01*
X147753572Y-128212285D02*
X147753572Y-127840857D01*
X147753572Y-127840857D02*
X147691668Y-127717047D01*
X147691668Y-127717047D02*
X147629763Y-127655142D01*
X147629763Y-127655142D02*
X147505953Y-127593238D01*
X147505953Y-127593238D02*
X147258334Y-127593238D01*
X147258334Y-127593238D02*
X147134525Y-127655142D01*
X146515478Y-128336095D02*
X146453573Y-128398000D01*
X146453573Y-128398000D02*
X146515478Y-128459904D01*
X146515478Y-128459904D02*
X146577382Y-128398000D01*
X146577382Y-128398000D02*
X146515478Y-128336095D01*
X146515478Y-128336095D02*
X146515478Y-128459904D01*
X146515478Y-127655142D02*
X146453573Y-127717047D01*
X146453573Y-127717047D02*
X146515478Y-127778952D01*
X146515478Y-127778952D02*
X146577382Y-127717047D01*
X146577382Y-127717047D02*
X146515478Y-127655142D01*
X146515478Y-127655142D02*
X146515478Y-127778952D01*
X144720239Y-127717047D02*
X144844049Y-127655142D01*
X144844049Y-127655142D02*
X144905954Y-127593238D01*
X144905954Y-127593238D02*
X144967858Y-127469428D01*
X144967858Y-127469428D02*
X144967858Y-127407523D01*
X144967858Y-127407523D02*
X144905954Y-127283714D01*
X144905954Y-127283714D02*
X144844049Y-127221809D01*
X144844049Y-127221809D02*
X144720239Y-127159904D01*
X144720239Y-127159904D02*
X144472620Y-127159904D01*
X144472620Y-127159904D02*
X144348811Y-127221809D01*
X144348811Y-127221809D02*
X144286906Y-127283714D01*
X144286906Y-127283714D02*
X144225001Y-127407523D01*
X144225001Y-127407523D02*
X144225001Y-127469428D01*
X144225001Y-127469428D02*
X144286906Y-127593238D01*
X144286906Y-127593238D02*
X144348811Y-127655142D01*
X144348811Y-127655142D02*
X144472620Y-127717047D01*
X144472620Y-127717047D02*
X144720239Y-127717047D01*
X144720239Y-127717047D02*
X144844049Y-127778952D01*
X144844049Y-127778952D02*
X144905954Y-127840857D01*
X144905954Y-127840857D02*
X144967858Y-127964666D01*
X144967858Y-127964666D02*
X144967858Y-128212285D01*
X144967858Y-128212285D02*
X144905954Y-128336095D01*
X144905954Y-128336095D02*
X144844049Y-128398000D01*
X144844049Y-128398000D02*
X144720239Y-128459904D01*
X144720239Y-128459904D02*
X144472620Y-128459904D01*
X144472620Y-128459904D02*
X144348811Y-128398000D01*
X144348811Y-128398000D02*
X144286906Y-128336095D01*
X144286906Y-128336095D02*
X144225001Y-128212285D01*
X144225001Y-128212285D02*
X144225001Y-127964666D01*
X144225001Y-127964666D02*
X144286906Y-127840857D01*
X144286906Y-127840857D02*
X144348811Y-127778952D01*
X144348811Y-127778952D02*
X144472620Y-127717047D01*
X143048811Y-127159904D02*
X143667859Y-127159904D01*
X143667859Y-127159904D02*
X143729763Y-127778952D01*
X143729763Y-127778952D02*
X143667859Y-127717047D01*
X143667859Y-127717047D02*
X143544049Y-127655142D01*
X143544049Y-127655142D02*
X143234525Y-127655142D01*
X143234525Y-127655142D02*
X143110716Y-127717047D01*
X143110716Y-127717047D02*
X143048811Y-127778952D01*
X143048811Y-127778952D02*
X142986906Y-127902761D01*
X142986906Y-127902761D02*
X142986906Y-128212285D01*
X142986906Y-128212285D02*
X143048811Y-128336095D01*
X143048811Y-128336095D02*
X143110716Y-128398000D01*
X143110716Y-128398000D02*
X143234525Y-128459904D01*
X143234525Y-128459904D02*
X143544049Y-128459904D01*
X143544049Y-128459904D02*
X143667859Y-128398000D01*
X143667859Y-128398000D02*
X143729763Y-128336095D01*
X142429764Y-128459904D02*
X142429764Y-127593238D01*
X142429764Y-127717047D02*
X142367859Y-127655142D01*
X142367859Y-127655142D02*
X142244049Y-127593238D01*
X142244049Y-127593238D02*
X142058335Y-127593238D01*
X142058335Y-127593238D02*
X141934526Y-127655142D01*
X141934526Y-127655142D02*
X141872621Y-127778952D01*
X141872621Y-127778952D02*
X141872621Y-128459904D01*
X141872621Y-127778952D02*
X141810716Y-127655142D01*
X141810716Y-127655142D02*
X141686907Y-127593238D01*
X141686907Y-127593238D02*
X141501192Y-127593238D01*
X141501192Y-127593238D02*
X141377383Y-127655142D01*
X141377383Y-127655142D02*
X141315478Y-127778952D01*
X141315478Y-127778952D02*
X141315478Y-128459904D01*
X140696431Y-128459904D02*
X140696431Y-127593238D01*
X140696431Y-127717047D02*
X140634526Y-127655142D01*
X140634526Y-127655142D02*
X140510716Y-127593238D01*
X140510716Y-127593238D02*
X140325002Y-127593238D01*
X140325002Y-127593238D02*
X140201193Y-127655142D01*
X140201193Y-127655142D02*
X140139288Y-127778952D01*
X140139288Y-127778952D02*
X140139288Y-128459904D01*
X140139288Y-127778952D02*
X140077383Y-127655142D01*
X140077383Y-127655142D02*
X139953574Y-127593238D01*
X139953574Y-127593238D02*
X139767859Y-127593238D01*
X139767859Y-127593238D02*
X139644050Y-127655142D01*
X139644050Y-127655142D02*
X139582145Y-127778952D01*
X139582145Y-127778952D02*
X139582145Y-128459904D01*
X137972622Y-128459904D02*
X137972622Y-127159904D01*
X137972622Y-127655142D02*
X137848812Y-127593238D01*
X137848812Y-127593238D02*
X137601193Y-127593238D01*
X137601193Y-127593238D02*
X137477384Y-127655142D01*
X137477384Y-127655142D02*
X137415479Y-127717047D01*
X137415479Y-127717047D02*
X137353574Y-127840857D01*
X137353574Y-127840857D02*
X137353574Y-128212285D01*
X137353574Y-128212285D02*
X137415479Y-128336095D01*
X137415479Y-128336095D02*
X137477384Y-128398000D01*
X137477384Y-128398000D02*
X137601193Y-128459904D01*
X137601193Y-128459904D02*
X137848812Y-128459904D01*
X137848812Y-128459904D02*
X137972622Y-128398000D01*
X136920241Y-127593238D02*
X136610717Y-128459904D01*
X136301194Y-127593238D02*
X136610717Y-128459904D01*
X136610717Y-128459904D02*
X136734527Y-128769428D01*
X136734527Y-128769428D02*
X136796432Y-128831333D01*
X136796432Y-128831333D02*
X136920241Y-128893238D01*
X134629765Y-127717047D02*
X134753575Y-127655142D01*
X134753575Y-127655142D02*
X134815480Y-127593238D01*
X134815480Y-127593238D02*
X134877384Y-127469428D01*
X134877384Y-127469428D02*
X134877384Y-127407523D01*
X134877384Y-127407523D02*
X134815480Y-127283714D01*
X134815480Y-127283714D02*
X134753575Y-127221809D01*
X134753575Y-127221809D02*
X134629765Y-127159904D01*
X134629765Y-127159904D02*
X134382146Y-127159904D01*
X134382146Y-127159904D02*
X134258337Y-127221809D01*
X134258337Y-127221809D02*
X134196432Y-127283714D01*
X134196432Y-127283714D02*
X134134527Y-127407523D01*
X134134527Y-127407523D02*
X134134527Y-127469428D01*
X134134527Y-127469428D02*
X134196432Y-127593238D01*
X134196432Y-127593238D02*
X134258337Y-127655142D01*
X134258337Y-127655142D02*
X134382146Y-127717047D01*
X134382146Y-127717047D02*
X134629765Y-127717047D01*
X134629765Y-127717047D02*
X134753575Y-127778952D01*
X134753575Y-127778952D02*
X134815480Y-127840857D01*
X134815480Y-127840857D02*
X134877384Y-127964666D01*
X134877384Y-127964666D02*
X134877384Y-128212285D01*
X134877384Y-128212285D02*
X134815480Y-128336095D01*
X134815480Y-128336095D02*
X134753575Y-128398000D01*
X134753575Y-128398000D02*
X134629765Y-128459904D01*
X134629765Y-128459904D02*
X134382146Y-128459904D01*
X134382146Y-128459904D02*
X134258337Y-128398000D01*
X134258337Y-128398000D02*
X134196432Y-128336095D01*
X134196432Y-128336095D02*
X134134527Y-128212285D01*
X134134527Y-128212285D02*
X134134527Y-127964666D01*
X134134527Y-127964666D02*
X134196432Y-127840857D01*
X134196432Y-127840857D02*
X134258337Y-127778952D01*
X134258337Y-127778952D02*
X134382146Y-127717047D01*
X133329766Y-127159904D02*
X133205956Y-127159904D01*
X133205956Y-127159904D02*
X133082147Y-127221809D01*
X133082147Y-127221809D02*
X133020242Y-127283714D01*
X133020242Y-127283714D02*
X132958337Y-127407523D01*
X132958337Y-127407523D02*
X132896432Y-127655142D01*
X132896432Y-127655142D02*
X132896432Y-127964666D01*
X132896432Y-127964666D02*
X132958337Y-128212285D01*
X132958337Y-128212285D02*
X133020242Y-128336095D01*
X133020242Y-128336095D02*
X133082147Y-128398000D01*
X133082147Y-128398000D02*
X133205956Y-128459904D01*
X133205956Y-128459904D02*
X133329766Y-128459904D01*
X133329766Y-128459904D02*
X133453575Y-128398000D01*
X133453575Y-128398000D02*
X133515480Y-128336095D01*
X133515480Y-128336095D02*
X133577385Y-128212285D01*
X133577385Y-128212285D02*
X133639289Y-127964666D01*
X133639289Y-127964666D02*
X133639289Y-127655142D01*
X133639289Y-127655142D02*
X133577385Y-127407523D01*
X133577385Y-127407523D02*
X133515480Y-127283714D01*
X133515480Y-127283714D02*
X133453575Y-127221809D01*
X133453575Y-127221809D02*
X133329766Y-127159904D01*
X132339290Y-128459904D02*
X132339290Y-127593238D01*
X132339290Y-127717047D02*
X132277385Y-127655142D01*
X132277385Y-127655142D02*
X132153575Y-127593238D01*
X132153575Y-127593238D02*
X131967861Y-127593238D01*
X131967861Y-127593238D02*
X131844052Y-127655142D01*
X131844052Y-127655142D02*
X131782147Y-127778952D01*
X131782147Y-127778952D02*
X131782147Y-128459904D01*
X131782147Y-127778952D02*
X131720242Y-127655142D01*
X131720242Y-127655142D02*
X131596433Y-127593238D01*
X131596433Y-127593238D02*
X131410718Y-127593238D01*
X131410718Y-127593238D02*
X131286909Y-127655142D01*
X131286909Y-127655142D02*
X131225004Y-127778952D01*
X131225004Y-127778952D02*
X131225004Y-128459904D01*
X130605957Y-128459904D02*
X130605957Y-127593238D01*
X130605957Y-127717047D02*
X130544052Y-127655142D01*
X130544052Y-127655142D02*
X130420242Y-127593238D01*
X130420242Y-127593238D02*
X130234528Y-127593238D01*
X130234528Y-127593238D02*
X130110719Y-127655142D01*
X130110719Y-127655142D02*
X130048814Y-127778952D01*
X130048814Y-127778952D02*
X130048814Y-128459904D01*
X130048814Y-127778952D02*
X129986909Y-127655142D01*
X129986909Y-127655142D02*
X129863100Y-127593238D01*
X129863100Y-127593238D02*
X129677385Y-127593238D01*
X129677385Y-127593238D02*
X129553576Y-127655142D01*
X129553576Y-127655142D02*
X129491671Y-127778952D01*
X129491671Y-127778952D02*
X129491671Y-128459904D01*
X128810719Y-128398000D02*
X128810719Y-128459904D01*
X128810719Y-128459904D02*
X128872624Y-128583714D01*
X128872624Y-128583714D02*
X128934528Y-128645619D01*
X127263100Y-128459904D02*
X127263100Y-127159904D01*
X127263100Y-127159904D02*
X126829766Y-128088476D01*
X126829766Y-128088476D02*
X126396433Y-127159904D01*
X126396433Y-127159904D02*
X126396433Y-128459904D01*
X125220243Y-127593238D02*
X125220243Y-128459904D01*
X125529767Y-127098000D02*
X125839290Y-128026571D01*
X125839290Y-128026571D02*
X125034529Y-128026571D01*
X159082142Y-129884952D02*
X158896428Y-129946857D01*
X158896428Y-129946857D02*
X158834523Y-130008761D01*
X158834523Y-130008761D02*
X158772619Y-130132571D01*
X158772619Y-130132571D02*
X158772619Y-130318285D01*
X158772619Y-130318285D02*
X158834523Y-130442095D01*
X158834523Y-130442095D02*
X158896428Y-130504000D01*
X158896428Y-130504000D02*
X159020238Y-130565904D01*
X159020238Y-130565904D02*
X159515476Y-130565904D01*
X159515476Y-130565904D02*
X159515476Y-129265904D01*
X159515476Y-129265904D02*
X159082142Y-129265904D01*
X159082142Y-129265904D02*
X158958333Y-129327809D01*
X158958333Y-129327809D02*
X158896428Y-129389714D01*
X158896428Y-129389714D02*
X158834523Y-129513523D01*
X158834523Y-129513523D02*
X158834523Y-129637333D01*
X158834523Y-129637333D02*
X158896428Y-129761142D01*
X158896428Y-129761142D02*
X158958333Y-129823047D01*
X158958333Y-129823047D02*
X159082142Y-129884952D01*
X159082142Y-129884952D02*
X159515476Y-129884952D01*
X158029761Y-130565904D02*
X158153571Y-130504000D01*
X158153571Y-130504000D02*
X158215476Y-130442095D01*
X158215476Y-130442095D02*
X158277380Y-130318285D01*
X158277380Y-130318285D02*
X158277380Y-129946857D01*
X158277380Y-129946857D02*
X158215476Y-129823047D01*
X158215476Y-129823047D02*
X158153571Y-129761142D01*
X158153571Y-129761142D02*
X158029761Y-129699238D01*
X158029761Y-129699238D02*
X157844047Y-129699238D01*
X157844047Y-129699238D02*
X157720238Y-129761142D01*
X157720238Y-129761142D02*
X157658333Y-129823047D01*
X157658333Y-129823047D02*
X157596428Y-129946857D01*
X157596428Y-129946857D02*
X157596428Y-130318285D01*
X157596428Y-130318285D02*
X157658333Y-130442095D01*
X157658333Y-130442095D02*
X157720238Y-130504000D01*
X157720238Y-130504000D02*
X157844047Y-130565904D01*
X157844047Y-130565904D02*
X158029761Y-130565904D01*
X156482143Y-130565904D02*
X156482143Y-129884952D01*
X156482143Y-129884952D02*
X156544048Y-129761142D01*
X156544048Y-129761142D02*
X156667857Y-129699238D01*
X156667857Y-129699238D02*
X156915476Y-129699238D01*
X156915476Y-129699238D02*
X157039286Y-129761142D01*
X156482143Y-130504000D02*
X156605952Y-130565904D01*
X156605952Y-130565904D02*
X156915476Y-130565904D01*
X156915476Y-130565904D02*
X157039286Y-130504000D01*
X157039286Y-130504000D02*
X157101190Y-130380190D01*
X157101190Y-130380190D02*
X157101190Y-130256380D01*
X157101190Y-130256380D02*
X157039286Y-130132571D01*
X157039286Y-130132571D02*
X156915476Y-130070666D01*
X156915476Y-130070666D02*
X156605952Y-130070666D01*
X156605952Y-130070666D02*
X156482143Y-130008761D01*
X155863096Y-130565904D02*
X155863096Y-129699238D01*
X155863096Y-129946857D02*
X155801191Y-129823047D01*
X155801191Y-129823047D02*
X155739286Y-129761142D01*
X155739286Y-129761142D02*
X155615477Y-129699238D01*
X155615477Y-129699238D02*
X155491667Y-129699238D01*
X154501191Y-130565904D02*
X154501191Y-129265904D01*
X154501191Y-130504000D02*
X154625000Y-130565904D01*
X154625000Y-130565904D02*
X154872619Y-130565904D01*
X154872619Y-130565904D02*
X154996429Y-130504000D01*
X154996429Y-130504000D02*
X155058334Y-130442095D01*
X155058334Y-130442095D02*
X155120238Y-130318285D01*
X155120238Y-130318285D02*
X155120238Y-129946857D01*
X155120238Y-129946857D02*
X155058334Y-129823047D01*
X155058334Y-129823047D02*
X154996429Y-129761142D01*
X154996429Y-129761142D02*
X154872619Y-129699238D01*
X154872619Y-129699238D02*
X154625000Y-129699238D01*
X154625000Y-129699238D02*
X154501191Y-129761142D01*
X152953572Y-130504000D02*
X152767858Y-130565904D01*
X152767858Y-130565904D02*
X152458334Y-130565904D01*
X152458334Y-130565904D02*
X152334525Y-130504000D01*
X152334525Y-130504000D02*
X152272620Y-130442095D01*
X152272620Y-130442095D02*
X152210715Y-130318285D01*
X152210715Y-130318285D02*
X152210715Y-130194476D01*
X152210715Y-130194476D02*
X152272620Y-130070666D01*
X152272620Y-130070666D02*
X152334525Y-130008761D01*
X152334525Y-130008761D02*
X152458334Y-129946857D01*
X152458334Y-129946857D02*
X152705953Y-129884952D01*
X152705953Y-129884952D02*
X152829763Y-129823047D01*
X152829763Y-129823047D02*
X152891668Y-129761142D01*
X152891668Y-129761142D02*
X152953572Y-129637333D01*
X152953572Y-129637333D02*
X152953572Y-129513523D01*
X152953572Y-129513523D02*
X152891668Y-129389714D01*
X152891668Y-129389714D02*
X152829763Y-129327809D01*
X152829763Y-129327809D02*
X152705953Y-129265904D01*
X152705953Y-129265904D02*
X152396430Y-129265904D01*
X152396430Y-129265904D02*
X152210715Y-129327809D01*
X151653573Y-130565904D02*
X151653573Y-129699238D01*
X151653573Y-129265904D02*
X151715477Y-129327809D01*
X151715477Y-129327809D02*
X151653573Y-129389714D01*
X151653573Y-129389714D02*
X151591668Y-129327809D01*
X151591668Y-129327809D02*
X151653573Y-129265904D01*
X151653573Y-129265904D02*
X151653573Y-129389714D01*
X151158334Y-129699238D02*
X150477382Y-129699238D01*
X150477382Y-129699238D02*
X151158334Y-130565904D01*
X151158334Y-130565904D02*
X150477382Y-130565904D01*
X149486906Y-130504000D02*
X149610715Y-130565904D01*
X149610715Y-130565904D02*
X149858334Y-130565904D01*
X149858334Y-130565904D02*
X149982144Y-130504000D01*
X149982144Y-130504000D02*
X150044048Y-130380190D01*
X150044048Y-130380190D02*
X150044048Y-129884952D01*
X150044048Y-129884952D02*
X149982144Y-129761142D01*
X149982144Y-129761142D02*
X149858334Y-129699238D01*
X149858334Y-129699238D02*
X149610715Y-129699238D01*
X149610715Y-129699238D02*
X149486906Y-129761142D01*
X149486906Y-129761142D02*
X149425001Y-129884952D01*
X149425001Y-129884952D02*
X149425001Y-130008761D01*
X149425001Y-130008761D02*
X150044048Y-130132571D01*
X148867858Y-130442095D02*
X148805953Y-130504000D01*
X148805953Y-130504000D02*
X148867858Y-130565904D01*
X148867858Y-130565904D02*
X148929762Y-130504000D01*
X148929762Y-130504000D02*
X148867858Y-130442095D01*
X148867858Y-130442095D02*
X148867858Y-130565904D01*
X148867858Y-129761142D02*
X148805953Y-129823047D01*
X148805953Y-129823047D02*
X148867858Y-129884952D01*
X148867858Y-129884952D02*
X148929762Y-129823047D01*
X148929762Y-129823047D02*
X148867858Y-129761142D01*
X148867858Y-129761142D02*
X148867858Y-129884952D01*
X147196429Y-130565904D02*
X146948810Y-130565904D01*
X146948810Y-130565904D02*
X146825000Y-130504000D01*
X146825000Y-130504000D02*
X146763096Y-130442095D01*
X146763096Y-130442095D02*
X146639286Y-130256380D01*
X146639286Y-130256380D02*
X146577381Y-130008761D01*
X146577381Y-130008761D02*
X146577381Y-129513523D01*
X146577381Y-129513523D02*
X146639286Y-129389714D01*
X146639286Y-129389714D02*
X146701191Y-129327809D01*
X146701191Y-129327809D02*
X146825000Y-129265904D01*
X146825000Y-129265904D02*
X147072619Y-129265904D01*
X147072619Y-129265904D02*
X147196429Y-129327809D01*
X147196429Y-129327809D02*
X147258334Y-129389714D01*
X147258334Y-129389714D02*
X147320238Y-129513523D01*
X147320238Y-129513523D02*
X147320238Y-129823047D01*
X147320238Y-129823047D02*
X147258334Y-129946857D01*
X147258334Y-129946857D02*
X147196429Y-130008761D01*
X147196429Y-130008761D02*
X147072619Y-130070666D01*
X147072619Y-130070666D02*
X146825000Y-130070666D01*
X146825000Y-130070666D02*
X146701191Y-130008761D01*
X146701191Y-130008761D02*
X146639286Y-129946857D01*
X146639286Y-129946857D02*
X146577381Y-129823047D01*
X146144048Y-129265904D02*
X145277382Y-129265904D01*
X145277382Y-129265904D02*
X145834524Y-130565904D01*
X144782144Y-130565904D02*
X144782144Y-129699238D01*
X144782144Y-129823047D02*
X144720239Y-129761142D01*
X144720239Y-129761142D02*
X144596429Y-129699238D01*
X144596429Y-129699238D02*
X144410715Y-129699238D01*
X144410715Y-129699238D02*
X144286906Y-129761142D01*
X144286906Y-129761142D02*
X144225001Y-129884952D01*
X144225001Y-129884952D02*
X144225001Y-130565904D01*
X144225001Y-129884952D02*
X144163096Y-129761142D01*
X144163096Y-129761142D02*
X144039287Y-129699238D01*
X144039287Y-129699238D02*
X143853572Y-129699238D01*
X143853572Y-129699238D02*
X143729763Y-129761142D01*
X143729763Y-129761142D02*
X143667858Y-129884952D01*
X143667858Y-129884952D02*
X143667858Y-130565904D01*
X143048811Y-130565904D02*
X143048811Y-129699238D01*
X143048811Y-129823047D02*
X142986906Y-129761142D01*
X142986906Y-129761142D02*
X142863096Y-129699238D01*
X142863096Y-129699238D02*
X142677382Y-129699238D01*
X142677382Y-129699238D02*
X142553573Y-129761142D01*
X142553573Y-129761142D02*
X142491668Y-129884952D01*
X142491668Y-129884952D02*
X142491668Y-130565904D01*
X142491668Y-129884952D02*
X142429763Y-129761142D01*
X142429763Y-129761142D02*
X142305954Y-129699238D01*
X142305954Y-129699238D02*
X142120239Y-129699238D01*
X142120239Y-129699238D02*
X141996430Y-129761142D01*
X141996430Y-129761142D02*
X141934525Y-129884952D01*
X141934525Y-129884952D02*
X141934525Y-130565904D01*
X140325002Y-130565904D02*
X140325002Y-129265904D01*
X140325002Y-129761142D02*
X140201192Y-129699238D01*
X140201192Y-129699238D02*
X139953573Y-129699238D01*
X139953573Y-129699238D02*
X139829764Y-129761142D01*
X139829764Y-129761142D02*
X139767859Y-129823047D01*
X139767859Y-129823047D02*
X139705954Y-129946857D01*
X139705954Y-129946857D02*
X139705954Y-130318285D01*
X139705954Y-130318285D02*
X139767859Y-130442095D01*
X139767859Y-130442095D02*
X139829764Y-130504000D01*
X139829764Y-130504000D02*
X139953573Y-130565904D01*
X139953573Y-130565904D02*
X140201192Y-130565904D01*
X140201192Y-130565904D02*
X140325002Y-130504000D01*
X139272621Y-129699238D02*
X138963097Y-130565904D01*
X138653574Y-129699238D02*
X138963097Y-130565904D01*
X138963097Y-130565904D02*
X139086907Y-130875428D01*
X139086907Y-130875428D02*
X139148812Y-130937333D01*
X139148812Y-130937333D02*
X139272621Y-130999238D01*
X137105955Y-130565904D02*
X136858336Y-130565904D01*
X136858336Y-130565904D02*
X136734526Y-130504000D01*
X136734526Y-130504000D02*
X136672622Y-130442095D01*
X136672622Y-130442095D02*
X136548812Y-130256380D01*
X136548812Y-130256380D02*
X136486907Y-130008761D01*
X136486907Y-130008761D02*
X136486907Y-129513523D01*
X136486907Y-129513523D02*
X136548812Y-129389714D01*
X136548812Y-129389714D02*
X136610717Y-129327809D01*
X136610717Y-129327809D02*
X136734526Y-129265904D01*
X136734526Y-129265904D02*
X136982145Y-129265904D01*
X136982145Y-129265904D02*
X137105955Y-129327809D01*
X137105955Y-129327809D02*
X137167860Y-129389714D01*
X137167860Y-129389714D02*
X137229764Y-129513523D01*
X137229764Y-129513523D02*
X137229764Y-129823047D01*
X137229764Y-129823047D02*
X137167860Y-129946857D01*
X137167860Y-129946857D02*
X137105955Y-130008761D01*
X137105955Y-130008761D02*
X136982145Y-130070666D01*
X136982145Y-130070666D02*
X136734526Y-130070666D01*
X136734526Y-130070666D02*
X136610717Y-130008761D01*
X136610717Y-130008761D02*
X136548812Y-129946857D01*
X136548812Y-129946857D02*
X136486907Y-129823047D01*
X135991669Y-129389714D02*
X135929765Y-129327809D01*
X135929765Y-129327809D02*
X135805955Y-129265904D01*
X135805955Y-129265904D02*
X135496431Y-129265904D01*
X135496431Y-129265904D02*
X135372622Y-129327809D01*
X135372622Y-129327809D02*
X135310717Y-129389714D01*
X135310717Y-129389714D02*
X135248812Y-129513523D01*
X135248812Y-129513523D02*
X135248812Y-129637333D01*
X135248812Y-129637333D02*
X135310717Y-129823047D01*
X135310717Y-129823047D02*
X136053574Y-130565904D01*
X136053574Y-130565904D02*
X135248812Y-130565904D01*
X134691670Y-130565904D02*
X134691670Y-129699238D01*
X134691670Y-129823047D02*
X134629765Y-129761142D01*
X134629765Y-129761142D02*
X134505955Y-129699238D01*
X134505955Y-129699238D02*
X134320241Y-129699238D01*
X134320241Y-129699238D02*
X134196432Y-129761142D01*
X134196432Y-129761142D02*
X134134527Y-129884952D01*
X134134527Y-129884952D02*
X134134527Y-130565904D01*
X134134527Y-129884952D02*
X134072622Y-129761142D01*
X134072622Y-129761142D02*
X133948813Y-129699238D01*
X133948813Y-129699238D02*
X133763098Y-129699238D01*
X133763098Y-129699238D02*
X133639289Y-129761142D01*
X133639289Y-129761142D02*
X133577384Y-129884952D01*
X133577384Y-129884952D02*
X133577384Y-130565904D01*
X132958337Y-130565904D02*
X132958337Y-129699238D01*
X132958337Y-129823047D02*
X132896432Y-129761142D01*
X132896432Y-129761142D02*
X132772622Y-129699238D01*
X132772622Y-129699238D02*
X132586908Y-129699238D01*
X132586908Y-129699238D02*
X132463099Y-129761142D01*
X132463099Y-129761142D02*
X132401194Y-129884952D01*
X132401194Y-129884952D02*
X132401194Y-130565904D01*
X132401194Y-129884952D02*
X132339289Y-129761142D01*
X132339289Y-129761142D02*
X132215480Y-129699238D01*
X132215480Y-129699238D02*
X132029765Y-129699238D01*
X132029765Y-129699238D02*
X131905956Y-129761142D01*
X131905956Y-129761142D02*
X131844051Y-129884952D01*
X131844051Y-129884952D02*
X131844051Y-130565904D01*
D10*
X185890476Y-59682380D02*
X185938095Y-59730000D01*
X185938095Y-59730000D02*
X186080952Y-59777619D01*
X186080952Y-59777619D02*
X186176190Y-59777619D01*
X186176190Y-59777619D02*
X186319047Y-59730000D01*
X186319047Y-59730000D02*
X186414285Y-59634761D01*
X186414285Y-59634761D02*
X186461904Y-59539523D01*
X186461904Y-59539523D02*
X186509523Y-59349047D01*
X186509523Y-59349047D02*
X186509523Y-59206190D01*
X186509523Y-59206190D02*
X186461904Y-59015714D01*
X186461904Y-59015714D02*
X186414285Y-58920476D01*
X186414285Y-58920476D02*
X186319047Y-58825238D01*
X186319047Y-58825238D02*
X186176190Y-58777619D01*
X186176190Y-58777619D02*
X186080952Y-58777619D01*
X186080952Y-58777619D02*
X185938095Y-58825238D01*
X185938095Y-58825238D02*
X185890476Y-58872857D01*
X185461904Y-59777619D02*
X185461904Y-58777619D01*
X185033333Y-59777619D02*
X185033333Y-59253809D01*
X185033333Y-59253809D02*
X185080952Y-59158571D01*
X185080952Y-59158571D02*
X185176190Y-59110952D01*
X185176190Y-59110952D02*
X185319047Y-59110952D01*
X185319047Y-59110952D02*
X185414285Y-59158571D01*
X185414285Y-59158571D02*
X185461904Y-59206190D01*
X184128571Y-59777619D02*
X184128571Y-59253809D01*
X184128571Y-59253809D02*
X184176190Y-59158571D01*
X184176190Y-59158571D02*
X184271428Y-59110952D01*
X184271428Y-59110952D02*
X184461904Y-59110952D01*
X184461904Y-59110952D02*
X184557142Y-59158571D01*
X184128571Y-59730000D02*
X184223809Y-59777619D01*
X184223809Y-59777619D02*
X184461904Y-59777619D01*
X184461904Y-59777619D02*
X184557142Y-59730000D01*
X184557142Y-59730000D02*
X184604761Y-59634761D01*
X184604761Y-59634761D02*
X184604761Y-59539523D01*
X184604761Y-59539523D02*
X184557142Y-59444285D01*
X184557142Y-59444285D02*
X184461904Y-59396666D01*
X184461904Y-59396666D02*
X184223809Y-59396666D01*
X184223809Y-59396666D02*
X184128571Y-59349047D01*
X183652380Y-59777619D02*
X183652380Y-59110952D01*
X183652380Y-59301428D02*
X183604761Y-59206190D01*
X183604761Y-59206190D02*
X183557142Y-59158571D01*
X183557142Y-59158571D02*
X183461904Y-59110952D01*
X183461904Y-59110952D02*
X183366666Y-59110952D01*
X182604761Y-59110952D02*
X182604761Y-59920476D01*
X182604761Y-59920476D02*
X182652380Y-60015714D01*
X182652380Y-60015714D02*
X182699999Y-60063333D01*
X182699999Y-60063333D02*
X182795237Y-60110952D01*
X182795237Y-60110952D02*
X182938094Y-60110952D01*
X182938094Y-60110952D02*
X183033332Y-60063333D01*
X182604761Y-59730000D02*
X182699999Y-59777619D01*
X182699999Y-59777619D02*
X182890475Y-59777619D01*
X182890475Y-59777619D02*
X182985713Y-59730000D01*
X182985713Y-59730000D02*
X183033332Y-59682380D01*
X183033332Y-59682380D02*
X183080951Y-59587142D01*
X183080951Y-59587142D02*
X183080951Y-59301428D01*
X183080951Y-59301428D02*
X183033332Y-59206190D01*
X183033332Y-59206190D02*
X182985713Y-59158571D01*
X182985713Y-59158571D02*
X182890475Y-59110952D01*
X182890475Y-59110952D02*
X182699999Y-59110952D01*
X182699999Y-59110952D02*
X182604761Y-59158571D01*
X181747618Y-59730000D02*
X181842856Y-59777619D01*
X181842856Y-59777619D02*
X182033332Y-59777619D01*
X182033332Y-59777619D02*
X182128570Y-59730000D01*
X182128570Y-59730000D02*
X182176189Y-59634761D01*
X182176189Y-59634761D02*
X182176189Y-59253809D01*
X182176189Y-59253809D02*
X182128570Y-59158571D01*
X182128570Y-59158571D02*
X182033332Y-59110952D01*
X182033332Y-59110952D02*
X181842856Y-59110952D01*
X181842856Y-59110952D02*
X181747618Y-59158571D01*
X181747618Y-59158571D02*
X181699999Y-59253809D01*
X181699999Y-59253809D02*
X181699999Y-59349047D01*
X181699999Y-59349047D02*
X182176189Y-59444285D01*
X181271427Y-59777619D02*
X181271427Y-59110952D01*
X181271427Y-59301428D02*
X181223808Y-59206190D01*
X181223808Y-59206190D02*
X181176189Y-59158571D01*
X181176189Y-59158571D02*
X181080951Y-59110952D01*
X181080951Y-59110952D02*
X180985713Y-59110952D01*
X179938093Y-59491904D02*
X179461903Y-59491904D01*
X180033331Y-59777619D02*
X179699998Y-58777619D01*
X179699998Y-58777619D02*
X179366665Y-59777619D01*
X178604760Y-59730000D02*
X178699998Y-59777619D01*
X178699998Y-59777619D02*
X178890474Y-59777619D01*
X178890474Y-59777619D02*
X178985712Y-59730000D01*
X178985712Y-59730000D02*
X179033331Y-59682380D01*
X179033331Y-59682380D02*
X179080950Y-59587142D01*
X179080950Y-59587142D02*
X179080950Y-59301428D01*
X179080950Y-59301428D02*
X179033331Y-59206190D01*
X179033331Y-59206190D02*
X178985712Y-59158571D01*
X178985712Y-59158571D02*
X178890474Y-59110952D01*
X178890474Y-59110952D02*
X178699998Y-59110952D01*
X178699998Y-59110952D02*
X178604760Y-59158571D01*
X178319045Y-59110952D02*
X177938093Y-59110952D01*
X178176188Y-58777619D02*
X178176188Y-59634761D01*
X178176188Y-59634761D02*
X178128569Y-59730000D01*
X178128569Y-59730000D02*
X178033331Y-59777619D01*
X178033331Y-59777619D02*
X177938093Y-59777619D01*
X177604759Y-59777619D02*
X177604759Y-59110952D01*
X177604759Y-58777619D02*
X177652378Y-58825238D01*
X177652378Y-58825238D02*
X177604759Y-58872857D01*
X177604759Y-58872857D02*
X177557140Y-58825238D01*
X177557140Y-58825238D02*
X177604759Y-58777619D01*
X177604759Y-58777619D02*
X177604759Y-58872857D01*
X177223807Y-59110952D02*
X176985712Y-59777619D01*
X176985712Y-59777619D02*
X176747617Y-59110952D01*
X175985712Y-59730000D02*
X176080950Y-59777619D01*
X176080950Y-59777619D02*
X176271426Y-59777619D01*
X176271426Y-59777619D02*
X176366664Y-59730000D01*
X176366664Y-59730000D02*
X176414283Y-59634761D01*
X176414283Y-59634761D02*
X176414283Y-59253809D01*
X176414283Y-59253809D02*
X176366664Y-59158571D01*
X176366664Y-59158571D02*
X176271426Y-59110952D01*
X176271426Y-59110952D02*
X176080950Y-59110952D01*
X176080950Y-59110952D02*
X175985712Y-59158571D01*
X175985712Y-59158571D02*
X175938093Y-59253809D01*
X175938093Y-59253809D02*
X175938093Y-59349047D01*
X175938093Y-59349047D02*
X176414283Y-59444285D01*
X174271426Y-59777619D02*
X174747616Y-59777619D01*
X174747616Y-59777619D02*
X174747616Y-58777619D01*
X173938092Y-59253809D02*
X173604759Y-59253809D01*
X173461902Y-59777619D02*
X173938092Y-59777619D01*
X173938092Y-59777619D02*
X173938092Y-58777619D01*
X173938092Y-58777619D02*
X173461902Y-58777619D01*
X173033330Y-59777619D02*
X173033330Y-58777619D01*
X173033330Y-58777619D02*
X172795235Y-58777619D01*
X172795235Y-58777619D02*
X172652378Y-58825238D01*
X172652378Y-58825238D02*
X172557140Y-58920476D01*
X172557140Y-58920476D02*
X172509521Y-59015714D01*
X172509521Y-59015714D02*
X172461902Y-59206190D01*
X172461902Y-59206190D02*
X172461902Y-59349047D01*
X172461902Y-59349047D02*
X172509521Y-59539523D01*
X172509521Y-59539523D02*
X172557140Y-59634761D01*
X172557140Y-59634761D02*
X172652378Y-59730000D01*
X172652378Y-59730000D02*
X172795235Y-59777619D01*
X172795235Y-59777619D02*
X173033330Y-59777619D01*
X169157142Y-112845000D02*
X170300000Y-112845000D01*
X169728571Y-113416428D02*
X169728571Y-112273571D01*
X126690476Y-121882380D02*
X126738095Y-121930000D01*
X126738095Y-121930000D02*
X126880952Y-121977619D01*
X126880952Y-121977619D02*
X126976190Y-121977619D01*
X126976190Y-121977619D02*
X127119047Y-121930000D01*
X127119047Y-121930000D02*
X127214285Y-121834761D01*
X127214285Y-121834761D02*
X127261904Y-121739523D01*
X127261904Y-121739523D02*
X127309523Y-121549047D01*
X127309523Y-121549047D02*
X127309523Y-121406190D01*
X127309523Y-121406190D02*
X127261904Y-121215714D01*
X127261904Y-121215714D02*
X127214285Y-121120476D01*
X127214285Y-121120476D02*
X127119047Y-121025238D01*
X127119047Y-121025238D02*
X126976190Y-120977619D01*
X126976190Y-120977619D02*
X126880952Y-120977619D01*
X126880952Y-120977619D02*
X126738095Y-121025238D01*
X126738095Y-121025238D02*
X126690476Y-121072857D01*
X126309523Y-121691904D02*
X125833333Y-121691904D01*
X126404761Y-121977619D02*
X126071428Y-120977619D01*
X126071428Y-120977619D02*
X125738095Y-121977619D01*
X125404761Y-121977619D02*
X125404761Y-120977619D01*
X125404761Y-120977619D02*
X124833333Y-121977619D01*
X124833333Y-121977619D02*
X124833333Y-120977619D01*
X123404761Y-120977619D02*
X123214285Y-120977619D01*
X123214285Y-120977619D02*
X123119047Y-121025238D01*
X123119047Y-121025238D02*
X123023809Y-121120476D01*
X123023809Y-121120476D02*
X122976190Y-121310952D01*
X122976190Y-121310952D02*
X122976190Y-121644285D01*
X122976190Y-121644285D02*
X123023809Y-121834761D01*
X123023809Y-121834761D02*
X123119047Y-121930000D01*
X123119047Y-121930000D02*
X123214285Y-121977619D01*
X123214285Y-121977619D02*
X123404761Y-121977619D01*
X123404761Y-121977619D02*
X123499999Y-121930000D01*
X123499999Y-121930000D02*
X123595237Y-121834761D01*
X123595237Y-121834761D02*
X123642856Y-121644285D01*
X123642856Y-121644285D02*
X123642856Y-121310952D01*
X123642856Y-121310952D02*
X123595237Y-121120476D01*
X123595237Y-121120476D02*
X123499999Y-121025238D01*
X123499999Y-121025238D02*
X123404761Y-120977619D01*
X122119047Y-121310952D02*
X122119047Y-121977619D01*
X122547618Y-121310952D02*
X122547618Y-121834761D01*
X122547618Y-121834761D02*
X122499999Y-121930000D01*
X122499999Y-121930000D02*
X122404761Y-121977619D01*
X122404761Y-121977619D02*
X122261904Y-121977619D01*
X122261904Y-121977619D02*
X122166666Y-121930000D01*
X122166666Y-121930000D02*
X122119047Y-121882380D01*
X121785713Y-121310952D02*
X121404761Y-121310952D01*
X121642856Y-120977619D02*
X121642856Y-121834761D01*
X121642856Y-121834761D02*
X121595237Y-121930000D01*
X121595237Y-121930000D02*
X121499999Y-121977619D01*
X121499999Y-121977619D02*
X121404761Y-121977619D01*
X157357142Y-112845000D02*
X158500000Y-112845000D01*
X157928571Y-113416428D02*
X157928571Y-112273571D01*
X120638095Y-66477619D02*
X121209523Y-66477619D01*
X120923809Y-66477619D02*
X120923809Y-65477619D01*
X120923809Y-65477619D02*
X121019047Y-65620476D01*
X121019047Y-65620476D02*
X121114285Y-65715714D01*
X121114285Y-65715714D02*
X121209523Y-65763333D01*
X166342857Y-52345000D02*
X165200000Y-52345000D01*
X165771428Y-52916428D02*
X165771428Y-51773571D01*
X102733333Y-65910952D02*
X102733333Y-66577619D01*
X102971428Y-65530000D02*
X103209523Y-66244285D01*
X103209523Y-66244285D02*
X102590476Y-66244285D01*
X152342857Y-52345000D02*
X151200000Y-52345000D01*
X151771428Y-52916428D02*
X151771428Y-51773571D01*
X121857142Y-112845000D02*
X123000000Y-112845000D01*
X122428571Y-113416428D02*
X122428571Y-112273571D01*
X180857142Y-112845000D02*
X182000000Y-112845000D01*
X181428571Y-113416428D02*
X181428571Y-112273571D01*
X113257142Y-112945000D02*
X114400000Y-112945000D01*
X149142857Y-52445000D02*
X148000000Y-52445000D01*
X114190476Y-121882380D02*
X114238095Y-121930000D01*
X114238095Y-121930000D02*
X114380952Y-121977619D01*
X114380952Y-121977619D02*
X114476190Y-121977619D01*
X114476190Y-121977619D02*
X114619047Y-121930000D01*
X114619047Y-121930000D02*
X114714285Y-121834761D01*
X114714285Y-121834761D02*
X114761904Y-121739523D01*
X114761904Y-121739523D02*
X114809523Y-121549047D01*
X114809523Y-121549047D02*
X114809523Y-121406190D01*
X114809523Y-121406190D02*
X114761904Y-121215714D01*
X114761904Y-121215714D02*
X114714285Y-121120476D01*
X114714285Y-121120476D02*
X114619047Y-121025238D01*
X114619047Y-121025238D02*
X114476190Y-120977619D01*
X114476190Y-120977619D02*
X114380952Y-120977619D01*
X114380952Y-120977619D02*
X114238095Y-121025238D01*
X114238095Y-121025238D02*
X114190476Y-121072857D01*
X113809523Y-121691904D02*
X113333333Y-121691904D01*
X113904761Y-121977619D02*
X113571428Y-120977619D01*
X113571428Y-120977619D02*
X113238095Y-121977619D01*
X112904761Y-121977619D02*
X112904761Y-120977619D01*
X112904761Y-120977619D02*
X112333333Y-121977619D01*
X112333333Y-121977619D02*
X112333333Y-120977619D01*
X111095237Y-121977619D02*
X111095237Y-120977619D01*
X110619047Y-121310952D02*
X110619047Y-121977619D01*
X110619047Y-121406190D02*
X110571428Y-121358571D01*
X110571428Y-121358571D02*
X110476190Y-121310952D01*
X110476190Y-121310952D02*
X110333333Y-121310952D01*
X110333333Y-121310952D02*
X110238095Y-121358571D01*
X110238095Y-121358571D02*
X110190476Y-121453809D01*
X110190476Y-121453809D02*
X110190476Y-121977619D01*
X172590476Y-122177619D02*
X172923809Y-121701428D01*
X173161904Y-122177619D02*
X173161904Y-121177619D01*
X173161904Y-121177619D02*
X172780952Y-121177619D01*
X172780952Y-121177619D02*
X172685714Y-121225238D01*
X172685714Y-121225238D02*
X172638095Y-121272857D01*
X172638095Y-121272857D02*
X172590476Y-121368095D01*
X172590476Y-121368095D02*
X172590476Y-121510952D01*
X172590476Y-121510952D02*
X172638095Y-121606190D01*
X172638095Y-121606190D02*
X172685714Y-121653809D01*
X172685714Y-121653809D02*
X172780952Y-121701428D01*
X172780952Y-121701428D02*
X173161904Y-121701428D01*
X171780952Y-122130000D02*
X171876190Y-122177619D01*
X171876190Y-122177619D02*
X172066666Y-122177619D01*
X172066666Y-122177619D02*
X172161904Y-122130000D01*
X172161904Y-122130000D02*
X172209523Y-122034761D01*
X172209523Y-122034761D02*
X172209523Y-121653809D01*
X172209523Y-121653809D02*
X172161904Y-121558571D01*
X172161904Y-121558571D02*
X172066666Y-121510952D01*
X172066666Y-121510952D02*
X171876190Y-121510952D01*
X171876190Y-121510952D02*
X171780952Y-121558571D01*
X171780952Y-121558571D02*
X171733333Y-121653809D01*
X171733333Y-121653809D02*
X171733333Y-121749047D01*
X171733333Y-121749047D02*
X172209523Y-121844285D01*
X171161904Y-122177619D02*
X171257142Y-122130000D01*
X171257142Y-122130000D02*
X171304761Y-122034761D01*
X171304761Y-122034761D02*
X171304761Y-121177619D01*
X170352380Y-122177619D02*
X170352380Y-121653809D01*
X170352380Y-121653809D02*
X170399999Y-121558571D01*
X170399999Y-121558571D02*
X170495237Y-121510952D01*
X170495237Y-121510952D02*
X170685713Y-121510952D01*
X170685713Y-121510952D02*
X170780951Y-121558571D01*
X170352380Y-122130000D02*
X170447618Y-122177619D01*
X170447618Y-122177619D02*
X170685713Y-122177619D01*
X170685713Y-122177619D02*
X170780951Y-122130000D01*
X170780951Y-122130000D02*
X170828570Y-122034761D01*
X170828570Y-122034761D02*
X170828570Y-121939523D01*
X170828570Y-121939523D02*
X170780951Y-121844285D01*
X170780951Y-121844285D02*
X170685713Y-121796666D01*
X170685713Y-121796666D02*
X170447618Y-121796666D01*
X170447618Y-121796666D02*
X170352380Y-121749047D01*
X169971427Y-121510952D02*
X169733332Y-122177619D01*
X169495237Y-121510952D02*
X169733332Y-122177619D01*
X169733332Y-122177619D02*
X169828570Y-122415714D01*
X169828570Y-122415714D02*
X169876189Y-122463333D01*
X169876189Y-122463333D02*
X169971427Y-122510952D01*
X172357142Y-112845000D02*
X173500000Y-112845000D01*
X103119047Y-62906190D02*
X103214285Y-62858571D01*
X103214285Y-62858571D02*
X103261904Y-62810952D01*
X103261904Y-62810952D02*
X103309523Y-62715714D01*
X103309523Y-62715714D02*
X103309523Y-62668095D01*
X103309523Y-62668095D02*
X103261904Y-62572857D01*
X103261904Y-62572857D02*
X103214285Y-62525238D01*
X103214285Y-62525238D02*
X103119047Y-62477619D01*
X103119047Y-62477619D02*
X102928571Y-62477619D01*
X102928571Y-62477619D02*
X102833333Y-62525238D01*
X102833333Y-62525238D02*
X102785714Y-62572857D01*
X102785714Y-62572857D02*
X102738095Y-62668095D01*
X102738095Y-62668095D02*
X102738095Y-62715714D01*
X102738095Y-62715714D02*
X102785714Y-62810952D01*
X102785714Y-62810952D02*
X102833333Y-62858571D01*
X102833333Y-62858571D02*
X102928571Y-62906190D01*
X102928571Y-62906190D02*
X103119047Y-62906190D01*
X103119047Y-62906190D02*
X103214285Y-62953809D01*
X103214285Y-62953809D02*
X103261904Y-63001428D01*
X103261904Y-63001428D02*
X103309523Y-63096666D01*
X103309523Y-63096666D02*
X103309523Y-63287142D01*
X103309523Y-63287142D02*
X103261904Y-63382380D01*
X103261904Y-63382380D02*
X103214285Y-63430000D01*
X103214285Y-63430000D02*
X103119047Y-63477619D01*
X103119047Y-63477619D02*
X102928571Y-63477619D01*
X102928571Y-63477619D02*
X102833333Y-63430000D01*
X102833333Y-63430000D02*
X102785714Y-63382380D01*
X102785714Y-63382380D02*
X102738095Y-63287142D01*
X102738095Y-63287142D02*
X102738095Y-63096666D01*
X102738095Y-63096666D02*
X102785714Y-63001428D01*
X102785714Y-63001428D02*
X102833333Y-62953809D01*
X102833333Y-62953809D02*
X102928571Y-62906190D01*
X110057142Y-112945000D02*
X111200000Y-112945000D01*
X110628571Y-113516428D02*
X110628571Y-112373571D01*
X125057142Y-112845000D02*
X126200000Y-112845000D01*
X184157142Y-112845000D02*
X185300000Y-112845000D01*
X181242857Y-52245000D02*
X180100000Y-52245000D01*
X180671428Y-52816428D02*
X180671428Y-51673571D01*
X120238095Y-47957619D02*
X120809523Y-47957619D01*
X120523809Y-47957619D02*
X120523809Y-46957619D01*
X120523809Y-46957619D02*
X120619047Y-47100476D01*
X120619047Y-47100476D02*
X120714285Y-47195714D01*
X120714285Y-47195714D02*
X120809523Y-47243333D01*
X119809523Y-47576666D02*
X119047619Y-47576666D01*
X118000000Y-47862380D02*
X118047619Y-47910000D01*
X118047619Y-47910000D02*
X118190476Y-47957619D01*
X118190476Y-47957619D02*
X118285714Y-47957619D01*
X118285714Y-47957619D02*
X118428571Y-47910000D01*
X118428571Y-47910000D02*
X118523809Y-47814761D01*
X118523809Y-47814761D02*
X118571428Y-47719523D01*
X118571428Y-47719523D02*
X118619047Y-47529047D01*
X118619047Y-47529047D02*
X118619047Y-47386190D01*
X118619047Y-47386190D02*
X118571428Y-47195714D01*
X118571428Y-47195714D02*
X118523809Y-47100476D01*
X118523809Y-47100476D02*
X118428571Y-47005238D01*
X118428571Y-47005238D02*
X118285714Y-46957619D01*
X118285714Y-46957619D02*
X118190476Y-46957619D01*
X118190476Y-46957619D02*
X118047619Y-47005238D01*
X118047619Y-47005238D02*
X118000000Y-47052857D01*
X117571428Y-47957619D02*
X117571428Y-46957619D01*
X117142857Y-47957619D02*
X117142857Y-47433809D01*
X117142857Y-47433809D02*
X117190476Y-47338571D01*
X117190476Y-47338571D02*
X117285714Y-47290952D01*
X117285714Y-47290952D02*
X117428571Y-47290952D01*
X117428571Y-47290952D02*
X117523809Y-47338571D01*
X117523809Y-47338571D02*
X117571428Y-47386190D01*
X116238095Y-47290952D02*
X116238095Y-48100476D01*
X116238095Y-48100476D02*
X116285714Y-48195714D01*
X116285714Y-48195714D02*
X116333333Y-48243333D01*
X116333333Y-48243333D02*
X116428571Y-48290952D01*
X116428571Y-48290952D02*
X116571428Y-48290952D01*
X116571428Y-48290952D02*
X116666666Y-48243333D01*
X116238095Y-47910000D02*
X116333333Y-47957619D01*
X116333333Y-47957619D02*
X116523809Y-47957619D01*
X116523809Y-47957619D02*
X116619047Y-47910000D01*
X116619047Y-47910000D02*
X116666666Y-47862380D01*
X116666666Y-47862380D02*
X116714285Y-47767142D01*
X116714285Y-47767142D02*
X116714285Y-47481428D01*
X116714285Y-47481428D02*
X116666666Y-47386190D01*
X116666666Y-47386190D02*
X116619047Y-47338571D01*
X116619047Y-47338571D02*
X116523809Y-47290952D01*
X116523809Y-47290952D02*
X116333333Y-47290952D01*
X116333333Y-47290952D02*
X116238095Y-47338571D01*
X115047618Y-47910000D02*
X114904761Y-47957619D01*
X114904761Y-47957619D02*
X114666666Y-47957619D01*
X114666666Y-47957619D02*
X114571428Y-47910000D01*
X114571428Y-47910000D02*
X114523809Y-47862380D01*
X114523809Y-47862380D02*
X114476190Y-47767142D01*
X114476190Y-47767142D02*
X114476190Y-47671904D01*
X114476190Y-47671904D02*
X114523809Y-47576666D01*
X114523809Y-47576666D02*
X114571428Y-47529047D01*
X114571428Y-47529047D02*
X114666666Y-47481428D01*
X114666666Y-47481428D02*
X114857142Y-47433809D01*
X114857142Y-47433809D02*
X114952380Y-47386190D01*
X114952380Y-47386190D02*
X114999999Y-47338571D01*
X114999999Y-47338571D02*
X115047618Y-47243333D01*
X115047618Y-47243333D02*
X115047618Y-47148095D01*
X115047618Y-47148095D02*
X114999999Y-47052857D01*
X114999999Y-47052857D02*
X114952380Y-47005238D01*
X114952380Y-47005238D02*
X114857142Y-46957619D01*
X114857142Y-46957619D02*
X114619047Y-46957619D01*
X114619047Y-46957619D02*
X114476190Y-47005238D01*
X113619047Y-47957619D02*
X113619047Y-47433809D01*
X113619047Y-47433809D02*
X113666666Y-47338571D01*
X113666666Y-47338571D02*
X113761904Y-47290952D01*
X113761904Y-47290952D02*
X113952380Y-47290952D01*
X113952380Y-47290952D02*
X114047618Y-47338571D01*
X113619047Y-47910000D02*
X113714285Y-47957619D01*
X113714285Y-47957619D02*
X113952380Y-47957619D01*
X113952380Y-47957619D02*
X114047618Y-47910000D01*
X114047618Y-47910000D02*
X114095237Y-47814761D01*
X114095237Y-47814761D02*
X114095237Y-47719523D01*
X114095237Y-47719523D02*
X114047618Y-47624285D01*
X114047618Y-47624285D02*
X113952380Y-47576666D01*
X113952380Y-47576666D02*
X113714285Y-47576666D01*
X113714285Y-47576666D02*
X113619047Y-47529047D01*
X113285713Y-47290952D02*
X112904761Y-47290952D01*
X113142856Y-47957619D02*
X113142856Y-47100476D01*
X113142856Y-47100476D02*
X113095237Y-47005238D01*
X113095237Y-47005238D02*
X112999999Y-46957619D01*
X112999999Y-46957619D02*
X112904761Y-46957619D01*
X112714284Y-47290952D02*
X112333332Y-47290952D01*
X112571427Y-46957619D02*
X112571427Y-47814761D01*
X112571427Y-47814761D02*
X112523808Y-47910000D01*
X112523808Y-47910000D02*
X112428570Y-47957619D01*
X112428570Y-47957619D02*
X112333332Y-47957619D01*
X111619046Y-47910000D02*
X111714284Y-47957619D01*
X111714284Y-47957619D02*
X111904760Y-47957619D01*
X111904760Y-47957619D02*
X111999998Y-47910000D01*
X111999998Y-47910000D02*
X112047617Y-47814761D01*
X112047617Y-47814761D02*
X112047617Y-47433809D01*
X112047617Y-47433809D02*
X111999998Y-47338571D01*
X111999998Y-47338571D02*
X111904760Y-47290952D01*
X111904760Y-47290952D02*
X111714284Y-47290952D01*
X111714284Y-47290952D02*
X111619046Y-47338571D01*
X111619046Y-47338571D02*
X111571427Y-47433809D01*
X111571427Y-47433809D02*
X111571427Y-47529047D01*
X111571427Y-47529047D02*
X112047617Y-47624285D01*
X111238093Y-47290952D02*
X110999998Y-47957619D01*
X110761903Y-47290952D02*
X110999998Y-47957619D01*
X110999998Y-47957619D02*
X111095236Y-48195714D01*
X111095236Y-48195714D02*
X111142855Y-48243333D01*
X111142855Y-48243333D02*
X111238093Y-48290952D01*
X120809523Y-48672857D02*
X120761904Y-48625238D01*
X120761904Y-48625238D02*
X120666666Y-48577619D01*
X120666666Y-48577619D02*
X120428571Y-48577619D01*
X120428571Y-48577619D02*
X120333333Y-48625238D01*
X120333333Y-48625238D02*
X120285714Y-48672857D01*
X120285714Y-48672857D02*
X120238095Y-48768095D01*
X120238095Y-48768095D02*
X120238095Y-48863333D01*
X120238095Y-48863333D02*
X120285714Y-49006190D01*
X120285714Y-49006190D02*
X120857142Y-49577619D01*
X120857142Y-49577619D02*
X120238095Y-49577619D01*
X119809523Y-49196666D02*
X119047619Y-49196666D01*
X118571428Y-49577619D02*
X118571428Y-48577619D01*
X118095238Y-49577619D02*
X118095238Y-48577619D01*
X118095238Y-48577619D02*
X117761905Y-49291904D01*
X117761905Y-49291904D02*
X117428572Y-48577619D01*
X117428572Y-48577619D02*
X117428572Y-49577619D01*
X116952381Y-49577619D02*
X116952381Y-48577619D01*
X116952381Y-48577619D02*
X116714286Y-48577619D01*
X116714286Y-48577619D02*
X116571429Y-48625238D01*
X116571429Y-48625238D02*
X116476191Y-48720476D01*
X116476191Y-48720476D02*
X116428572Y-48815714D01*
X116428572Y-48815714D02*
X116380953Y-49006190D01*
X116380953Y-49006190D02*
X116380953Y-49149047D01*
X116380953Y-49149047D02*
X116428572Y-49339523D01*
X116428572Y-49339523D02*
X116476191Y-49434761D01*
X116476191Y-49434761D02*
X116571429Y-49530000D01*
X116571429Y-49530000D02*
X116714286Y-49577619D01*
X116714286Y-49577619D02*
X116952381Y-49577619D01*
X115190476Y-49053809D02*
X114857143Y-49053809D01*
X114714286Y-49577619D02*
X115190476Y-49577619D01*
X115190476Y-49577619D02*
X115190476Y-48577619D01*
X115190476Y-48577619D02*
X114714286Y-48577619D01*
X114285714Y-49577619D02*
X114285714Y-48910952D01*
X114285714Y-49101428D02*
X114238095Y-49006190D01*
X114238095Y-49006190D02*
X114190476Y-48958571D01*
X114190476Y-48958571D02*
X114095238Y-48910952D01*
X114095238Y-48910952D02*
X114000000Y-48910952D01*
X113666666Y-49577619D02*
X113666666Y-48910952D01*
X113666666Y-49101428D02*
X113619047Y-49006190D01*
X113619047Y-49006190D02*
X113571428Y-48958571D01*
X113571428Y-48958571D02*
X113476190Y-48910952D01*
X113476190Y-48910952D02*
X113380952Y-48910952D01*
X112904761Y-49577619D02*
X112999999Y-49530000D01*
X112999999Y-49530000D02*
X113047618Y-49482380D01*
X113047618Y-49482380D02*
X113095237Y-49387142D01*
X113095237Y-49387142D02*
X113095237Y-49101428D01*
X113095237Y-49101428D02*
X113047618Y-49006190D01*
X113047618Y-49006190D02*
X112999999Y-48958571D01*
X112999999Y-48958571D02*
X112904761Y-48910952D01*
X112904761Y-48910952D02*
X112761904Y-48910952D01*
X112761904Y-48910952D02*
X112666666Y-48958571D01*
X112666666Y-48958571D02*
X112619047Y-49006190D01*
X112619047Y-49006190D02*
X112571428Y-49101428D01*
X112571428Y-49101428D02*
X112571428Y-49387142D01*
X112571428Y-49387142D02*
X112619047Y-49482380D01*
X112619047Y-49482380D02*
X112666666Y-49530000D01*
X112666666Y-49530000D02*
X112761904Y-49577619D01*
X112761904Y-49577619D02*
X112904761Y-49577619D01*
X112142856Y-49577619D02*
X112142856Y-48910952D01*
X112142856Y-49101428D02*
X112095237Y-49006190D01*
X112095237Y-49006190D02*
X112047618Y-48958571D01*
X112047618Y-48958571D02*
X111952380Y-48910952D01*
X111952380Y-48910952D02*
X111857142Y-48910952D01*
X120857142Y-50197619D02*
X120238095Y-50197619D01*
X120238095Y-50197619D02*
X120571428Y-50578571D01*
X120571428Y-50578571D02*
X120428571Y-50578571D01*
X120428571Y-50578571D02*
X120333333Y-50626190D01*
X120333333Y-50626190D02*
X120285714Y-50673809D01*
X120285714Y-50673809D02*
X120238095Y-50769047D01*
X120238095Y-50769047D02*
X120238095Y-51007142D01*
X120238095Y-51007142D02*
X120285714Y-51102380D01*
X120285714Y-51102380D02*
X120333333Y-51150000D01*
X120333333Y-51150000D02*
X120428571Y-51197619D01*
X120428571Y-51197619D02*
X120714285Y-51197619D01*
X120714285Y-51197619D02*
X120809523Y-51150000D01*
X120809523Y-51150000D02*
X120857142Y-51102380D01*
X119809523Y-50816666D02*
X119047619Y-50816666D01*
X118571428Y-51197619D02*
X118571428Y-50197619D01*
X118095238Y-51197619D02*
X118095238Y-50197619D01*
X118095238Y-50197619D02*
X117761905Y-50911904D01*
X117761905Y-50911904D02*
X117428572Y-50197619D01*
X117428572Y-50197619D02*
X117428572Y-51197619D01*
X116952381Y-51197619D02*
X116952381Y-50197619D01*
X116952381Y-50197619D02*
X116714286Y-50197619D01*
X116714286Y-50197619D02*
X116571429Y-50245238D01*
X116571429Y-50245238D02*
X116476191Y-50340476D01*
X116476191Y-50340476D02*
X116428572Y-50435714D01*
X116428572Y-50435714D02*
X116380953Y-50626190D01*
X116380953Y-50626190D02*
X116380953Y-50769047D01*
X116380953Y-50769047D02*
X116428572Y-50959523D01*
X116428572Y-50959523D02*
X116476191Y-51054761D01*
X116476191Y-51054761D02*
X116571429Y-51150000D01*
X116571429Y-51150000D02*
X116714286Y-51197619D01*
X116714286Y-51197619D02*
X116952381Y-51197619D01*
X114666667Y-50245238D02*
X114761905Y-50197619D01*
X114761905Y-50197619D02*
X114904762Y-50197619D01*
X114904762Y-50197619D02*
X115047619Y-50245238D01*
X115047619Y-50245238D02*
X115142857Y-50340476D01*
X115142857Y-50340476D02*
X115190476Y-50435714D01*
X115190476Y-50435714D02*
X115238095Y-50626190D01*
X115238095Y-50626190D02*
X115238095Y-50769047D01*
X115238095Y-50769047D02*
X115190476Y-50959523D01*
X115190476Y-50959523D02*
X115142857Y-51054761D01*
X115142857Y-51054761D02*
X115047619Y-51150000D01*
X115047619Y-51150000D02*
X114904762Y-51197619D01*
X114904762Y-51197619D02*
X114809524Y-51197619D01*
X114809524Y-51197619D02*
X114666667Y-51150000D01*
X114666667Y-51150000D02*
X114619048Y-51102380D01*
X114619048Y-51102380D02*
X114619048Y-50769047D01*
X114619048Y-50769047D02*
X114809524Y-50769047D01*
X114190476Y-51197619D02*
X114190476Y-50197619D01*
X114190476Y-50197619D02*
X113619048Y-51197619D01*
X113619048Y-51197619D02*
X113619048Y-50197619D01*
X113142857Y-51197619D02*
X113142857Y-50197619D01*
X113142857Y-50197619D02*
X112904762Y-50197619D01*
X112904762Y-50197619D02*
X112761905Y-50245238D01*
X112761905Y-50245238D02*
X112666667Y-50340476D01*
X112666667Y-50340476D02*
X112619048Y-50435714D01*
X112619048Y-50435714D02*
X112571429Y-50626190D01*
X112571429Y-50626190D02*
X112571429Y-50769047D01*
X112571429Y-50769047D02*
X112619048Y-50959523D01*
X112619048Y-50959523D02*
X112666667Y-51054761D01*
X112666667Y-51054761D02*
X112761905Y-51150000D01*
X112761905Y-51150000D02*
X112904762Y-51197619D01*
X112904762Y-51197619D02*
X113142857Y-51197619D01*
X120333333Y-52150952D02*
X120333333Y-52817619D01*
X120571428Y-51770000D02*
X120809523Y-52484285D01*
X120809523Y-52484285D02*
X120190476Y-52484285D01*
X119809523Y-52436666D02*
X119047619Y-52436666D01*
X118619047Y-52531904D02*
X118142857Y-52531904D01*
X118714285Y-52817619D02*
X118380952Y-51817619D01*
X118380952Y-51817619D02*
X118047619Y-52817619D01*
X117714285Y-52817619D02*
X117714285Y-51817619D01*
X117714285Y-51817619D02*
X117380952Y-52531904D01*
X117380952Y-52531904D02*
X117047619Y-51817619D01*
X117047619Y-51817619D02*
X117047619Y-52817619D01*
X116619047Y-52770000D02*
X116476190Y-52817619D01*
X116476190Y-52817619D02*
X116238095Y-52817619D01*
X116238095Y-52817619D02*
X116142857Y-52770000D01*
X116142857Y-52770000D02*
X116095238Y-52722380D01*
X116095238Y-52722380D02*
X116047619Y-52627142D01*
X116047619Y-52627142D02*
X116047619Y-52531904D01*
X116047619Y-52531904D02*
X116095238Y-52436666D01*
X116095238Y-52436666D02*
X116142857Y-52389047D01*
X116142857Y-52389047D02*
X116238095Y-52341428D01*
X116238095Y-52341428D02*
X116428571Y-52293809D01*
X116428571Y-52293809D02*
X116523809Y-52246190D01*
X116523809Y-52246190D02*
X116571428Y-52198571D01*
X116571428Y-52198571D02*
X116619047Y-52103333D01*
X116619047Y-52103333D02*
X116619047Y-52008095D01*
X116619047Y-52008095D02*
X116571428Y-51912857D01*
X116571428Y-51912857D02*
X116523809Y-51865238D01*
X116523809Y-51865238D02*
X116428571Y-51817619D01*
X116428571Y-51817619D02*
X116190476Y-51817619D01*
X116190476Y-51817619D02*
X116047619Y-51865238D01*
X114857142Y-52293809D02*
X114523809Y-52293809D01*
X114380952Y-52817619D02*
X114857142Y-52817619D01*
X114857142Y-52817619D02*
X114857142Y-51817619D01*
X114857142Y-51817619D02*
X114380952Y-51817619D01*
X113952380Y-52817619D02*
X113952380Y-52150952D01*
X113952380Y-52341428D02*
X113904761Y-52246190D01*
X113904761Y-52246190D02*
X113857142Y-52198571D01*
X113857142Y-52198571D02*
X113761904Y-52150952D01*
X113761904Y-52150952D02*
X113666666Y-52150952D01*
X113333332Y-52817619D02*
X113333332Y-52150952D01*
X113333332Y-52341428D02*
X113285713Y-52246190D01*
X113285713Y-52246190D02*
X113238094Y-52198571D01*
X113238094Y-52198571D02*
X113142856Y-52150952D01*
X113142856Y-52150952D02*
X113047618Y-52150952D01*
X112571427Y-52817619D02*
X112666665Y-52770000D01*
X112666665Y-52770000D02*
X112714284Y-52722380D01*
X112714284Y-52722380D02*
X112761903Y-52627142D01*
X112761903Y-52627142D02*
X112761903Y-52341428D01*
X112761903Y-52341428D02*
X112714284Y-52246190D01*
X112714284Y-52246190D02*
X112666665Y-52198571D01*
X112666665Y-52198571D02*
X112571427Y-52150952D01*
X112571427Y-52150952D02*
X112428570Y-52150952D01*
X112428570Y-52150952D02*
X112333332Y-52198571D01*
X112333332Y-52198571D02*
X112285713Y-52246190D01*
X112285713Y-52246190D02*
X112238094Y-52341428D01*
X112238094Y-52341428D02*
X112238094Y-52627142D01*
X112238094Y-52627142D02*
X112285713Y-52722380D01*
X112285713Y-52722380D02*
X112333332Y-52770000D01*
X112333332Y-52770000D02*
X112428570Y-52817619D01*
X112428570Y-52817619D02*
X112571427Y-52817619D01*
X111809522Y-52817619D02*
X111809522Y-52150952D01*
X111809522Y-52341428D02*
X111761903Y-52246190D01*
X111761903Y-52246190D02*
X111714284Y-52198571D01*
X111714284Y-52198571D02*
X111619046Y-52150952D01*
X111619046Y-52150952D02*
X111523808Y-52150952D01*
X120285714Y-53437619D02*
X120761904Y-53437619D01*
X120761904Y-53437619D02*
X120809523Y-53913809D01*
X120809523Y-53913809D02*
X120761904Y-53866190D01*
X120761904Y-53866190D02*
X120666666Y-53818571D01*
X120666666Y-53818571D02*
X120428571Y-53818571D01*
X120428571Y-53818571D02*
X120333333Y-53866190D01*
X120333333Y-53866190D02*
X120285714Y-53913809D01*
X120285714Y-53913809D02*
X120238095Y-54009047D01*
X120238095Y-54009047D02*
X120238095Y-54247142D01*
X120238095Y-54247142D02*
X120285714Y-54342380D01*
X120285714Y-54342380D02*
X120333333Y-54390000D01*
X120333333Y-54390000D02*
X120428571Y-54437619D01*
X120428571Y-54437619D02*
X120666666Y-54437619D01*
X120666666Y-54437619D02*
X120761904Y-54390000D01*
X120761904Y-54390000D02*
X120809523Y-54342380D01*
X119809523Y-54056666D02*
X119047619Y-54056666D01*
X118619047Y-54151904D02*
X118142857Y-54151904D01*
X118714285Y-54437619D02*
X118380952Y-53437619D01*
X118380952Y-53437619D02*
X118047619Y-54437619D01*
X117714285Y-54437619D02*
X117714285Y-53437619D01*
X117714285Y-53437619D02*
X117380952Y-54151904D01*
X117380952Y-54151904D02*
X117047619Y-53437619D01*
X117047619Y-53437619D02*
X117047619Y-54437619D01*
X116619047Y-54390000D02*
X116476190Y-54437619D01*
X116476190Y-54437619D02*
X116238095Y-54437619D01*
X116238095Y-54437619D02*
X116142857Y-54390000D01*
X116142857Y-54390000D02*
X116095238Y-54342380D01*
X116095238Y-54342380D02*
X116047619Y-54247142D01*
X116047619Y-54247142D02*
X116047619Y-54151904D01*
X116047619Y-54151904D02*
X116095238Y-54056666D01*
X116095238Y-54056666D02*
X116142857Y-54009047D01*
X116142857Y-54009047D02*
X116238095Y-53961428D01*
X116238095Y-53961428D02*
X116428571Y-53913809D01*
X116428571Y-53913809D02*
X116523809Y-53866190D01*
X116523809Y-53866190D02*
X116571428Y-53818571D01*
X116571428Y-53818571D02*
X116619047Y-53723333D01*
X116619047Y-53723333D02*
X116619047Y-53628095D01*
X116619047Y-53628095D02*
X116571428Y-53532857D01*
X116571428Y-53532857D02*
X116523809Y-53485238D01*
X116523809Y-53485238D02*
X116428571Y-53437619D01*
X116428571Y-53437619D02*
X116190476Y-53437619D01*
X116190476Y-53437619D02*
X116047619Y-53485238D01*
X114333333Y-53485238D02*
X114428571Y-53437619D01*
X114428571Y-53437619D02*
X114571428Y-53437619D01*
X114571428Y-53437619D02*
X114714285Y-53485238D01*
X114714285Y-53485238D02*
X114809523Y-53580476D01*
X114809523Y-53580476D02*
X114857142Y-53675714D01*
X114857142Y-53675714D02*
X114904761Y-53866190D01*
X114904761Y-53866190D02*
X114904761Y-54009047D01*
X114904761Y-54009047D02*
X114857142Y-54199523D01*
X114857142Y-54199523D02*
X114809523Y-54294761D01*
X114809523Y-54294761D02*
X114714285Y-54390000D01*
X114714285Y-54390000D02*
X114571428Y-54437619D01*
X114571428Y-54437619D02*
X114476190Y-54437619D01*
X114476190Y-54437619D02*
X114333333Y-54390000D01*
X114333333Y-54390000D02*
X114285714Y-54342380D01*
X114285714Y-54342380D02*
X114285714Y-54009047D01*
X114285714Y-54009047D02*
X114476190Y-54009047D01*
X113857142Y-54437619D02*
X113857142Y-53437619D01*
X113857142Y-53437619D02*
X113285714Y-54437619D01*
X113285714Y-54437619D02*
X113285714Y-53437619D01*
X112809523Y-54437619D02*
X112809523Y-53437619D01*
X112809523Y-53437619D02*
X112571428Y-53437619D01*
X112571428Y-53437619D02*
X112428571Y-53485238D01*
X112428571Y-53485238D02*
X112333333Y-53580476D01*
X112333333Y-53580476D02*
X112285714Y-53675714D01*
X112285714Y-53675714D02*
X112238095Y-53866190D01*
X112238095Y-53866190D02*
X112238095Y-54009047D01*
X112238095Y-54009047D02*
X112285714Y-54199523D01*
X112285714Y-54199523D02*
X112333333Y-54294761D01*
X112333333Y-54294761D02*
X112428571Y-54390000D01*
X112428571Y-54390000D02*
X112571428Y-54437619D01*
X112571428Y-54437619D02*
X112809523Y-54437619D01*
X120333333Y-55057619D02*
X120523809Y-55057619D01*
X120523809Y-55057619D02*
X120619047Y-55105238D01*
X120619047Y-55105238D02*
X120666666Y-55152857D01*
X120666666Y-55152857D02*
X120761904Y-55295714D01*
X120761904Y-55295714D02*
X120809523Y-55486190D01*
X120809523Y-55486190D02*
X120809523Y-55867142D01*
X120809523Y-55867142D02*
X120761904Y-55962380D01*
X120761904Y-55962380D02*
X120714285Y-56010000D01*
X120714285Y-56010000D02*
X120619047Y-56057619D01*
X120619047Y-56057619D02*
X120428571Y-56057619D01*
X120428571Y-56057619D02*
X120333333Y-56010000D01*
X120333333Y-56010000D02*
X120285714Y-55962380D01*
X120285714Y-55962380D02*
X120238095Y-55867142D01*
X120238095Y-55867142D02*
X120238095Y-55629047D01*
X120238095Y-55629047D02*
X120285714Y-55533809D01*
X120285714Y-55533809D02*
X120333333Y-55486190D01*
X120333333Y-55486190D02*
X120428571Y-55438571D01*
X120428571Y-55438571D02*
X120619047Y-55438571D01*
X120619047Y-55438571D02*
X120714285Y-55486190D01*
X120714285Y-55486190D02*
X120761904Y-55533809D01*
X120761904Y-55533809D02*
X120809523Y-55629047D01*
X119809523Y-55676666D02*
X119047619Y-55676666D01*
X118047619Y-55105238D02*
X118142857Y-55057619D01*
X118142857Y-55057619D02*
X118285714Y-55057619D01*
X118285714Y-55057619D02*
X118428571Y-55105238D01*
X118428571Y-55105238D02*
X118523809Y-55200476D01*
X118523809Y-55200476D02*
X118571428Y-55295714D01*
X118571428Y-55295714D02*
X118619047Y-55486190D01*
X118619047Y-55486190D02*
X118619047Y-55629047D01*
X118619047Y-55629047D02*
X118571428Y-55819523D01*
X118571428Y-55819523D02*
X118523809Y-55914761D01*
X118523809Y-55914761D02*
X118428571Y-56010000D01*
X118428571Y-56010000D02*
X118285714Y-56057619D01*
X118285714Y-56057619D02*
X118190476Y-56057619D01*
X118190476Y-56057619D02*
X118047619Y-56010000D01*
X118047619Y-56010000D02*
X118000000Y-55962380D01*
X118000000Y-55962380D02*
X118000000Y-55629047D01*
X118000000Y-55629047D02*
X118190476Y-55629047D01*
X117095238Y-56057619D02*
X117571428Y-56057619D01*
X117571428Y-56057619D02*
X117571428Y-55057619D01*
X116904761Y-55057619D02*
X116571428Y-56057619D01*
X116571428Y-56057619D02*
X116238095Y-55057619D01*
X115142856Y-55676666D02*
X114380952Y-55676666D01*
X114761904Y-56057619D02*
X114761904Y-55295714D01*
X120857142Y-56677619D02*
X120190476Y-56677619D01*
X120190476Y-56677619D02*
X120619047Y-57677619D01*
X119809523Y-57296666D02*
X119047619Y-57296666D01*
X118047619Y-56725238D02*
X118142857Y-56677619D01*
X118142857Y-56677619D02*
X118285714Y-56677619D01*
X118285714Y-56677619D02*
X118428571Y-56725238D01*
X118428571Y-56725238D02*
X118523809Y-56820476D01*
X118523809Y-56820476D02*
X118571428Y-56915714D01*
X118571428Y-56915714D02*
X118619047Y-57106190D01*
X118619047Y-57106190D02*
X118619047Y-57249047D01*
X118619047Y-57249047D02*
X118571428Y-57439523D01*
X118571428Y-57439523D02*
X118523809Y-57534761D01*
X118523809Y-57534761D02*
X118428571Y-57630000D01*
X118428571Y-57630000D02*
X118285714Y-57677619D01*
X118285714Y-57677619D02*
X118190476Y-57677619D01*
X118190476Y-57677619D02*
X118047619Y-57630000D01*
X118047619Y-57630000D02*
X118000000Y-57582380D01*
X118000000Y-57582380D02*
X118000000Y-57249047D01*
X118000000Y-57249047D02*
X118190476Y-57249047D01*
X117095238Y-57677619D02*
X117571428Y-57677619D01*
X117571428Y-57677619D02*
X117571428Y-56677619D01*
X116904761Y-56677619D02*
X116571428Y-57677619D01*
X116571428Y-57677619D02*
X116238095Y-56677619D01*
X115142856Y-57296666D02*
X114380952Y-57296666D01*
%TO.C,G\u002A\u002A\u002A*%
G36*
X144439580Y-97231085D02*
G01*
X144493264Y-97312521D01*
X144558949Y-97414697D01*
X144603895Y-97487871D01*
X144620555Y-97519995D01*
X144616554Y-97521783D01*
X144565493Y-97525962D01*
X144462998Y-97528819D01*
X144318370Y-97530239D01*
X144140907Y-97530110D01*
X143939911Y-97528316D01*
X143259268Y-97519672D01*
X143250014Y-97239407D01*
X143240759Y-96959142D01*
X144258606Y-96959142D01*
X144439580Y-97231085D01*
G37*
G36*
X125626607Y-83506431D02*
G01*
X127932787Y-83506431D01*
X127932787Y-81360403D01*
X128605422Y-81360403D01*
X128605422Y-83837410D01*
X128605410Y-83920327D01*
X128605031Y-84309565D01*
X128604149Y-84679136D01*
X128602807Y-85024107D01*
X128601047Y-85339546D01*
X128598911Y-85620520D01*
X128596442Y-85862095D01*
X128593680Y-86059341D01*
X128590670Y-86207324D01*
X128587452Y-86301111D01*
X128584069Y-86335771D01*
X128566489Y-86341551D01*
X128495179Y-86349571D01*
X128383954Y-86355078D01*
X128247751Y-86357125D01*
X127932787Y-86357125D01*
X127932787Y-84115006D01*
X125626607Y-84115006D01*
X125626607Y-86357125D01*
X124953972Y-86357125D01*
X124953972Y-81360403D01*
X125626607Y-81360403D01*
X125626607Y-83506431D01*
G37*
G36*
X150133287Y-94564381D02*
G01*
X151033661Y-94572888D01*
X151494470Y-95838083D01*
X151534365Y-95947612D01*
X151635034Y-96223921D01*
X151730664Y-96486309D01*
X151818442Y-96727061D01*
X151895555Y-96938467D01*
X151959191Y-97112814D01*
X152006536Y-97242390D01*
X152034778Y-97319483D01*
X152114278Y-97535687D01*
X150300392Y-97535687D01*
X149766652Y-96070018D01*
X149756334Y-96041680D01*
X149650913Y-95751617D01*
X149552693Y-95480433D01*
X149463786Y-95234028D01*
X149386306Y-95018299D01*
X149322366Y-94839145D01*
X149274078Y-94702463D01*
X149243556Y-94614153D01*
X149232913Y-94580112D01*
X149233733Y-94579082D01*
X149273946Y-94573281D01*
X149368826Y-94568631D01*
X149510287Y-94565275D01*
X149690242Y-94563354D01*
X149900604Y-94563009D01*
X150133287Y-94564381D01*
G37*
G36*
X129893999Y-87036329D02*
G01*
X130070605Y-87038625D01*
X130209979Y-87042664D01*
X130303182Y-87048252D01*
X130341273Y-87055195D01*
X130341517Y-87055474D01*
X130350932Y-87075286D01*
X130371124Y-87125165D01*
X130402743Y-87206885D01*
X130446440Y-87322220D01*
X130502865Y-87472943D01*
X130572670Y-87660829D01*
X130656505Y-87887652D01*
X130755020Y-88155185D01*
X130868867Y-88465202D01*
X130998696Y-88819477D01*
X131145158Y-89219784D01*
X131308904Y-89667897D01*
X131490584Y-90165590D01*
X131690850Y-90714636D01*
X131910351Y-91316810D01*
X132149739Y-91973886D01*
X132409664Y-92687636D01*
X132690778Y-93459836D01*
X132798621Y-93756116D01*
X131147282Y-93756116D01*
X129927189Y-90400946D01*
X128707096Y-87045775D01*
X129510905Y-87037205D01*
X129689099Y-87035970D01*
X129893999Y-87036329D01*
G37*
G36*
X143076359Y-95123254D02*
G01*
X143118240Y-95181850D01*
X143184114Y-95278357D01*
X143268085Y-95403752D01*
X143364258Y-95549013D01*
X143466736Y-95705115D01*
X143569624Y-95863038D01*
X143667026Y-96013757D01*
X143753047Y-96148250D01*
X143821789Y-96257495D01*
X143867359Y-96332469D01*
X143883858Y-96364148D01*
X143861580Y-96370580D01*
X143786978Y-96376807D01*
X143672321Y-96381037D01*
X143530520Y-96382597D01*
X143392181Y-96381117D01*
X143266135Y-96374484D01*
X143192355Y-96361870D01*
X143164304Y-96342560D01*
X143161821Y-96330616D01*
X143153349Y-96263961D01*
X143141986Y-96152940D01*
X143128707Y-96009571D01*
X143114489Y-95845871D01*
X143100309Y-95673857D01*
X143087142Y-95505545D01*
X143075965Y-95352954D01*
X143067755Y-95228101D01*
X143063487Y-95143002D01*
X143064138Y-95109674D01*
X143076359Y-95123254D01*
G37*
G36*
X142359659Y-94917213D02*
G01*
X142363731Y-94996431D01*
X142371655Y-95164978D01*
X142380896Y-95374651D01*
X142390858Y-95611441D01*
X142400941Y-95861340D01*
X142410549Y-96110340D01*
X142416977Y-96277642D01*
X142426773Y-96520856D01*
X142436566Y-96751714D01*
X142445787Y-96957299D01*
X142453870Y-97124696D01*
X142460245Y-97240989D01*
X142478624Y-97538850D01*
X142277020Y-97529261D01*
X142075417Y-97519672D01*
X141538910Y-96046280D01*
X141525325Y-96008969D01*
X141419903Y-95719299D01*
X141321698Y-95449217D01*
X141232811Y-95204524D01*
X141155347Y-94991019D01*
X141091407Y-94814503D01*
X141043096Y-94680774D01*
X141012515Y-94595633D01*
X141001769Y-94564880D01*
X141004788Y-94564112D01*
X141053159Y-94561805D01*
X141153294Y-94559815D01*
X141295826Y-94558255D01*
X141471388Y-94557237D01*
X141670610Y-94556872D01*
X142340086Y-94556872D01*
X142359659Y-94917213D01*
G37*
G36*
X137798108Y-81472728D02*
G01*
X137793922Y-81502199D01*
X137777017Y-81554093D01*
X137745084Y-81628466D01*
X137695938Y-81729407D01*
X137627396Y-81861008D01*
X137537273Y-82027359D01*
X137423383Y-82232550D01*
X137283544Y-82480671D01*
X137115569Y-82775814D01*
X136917276Y-83122068D01*
X136036444Y-84656763D01*
X136036444Y-86357125D01*
X135363808Y-86357125D01*
X135363808Y-84624075D01*
X134482976Y-83088882D01*
X134468697Y-83063990D01*
X134256612Y-82692835D01*
X134076374Y-82374411D01*
X133926885Y-82106679D01*
X133807044Y-81887600D01*
X133715749Y-81715136D01*
X133651901Y-81587248D01*
X133614399Y-81501898D01*
X133602143Y-81457046D01*
X133602143Y-81360403D01*
X133914439Y-81360556D01*
X134226734Y-81360708D01*
X134958417Y-82673797D01*
X135100019Y-82927192D01*
X135239565Y-83175406D01*
X135366931Y-83400431D01*
X135478976Y-83596790D01*
X135572559Y-83759009D01*
X135644540Y-83881611D01*
X135691777Y-83959119D01*
X135711128Y-83986057D01*
X135728070Y-83962584D01*
X135773347Y-83888298D01*
X135843570Y-83768564D01*
X135935586Y-83608887D01*
X136046244Y-83414769D01*
X136172391Y-83191717D01*
X136310876Y-82945234D01*
X136458546Y-82680824D01*
X137184936Y-81376418D01*
X137798108Y-81358084D01*
X137798108Y-81472728D01*
G37*
G36*
X111569754Y-90445540D02*
G01*
X111586293Y-90493696D01*
X111600143Y-90589464D01*
X111613066Y-90741066D01*
X111614881Y-90765551D01*
X111631839Y-90930977D01*
X111652510Y-91035208D01*
X111676633Y-91076852D01*
X111818878Y-91111833D01*
X112013831Y-91116638D01*
X112209502Y-91080506D01*
X112326215Y-91049829D01*
X112409605Y-91042075D01*
X112470583Y-91057923D01*
X112486541Y-91064751D01*
X112575018Y-91090204D01*
X112679629Y-91108283D01*
X112807879Y-91136080D01*
X112885580Y-91188178D01*
X112910592Y-91266641D01*
X112909440Y-91299259D01*
X112895389Y-91313151D01*
X112852017Y-91278735D01*
X112814949Y-91254635D01*
X112707753Y-91229130D01*
X112575470Y-91235813D01*
X112438569Y-91274875D01*
X112422074Y-91281304D01*
X112322657Y-91305822D01*
X112239408Y-91306669D01*
X112216435Y-91303404D01*
X112121364Y-91303775D01*
X112013745Y-91317573D01*
X111876231Y-91333973D01*
X111642813Y-91326277D01*
X111408724Y-91281992D01*
X111202334Y-91205055D01*
X111130335Y-91168585D01*
X111059103Y-91131662D01*
X111028095Y-91114385D01*
X111027514Y-91111620D01*
X111038479Y-91068260D01*
X111066517Y-90985378D01*
X111105570Y-90878811D01*
X111149579Y-90764395D01*
X111192485Y-90657967D01*
X111228229Y-90575362D01*
X111250753Y-90532417D01*
X111254170Y-90528649D01*
X111308986Y-90498350D01*
X111392571Y-90474486D01*
X111402133Y-90472664D01*
X111489195Y-90453696D01*
X111547979Y-90437060D01*
X111548767Y-90436774D01*
X111569754Y-90445540D01*
G37*
G36*
X110847513Y-86389152D02*
G01*
X111033620Y-86419397D01*
X111176917Y-86476951D01*
X111286875Y-86567301D01*
X111372966Y-86695933D01*
X111444663Y-86868333D01*
X111446772Y-86874474D01*
X111476945Y-86972646D01*
X111497070Y-87068802D01*
X111508966Y-87179446D01*
X111514449Y-87321082D01*
X111515338Y-87510214D01*
X111515276Y-87522785D01*
X111511371Y-87701591D01*
X111502642Y-87873150D01*
X111490325Y-88018528D01*
X111475653Y-88118789D01*
X111467482Y-88158190D01*
X111455325Y-88244157D01*
X111458160Y-88323411D01*
X111478148Y-88418305D01*
X111517451Y-88551198D01*
X111530281Y-88592664D01*
X111564512Y-88706854D01*
X111588380Y-88791904D01*
X111597347Y-88831865D01*
X111595742Y-88834003D01*
X111558097Y-88825972D01*
X111480672Y-88794643D01*
X111377064Y-88745356D01*
X111327160Y-88719161D01*
X111258214Y-88677690D01*
X111187962Y-88626824D01*
X111109471Y-88560202D01*
X111015808Y-88471460D01*
X110900038Y-88354237D01*
X110755228Y-88202170D01*
X110574444Y-88008897D01*
X110425427Y-87848649D01*
X110283288Y-87694534D01*
X110174890Y-87574062D01*
X110094806Y-87480061D01*
X110037607Y-87405358D01*
X109997868Y-87342781D01*
X109970159Y-87285157D01*
X109949054Y-87225312D01*
X109929124Y-87156076D01*
X109891833Y-87034918D01*
X109832642Y-86868676D01*
X109773125Y-86723645D01*
X109680114Y-86518512D01*
X109797938Y-86488312D01*
X110054444Y-86430708D01*
X110324198Y-86393058D01*
X110602864Y-86380750D01*
X110609122Y-86380730D01*
X110847513Y-86389152D01*
G37*
G36*
X116049558Y-83320656D02*
G01*
X116049852Y-83624402D01*
X116050996Y-83974818D01*
X116052943Y-84291995D01*
X116055629Y-84571530D01*
X116058989Y-84809021D01*
X116062958Y-85000064D01*
X116067472Y-85140257D01*
X116072467Y-85225196D01*
X116077877Y-85250479D01*
X116078620Y-85249618D01*
X116104106Y-85209329D01*
X116154320Y-85122523D01*
X116224059Y-84998454D01*
X116308118Y-84846374D01*
X116401291Y-84675536D01*
X116465609Y-84558372D01*
X116566791Y-84377050D01*
X116691439Y-84155916D01*
X116834791Y-83903331D01*
X116992087Y-83627657D01*
X117158567Y-83337255D01*
X117329469Y-83040486D01*
X117500034Y-82745712D01*
X118303682Y-81360403D01*
X119060403Y-81360403D01*
X119060403Y-86357125D01*
X118383386Y-86357125D01*
X118393584Y-84387252D01*
X118393787Y-84347405D01*
X118395213Y-84000663D01*
X118395970Y-83674236D01*
X118396083Y-83373593D01*
X118395576Y-83104201D01*
X118394475Y-82871528D01*
X118392804Y-82681043D01*
X118390589Y-82538213D01*
X118387854Y-82448506D01*
X118384624Y-82417390D01*
X118376655Y-82425482D01*
X118342146Y-82479011D01*
X118286683Y-82574361D01*
X118215853Y-82701800D01*
X118135247Y-82851596D01*
X118130060Y-82861370D01*
X118056642Y-82998115D01*
X117972018Y-83152783D01*
X117873829Y-83329519D01*
X117759713Y-83532469D01*
X117627309Y-83765777D01*
X117474256Y-84033591D01*
X117298195Y-84340054D01*
X117096763Y-84689314D01*
X116867601Y-85085514D01*
X116608346Y-85532801D01*
X116129634Y-86358037D01*
X115392938Y-86341109D01*
X115376530Y-81360403D01*
X116049558Y-81360403D01*
X116049558Y-83320656D01*
G37*
G36*
X106993001Y-90021654D02*
G01*
X107042757Y-90030545D01*
X107156793Y-90047255D01*
X107279757Y-90062093D01*
X107462414Y-90081444D01*
X107222536Y-90394390D01*
X107221244Y-90396074D01*
X107125068Y-90519892D01*
X107039883Y-90626597D01*
X106974892Y-90704852D01*
X106939299Y-90743320D01*
X106931897Y-90748025D01*
X106868058Y-90769137D01*
X106763528Y-90790752D01*
X106636834Y-90808855D01*
X106607630Y-90812351D01*
X106479859Y-90831428D01*
X106375312Y-90852764D01*
X106314278Y-90872364D01*
X106279370Y-90904717D01*
X106217128Y-90982760D01*
X106139990Y-91092504D01*
X106057242Y-91221342D01*
X105984702Y-91334159D01*
X105904381Y-91447587D01*
X105836842Y-91531000D01*
X105791726Y-91571675D01*
X105735480Y-91593521D01*
X105653734Y-91594521D01*
X105571824Y-91548280D01*
X105476063Y-91449498D01*
X105408562Y-91366289D01*
X105376562Y-91309653D01*
X105373538Y-91258968D01*
X105392660Y-91193255D01*
X105393221Y-91191653D01*
X105437928Y-91108035D01*
X105495586Y-91081589D01*
X105532410Y-91067871D01*
X105575997Y-91019629D01*
X105631155Y-90928481D01*
X105703783Y-90786056D01*
X105744065Y-90705486D01*
X105811036Y-90585283D01*
X105860734Y-90519272D01*
X105895964Y-90503325D01*
X105942341Y-90517784D01*
X106032344Y-90548133D01*
X106142297Y-90586574D01*
X106251643Y-90619893D01*
X106408831Y-90638607D01*
X106543189Y-90608844D01*
X106668306Y-90529117D01*
X106707674Y-90491503D01*
X106798321Y-90367507D01*
X106863014Y-90225589D01*
X106888199Y-90092654D01*
X106893726Y-90031655D01*
X106922144Y-90011960D01*
X106993001Y-90021654D01*
G37*
G36*
X111444429Y-81937330D02*
G01*
X111694981Y-81988791D01*
X112122327Y-82076489D01*
X112529510Y-82159956D01*
X112912270Y-82238324D01*
X113266349Y-82310724D01*
X113587491Y-82376288D01*
X113871435Y-82434149D01*
X114113925Y-82483438D01*
X114310702Y-82523286D01*
X114457508Y-82552826D01*
X114550084Y-82571190D01*
X114584174Y-82577508D01*
X114585698Y-82579365D01*
X114591708Y-82624366D01*
X114597091Y-82723514D01*
X114601638Y-82868825D01*
X114605143Y-83052318D01*
X114607399Y-83266008D01*
X114608196Y-83501914D01*
X114608196Y-84426275D01*
X113927553Y-84288439D01*
X113762269Y-84254889D01*
X113524989Y-84206568D01*
X113248347Y-84150106D01*
X112944820Y-84088057D01*
X112626889Y-84022969D01*
X112307032Y-83957396D01*
X111997730Y-83893889D01*
X111835329Y-83860534D01*
X111468185Y-83785239D01*
X111069038Y-83703504D01*
X110656837Y-83619205D01*
X110250531Y-83536214D01*
X109869069Y-83458407D01*
X109531399Y-83389657D01*
X108314249Y-83142140D01*
X105199306Y-83782302D01*
X102084363Y-84422463D01*
X102084363Y-82582862D01*
X102236507Y-82550272D01*
X102240494Y-82549422D01*
X102305934Y-82535755D01*
X102427525Y-82510583D01*
X102599406Y-82475111D01*
X102815714Y-82430547D01*
X103070588Y-82378097D01*
X103358167Y-82318966D01*
X103672588Y-82254362D01*
X104007990Y-82185491D01*
X104358512Y-82113558D01*
X104614166Y-82061102D01*
X105005696Y-81980742D01*
X105401434Y-81899489D01*
X105791815Y-81819311D01*
X106167272Y-81742171D01*
X106518240Y-81670036D01*
X106835151Y-81604872D01*
X107108440Y-81548643D01*
X107328540Y-81503316D01*
X108328707Y-81297198D01*
X111444429Y-81937330D01*
G37*
G36*
X144277392Y-94558110D02*
G01*
X144491368Y-94559168D01*
X144650878Y-94561379D01*
X144762547Y-94565190D01*
X144833003Y-94571052D01*
X144868871Y-94579414D01*
X144876779Y-94590726D01*
X144863352Y-94605436D01*
X144819253Y-94646123D01*
X144755564Y-94724418D01*
X144705340Y-94805408D01*
X144684826Y-94865433D01*
X144697769Y-94885999D01*
X144753258Y-94939376D01*
X144842416Y-95013080D01*
X144954269Y-95097652D01*
X145046477Y-95163593D01*
X145149193Y-95231091D01*
X145227100Y-95270527D01*
X145295185Y-95288990D01*
X145368435Y-95293568D01*
X145383272Y-95293517D01*
X145467356Y-95287821D01*
X145507985Y-95266849D01*
X145523182Y-95222302D01*
X145530603Y-95194342D01*
X145591051Y-95126400D01*
X145705449Y-95084910D01*
X145869735Y-95071637D01*
X146014250Y-95079632D01*
X146158719Y-95113150D01*
X146263238Y-95177446D01*
X146339287Y-95277553D01*
X146373168Y-95342331D01*
X146424062Y-95468675D01*
X146432799Y-95559569D01*
X146400763Y-95622782D01*
X146353498Y-95648313D01*
X146256710Y-95683096D01*
X146125438Y-95721815D01*
X145974045Y-95759855D01*
X145950722Y-95765270D01*
X145704621Y-95827917D01*
X145515526Y-95889901D01*
X145377185Y-95956123D01*
X145283343Y-96031480D01*
X145227748Y-96120872D01*
X145204147Y-96229198D01*
X145206286Y-96361357D01*
X145223970Y-96488991D01*
X145303293Y-96759760D01*
X145432542Y-97011466D01*
X145604226Y-97231173D01*
X145810859Y-97405941D01*
X146005156Y-97535687D01*
X145432610Y-97535687D01*
X144439681Y-96086318D01*
X144330284Y-95926598D01*
X144149250Y-95662132D01*
X143980784Y-95415835D01*
X143828266Y-95192659D01*
X143695076Y-94997555D01*
X143584593Y-94835476D01*
X143500198Y-94711374D01*
X143445269Y-94630201D01*
X143423188Y-94596910D01*
X143421971Y-94590519D01*
X143440469Y-94578913D01*
X143492884Y-94570198D01*
X143585242Y-94564057D01*
X143723569Y-94560170D01*
X143913890Y-94558221D01*
X144162233Y-94557891D01*
X144277392Y-94558110D01*
G37*
G36*
X132769357Y-81931533D02*
G01*
X132769357Y-86357125D01*
X132096721Y-86357125D01*
X132096721Y-84371248D01*
X131464123Y-84371006D01*
X131258819Y-84369282D01*
X131054261Y-84364448D01*
X130870694Y-84357085D01*
X130722472Y-84347771D01*
X130623950Y-84337087D01*
X130473996Y-84304422D01*
X130208163Y-84200599D01*
X129975238Y-84046729D01*
X129782232Y-83847976D01*
X129636158Y-83609507D01*
X129606548Y-83543977D01*
X129583631Y-83481801D01*
X129567967Y-83415183D01*
X129558180Y-83332201D01*
X129552893Y-83220929D01*
X129550730Y-83069445D01*
X129550315Y-82865826D01*
X129550350Y-82830269D01*
X130207956Y-82830269D01*
X130214060Y-83012203D01*
X130229932Y-83177850D01*
X130255164Y-83304874D01*
X130284365Y-83381128D01*
X130384138Y-83533120D01*
X130520576Y-83654396D01*
X130677115Y-83728333D01*
X130681277Y-83729402D01*
X130756692Y-83739855D01*
X130883042Y-83748922D01*
X131048368Y-83756070D01*
X131240710Y-83760771D01*
X131448108Y-83762495D01*
X132096721Y-83762673D01*
X132096721Y-81931533D01*
X131400063Y-81942248D01*
X131216117Y-81945225D01*
X131030000Y-81949182D01*
X130890775Y-81954264D01*
X130788797Y-81961513D01*
X130714425Y-81971972D01*
X130658015Y-81986684D01*
X130609923Y-82006692D01*
X130560508Y-82033039D01*
X130457296Y-82104285D01*
X130323480Y-82256752D01*
X130239479Y-82445665D01*
X130226682Y-82506881D01*
X130212027Y-82654383D01*
X130207956Y-82830269D01*
X129550350Y-82830269D01*
X129550398Y-82780680D01*
X129551797Y-82593671D01*
X129555835Y-82454112D01*
X129563681Y-82349940D01*
X129576506Y-82269094D01*
X129595480Y-82199512D01*
X129621772Y-82129130D01*
X129653179Y-82059041D01*
X129795372Y-81838664D01*
X129985684Y-81651080D01*
X130215047Y-81503986D01*
X130474394Y-81405083D01*
X130526008Y-81394368D01*
X130616673Y-81383320D01*
X130741718Y-81374738D01*
X130907074Y-81368407D01*
X131118676Y-81364113D01*
X131382457Y-81361643D01*
X131704350Y-81360783D01*
X132769357Y-81360403D01*
X132769357Y-81931533D01*
G37*
G36*
X141641740Y-81931705D02*
G01*
X141641740Y-86357125D01*
X140969104Y-86357125D01*
X140969104Y-84371248D01*
X140496658Y-84372659D01*
X140024212Y-84374069D01*
X138881570Y-86357125D01*
X138246532Y-86357125D01*
X138246532Y-86230449D01*
X138250139Y-86191822D01*
X138264763Y-86136985D01*
X138293597Y-86064354D01*
X138339782Y-85967747D01*
X138406457Y-85840983D01*
X138496760Y-85677884D01*
X138613831Y-85472266D01*
X138760810Y-85217951D01*
X138833000Y-85093368D01*
X138951570Y-84887630D01*
X139056514Y-84704134D01*
X139144094Y-84549496D01*
X139210573Y-84430330D01*
X139252216Y-84353251D01*
X139265287Y-84324873D01*
X139264567Y-84324408D01*
X139228268Y-84306304D01*
X139150677Y-84269478D01*
X139047288Y-84221291D01*
X139032747Y-84214453D01*
X138797605Y-84067848D01*
X138605263Y-83873872D01*
X138457757Y-83634552D01*
X138358638Y-83426355D01*
X138358638Y-82881873D01*
X139016669Y-82881873D01*
X139021382Y-83048263D01*
X139032873Y-83193415D01*
X139051154Y-83298129D01*
X139053082Y-83304779D01*
X139117721Y-83434363D01*
X139223405Y-83560907D01*
X139350607Y-83664887D01*
X139479803Y-83726777D01*
X139548021Y-83737806D01*
X139674713Y-83747917D01*
X139846813Y-83755688D01*
X140054627Y-83760689D01*
X140288461Y-83762495D01*
X140969104Y-83762673D01*
X140969104Y-81931705D01*
X140240416Y-81942507D01*
X140078553Y-81945041D01*
X139878928Y-81949065D01*
X139727959Y-81954071D01*
X139616347Y-81960946D01*
X139534791Y-81970580D01*
X139473990Y-81983859D01*
X139424645Y-82001673D01*
X139377454Y-82024908D01*
X139281479Y-82087952D01*
X139143441Y-82234177D01*
X139051712Y-82414174D01*
X139043078Y-82447263D01*
X139027529Y-82562173D01*
X139018722Y-82713443D01*
X139016669Y-82881873D01*
X138358638Y-82881873D01*
X138358638Y-82271919D01*
X138462734Y-82060469D01*
X138476728Y-82032864D01*
X138626952Y-81809155D01*
X138824601Y-81625364D01*
X139073566Y-81477779D01*
X139287515Y-81376418D01*
X140464628Y-81366604D01*
X141641740Y-81356789D01*
X141641740Y-81931705D01*
G37*
G36*
X146750282Y-94564516D02*
G01*
X147102331Y-94572888D01*
X147197199Y-94837137D01*
X147292068Y-95101387D01*
X148651070Y-95101387D01*
X148701038Y-95237516D01*
X148733829Y-95326848D01*
X148781699Y-95457255D01*
X148830373Y-95589848D01*
X148909739Y-95806053D01*
X148350645Y-95806053D01*
X148194378Y-95807014D01*
X148033771Y-95810321D01*
X147906550Y-95815560D01*
X147822939Y-95822292D01*
X147793162Y-95830075D01*
X147796005Y-95841880D01*
X147816490Y-95903773D01*
X147852286Y-96003551D01*
X147898127Y-96126355D01*
X148001482Y-96398613D01*
X148569152Y-96407359D01*
X148733014Y-96410294D01*
X148894402Y-96414114D01*
X149022290Y-96418176D01*
X149106491Y-96422149D01*
X149136822Y-96425705D01*
X149144296Y-96448724D01*
X149170639Y-96523305D01*
X149212577Y-96639818D01*
X149266551Y-96788389D01*
X149329003Y-96959142D01*
X149381228Y-97102488D01*
X149437072Y-97258301D01*
X149481407Y-97384901D01*
X149510642Y-97472006D01*
X149521185Y-97509333D01*
X149517757Y-97511574D01*
X149467663Y-97518032D01*
X149363974Y-97523806D01*
X149214562Y-97528677D01*
X149027300Y-97532426D01*
X148810058Y-97534835D01*
X148570709Y-97535687D01*
X147620233Y-97535687D01*
X147685874Y-97463619D01*
X147751544Y-97379330D01*
X147803338Y-97288561D01*
X147823581Y-97219691D01*
X147816080Y-97206369D01*
X147767997Y-97158873D01*
X147685249Y-97089911D01*
X147579340Y-97009388D01*
X147554295Y-96991187D01*
X147436356Y-96909892D01*
X147348739Y-96861087D01*
X147275578Y-96837291D01*
X147201001Y-96831021D01*
X147126127Y-96835342D01*
X147055934Y-96862473D01*
X146995859Y-96927112D01*
X146988892Y-96936501D01*
X146954028Y-96978327D01*
X146915841Y-97003900D01*
X146859145Y-97017183D01*
X146768758Y-97022139D01*
X146629495Y-97022731D01*
X146585935Y-97022289D01*
X146441542Y-97015354D01*
X146324888Y-97001511D01*
X146254098Y-96982693D01*
X146252666Y-96981966D01*
X146192059Y-96927404D01*
X146124603Y-96833159D01*
X146061969Y-96720210D01*
X146015830Y-96609536D01*
X145997856Y-96522117D01*
X145998959Y-96499214D01*
X146010087Y-96464068D01*
X146040359Y-96434053D01*
X146098447Y-96405339D01*
X146193025Y-96374094D01*
X146332765Y-96336489D01*
X146526339Y-96288692D01*
X146614977Y-96266420D01*
X146842723Y-96198425D01*
X147013730Y-96126068D01*
X147133486Y-96044845D01*
X147207481Y-95950253D01*
X147241201Y-95837787D01*
X147240135Y-95702945D01*
X147197805Y-95495395D01*
X147096770Y-95241660D01*
X146950782Y-95006652D01*
X146769081Y-94804696D01*
X146560908Y-94650115D01*
X146398234Y-94556145D01*
X146750282Y-94564516D01*
G37*
G36*
X143436305Y-91058121D02*
G01*
X143631561Y-91343368D01*
X143892835Y-91725505D01*
X144123803Y-92063886D01*
X144326285Y-92361249D01*
X144502101Y-92620330D01*
X144653075Y-92843865D01*
X144781026Y-93034590D01*
X144887777Y-93195241D01*
X144975148Y-93328555D01*
X145044960Y-93437269D01*
X145099036Y-93524118D01*
X145139195Y-93591840D01*
X145167260Y-93643169D01*
X145185052Y-93680843D01*
X145194391Y-93707598D01*
X145197099Y-93726171D01*
X145187215Y-93731372D01*
X145123016Y-93739672D01*
X145004422Y-93746525D01*
X144837617Y-93751701D01*
X144628788Y-93754974D01*
X144384122Y-93756116D01*
X143571145Y-93756116D01*
X142662073Y-92378814D01*
X140386270Y-92378814D01*
X140404694Y-92562988D01*
X140411867Y-92646267D01*
X140422045Y-92790339D01*
X140432335Y-92959309D01*
X140441343Y-93131526D01*
X140448973Y-93276242D01*
X140458736Y-93430041D01*
X140468479Y-93555987D01*
X140476925Y-93636002D01*
X140494281Y-93756116D01*
X138835946Y-93756116D01*
X138797493Y-93649777D01*
X138789699Y-93603697D01*
X138779321Y-93492904D01*
X138767024Y-93319801D01*
X138752855Y-93085285D01*
X138736858Y-92790254D01*
X138719081Y-92435603D01*
X138699571Y-92022230D01*
X138678373Y-91551031D01*
X138655535Y-91022903D01*
X138631103Y-90438743D01*
X138624068Y-90267811D01*
X138606118Y-89829603D01*
X138589009Y-89409013D01*
X138572923Y-89010680D01*
X138558043Y-88639242D01*
X138548704Y-88403963D01*
X140031045Y-88403963D01*
X140031904Y-88411935D01*
X140037546Y-88474592D01*
X140047373Y-88589744D01*
X140060699Y-88748977D01*
X140076838Y-88943877D01*
X140095101Y-89166028D01*
X140114803Y-89407016D01*
X140135257Y-89658426D01*
X140155775Y-89911845D01*
X140175671Y-90158856D01*
X140194259Y-90391045D01*
X140210851Y-90599999D01*
X140224760Y-90777301D01*
X140248423Y-91081589D01*
X141059421Y-91090151D01*
X141261560Y-91091947D01*
X141472462Y-91092562D01*
X141629986Y-91091003D01*
X141740160Y-91087024D01*
X141809009Y-91080381D01*
X141842562Y-91070828D01*
X141846844Y-91058121D01*
X141824087Y-91022125D01*
X141770942Y-90939758D01*
X141692325Y-90818600D01*
X141593076Y-90666098D01*
X141478037Y-90489698D01*
X141352047Y-90296847D01*
X141289115Y-90200499D01*
X141126379Y-89950630D01*
X140953134Y-89683770D01*
X140780799Y-89417553D01*
X140620797Y-89169610D01*
X140484548Y-88957575D01*
X140371970Y-88783378D01*
X140251493Y-88602347D01*
X140159387Y-88471986D01*
X140093471Y-88389630D01*
X140051563Y-88352616D01*
X140031482Y-88358282D01*
X140031045Y-88403963D01*
X138548704Y-88403963D01*
X138544551Y-88299339D01*
X138532629Y-87995609D01*
X138522461Y-87732690D01*
X138514228Y-87515221D01*
X138508114Y-87347842D01*
X138504300Y-87235190D01*
X138502969Y-87181904D01*
X138502774Y-87029760D01*
X140675833Y-87029760D01*
X142906926Y-90285297D01*
X143010805Y-90436883D01*
X143338158Y-90914739D01*
X143436305Y-91058121D01*
G37*
G36*
X138774334Y-94572888D02*
G01*
X138870773Y-94836503D01*
X138967213Y-95100118D01*
X140438579Y-95117402D01*
X140541277Y-95389659D01*
X140562850Y-95447596D01*
X140604909Y-95565500D01*
X140634547Y-95655607D01*
X140646389Y-95701954D01*
X140641653Y-95711164D01*
X140607597Y-95723367D01*
X140535265Y-95732137D01*
X140418216Y-95737888D01*
X140250012Y-95741035D01*
X140024212Y-95741992D01*
X139998063Y-95742001D01*
X139808520Y-95742636D01*
X139644193Y-95744154D01*
X139514794Y-95746395D01*
X139430033Y-95749197D01*
X139399621Y-95752397D01*
X139401106Y-95758906D01*
X139417417Y-95810627D01*
X139446904Y-95898545D01*
X139483516Y-96005141D01*
X139521203Y-96112899D01*
X139553914Y-96204301D01*
X139575597Y-96261831D01*
X139586424Y-96278492D01*
X139612105Y-96293532D01*
X139659849Y-96304635D01*
X139738056Y-96312612D01*
X139855124Y-96318273D01*
X140019455Y-96322430D01*
X140239446Y-96325891D01*
X140880737Y-96334552D01*
X141001239Y-96662862D01*
X141121741Y-96991173D01*
X141037415Y-96992829D01*
X141034810Y-96992875D01*
X140972327Y-96993325D01*
X140858213Y-96993619D01*
X140703910Y-96993747D01*
X140520856Y-96993699D01*
X140320491Y-96993464D01*
X140303572Y-96993440D01*
X140084879Y-96993953D01*
X139922400Y-96996442D01*
X139808799Y-97001402D01*
X139736738Y-97009326D01*
X139698882Y-97020707D01*
X139687894Y-97036040D01*
X139687907Y-97036857D01*
X139699328Y-97088798D01*
X139728024Y-97180402D01*
X139767969Y-97292378D01*
X139771118Y-97300754D01*
X139809994Y-97406317D01*
X139837567Y-97485030D01*
X139848045Y-97520403D01*
X139832669Y-97521107D01*
X139757617Y-97522099D01*
X139621925Y-97523065D01*
X139427611Y-97524001D01*
X139176692Y-97524908D01*
X138871185Y-97525782D01*
X138513109Y-97526623D01*
X138104481Y-97527427D01*
X137647319Y-97528194D01*
X137143639Y-97528921D01*
X136595461Y-97529607D01*
X136004800Y-97530249D01*
X135373676Y-97530846D01*
X134704104Y-97531396D01*
X133998104Y-97531897D01*
X133257693Y-97532348D01*
X132484887Y-97532745D01*
X131681705Y-97533088D01*
X130850165Y-97533374D01*
X129992283Y-97533603D01*
X129110078Y-97533771D01*
X128205567Y-97533877D01*
X127280767Y-97533919D01*
X126337697Y-97533895D01*
X125378373Y-97533803D01*
X125010572Y-97533752D01*
X123829883Y-97533542D01*
X122711467Y-97533265D01*
X121653947Y-97532919D01*
X120655949Y-97532500D01*
X119716098Y-97532003D01*
X118833019Y-97531425D01*
X118005338Y-97530761D01*
X117231680Y-97530009D01*
X116510669Y-97529165D01*
X115840931Y-97528224D01*
X115221091Y-97527182D01*
X114649774Y-97526037D01*
X114125605Y-97524783D01*
X113647210Y-97523418D01*
X113213213Y-97521938D01*
X112822240Y-97520338D01*
X112472915Y-97518614D01*
X112163864Y-97516764D01*
X111893713Y-97514783D01*
X111661085Y-97512667D01*
X111464607Y-97510413D01*
X111302902Y-97508016D01*
X111174598Y-97505474D01*
X111078318Y-97502781D01*
X111012688Y-97499935D01*
X110976333Y-97496931D01*
X110967877Y-97493766D01*
X110973177Y-97490351D01*
X111027788Y-97455208D01*
X111125209Y-97392546D01*
X111256337Y-97308219D01*
X111412066Y-97208083D01*
X111583292Y-97097993D01*
X111995918Y-96825106D01*
X112449157Y-96506274D01*
X112869499Y-96189465D01*
X113252555Y-95878412D01*
X113593938Y-95576846D01*
X113889261Y-95288501D01*
X114134134Y-95017109D01*
X114324171Y-94766403D01*
X114464060Y-94558838D01*
X138774334Y-94572888D01*
G37*
G36*
X144766878Y-81302175D02*
G01*
X144972293Y-81311503D01*
X145145165Y-81325304D01*
X145269802Y-81343404D01*
X145290105Y-81347857D01*
X145568951Y-81440792D01*
X145821032Y-81584104D01*
X146033079Y-81770373D01*
X146098018Y-81844087D01*
X146213274Y-81999690D01*
X146296852Y-82161956D01*
X146364554Y-82358942D01*
X146373780Y-82393882D01*
X146384928Y-82450690D01*
X146393825Y-82521212D01*
X146400642Y-82611743D01*
X146405552Y-82728573D01*
X146408728Y-82877996D01*
X146410342Y-83066304D01*
X146410566Y-83299789D01*
X146409573Y-83584744D01*
X146407535Y-83927461D01*
X146398234Y-85316141D01*
X146295255Y-85533550D01*
X146246710Y-85627279D01*
X146076199Y-85870971D01*
X145864293Y-86076092D01*
X145620392Y-86234603D01*
X145353899Y-86338466D01*
X145323021Y-86345684D01*
X145187369Y-86365136D01*
X145007960Y-86378862D01*
X144800087Y-86386846D01*
X144579040Y-86389071D01*
X144360113Y-86385520D01*
X144158597Y-86376179D01*
X143989783Y-86361029D01*
X143868963Y-86340055D01*
X143799209Y-86320109D01*
X143520623Y-86200666D01*
X143275497Y-86027971D01*
X143067845Y-85805364D01*
X142901684Y-85536180D01*
X142778814Y-85287708D01*
X142768921Y-84412566D01*
X142759027Y-83537425D01*
X143633738Y-83545951D01*
X144508449Y-83554476D01*
X144517658Y-83850756D01*
X144526868Y-84147036D01*
X143429807Y-84147036D01*
X143441079Y-84651513D01*
X143445675Y-84826960D01*
X143452216Y-84977692D01*
X143461616Y-85087050D01*
X143475422Y-85167129D01*
X143495180Y-85230028D01*
X143522438Y-85287841D01*
X143618014Y-85442977D01*
X143756893Y-85595036D01*
X143928069Y-85709660D01*
X143952745Y-85722476D01*
X144015895Y-85752155D01*
X144077648Y-85772531D01*
X144151094Y-85785364D01*
X144249326Y-85792409D01*
X144385434Y-85795425D01*
X144572509Y-85796168D01*
X144710935Y-85795563D01*
X144906693Y-85789718D01*
X145057739Y-85775051D01*
X145176261Y-85748375D01*
X145274445Y-85706502D01*
X145364478Y-85646244D01*
X145458548Y-85564414D01*
X145481830Y-85542528D01*
X145545157Y-85479987D01*
X145597259Y-85419155D01*
X145639230Y-85353455D01*
X145672164Y-85276309D01*
X145697156Y-85181142D01*
X145715300Y-85061376D01*
X145727692Y-84910435D01*
X145735424Y-84721741D01*
X145739593Y-84488718D01*
X145741291Y-84204788D01*
X145741614Y-83863376D01*
X145741262Y-83527707D01*
X145739630Y-83244310D01*
X145735874Y-83011873D01*
X145729147Y-82823801D01*
X145718605Y-82673498D01*
X145703404Y-82554368D01*
X145682696Y-82459813D01*
X145655639Y-82383240D01*
X145621386Y-82318050D01*
X145579092Y-82257649D01*
X145527912Y-82195440D01*
X145484040Y-82149551D01*
X145366742Y-82053181D01*
X145246926Y-81980948D01*
X145215232Y-81966572D01*
X145153175Y-81942536D01*
X145087257Y-81925754D01*
X145005439Y-81914930D01*
X144895682Y-81908766D01*
X144745947Y-81905965D01*
X144544195Y-81905231D01*
X144507318Y-81905273D01*
X144287705Y-81908441D01*
X144102584Y-81916215D01*
X143961789Y-81928035D01*
X143875154Y-81943340D01*
X143793393Y-81980456D01*
X143684169Y-82050514D01*
X143578675Y-82135522D01*
X143572545Y-82141107D01*
X143486426Y-82215970D01*
X143418157Y-82269089D01*
X143382039Y-82289281D01*
X143367526Y-82281982D01*
X143313630Y-82238621D01*
X143233028Y-82164932D01*
X143136987Y-82070954D01*
X142920332Y-81852626D01*
X143097723Y-81684857D01*
X143275108Y-81541474D01*
X143530506Y-81404790D01*
X143809524Y-81327248D01*
X143933644Y-81313068D01*
X144112304Y-81302767D01*
X144321191Y-81297634D01*
X144544613Y-81297494D01*
X144766878Y-81302175D01*
G37*
G36*
X123800396Y-83909320D02*
G01*
X123800081Y-84121567D01*
X123798535Y-84422811D01*
X123795696Y-84669987D01*
X123791397Y-84868639D01*
X123785467Y-85024313D01*
X123777737Y-85142553D01*
X123768039Y-85228903D01*
X123756203Y-85288909D01*
X123719599Y-85403368D01*
X123594748Y-85655625D01*
X123421201Y-85885505D01*
X123209226Y-86082700D01*
X122969095Y-86236903D01*
X122711077Y-86337807D01*
X122664082Y-86348146D01*
X122521427Y-86366802D01*
X122336849Y-86379884D01*
X122125394Y-86387368D01*
X121902106Y-86389233D01*
X121682031Y-86385457D01*
X121480214Y-86376016D01*
X121311701Y-86360890D01*
X121191536Y-86340055D01*
X121118023Y-86318928D01*
X120840196Y-86198842D01*
X120595698Y-86025346D01*
X120388236Y-85801533D01*
X120221516Y-85530498D01*
X120101387Y-85287433D01*
X120101387Y-83116673D01*
X120760864Y-83116673D01*
X120761038Y-83326290D01*
X120762387Y-83586360D01*
X120764637Y-83903686D01*
X120765983Y-84080344D01*
X120768409Y-84365380D01*
X120771032Y-84596418D01*
X120774231Y-84780017D01*
X120778384Y-84922736D01*
X120783871Y-85031134D01*
X120791070Y-85111768D01*
X120800360Y-85171197D01*
X120812119Y-85215980D01*
X120826726Y-85252675D01*
X120844559Y-85287841D01*
X120954717Y-85462223D01*
X121081518Y-85593375D01*
X121243742Y-85700287D01*
X121249463Y-85703395D01*
X121320245Y-85739705D01*
X121384899Y-85765016D01*
X121457462Y-85781650D01*
X121551970Y-85791928D01*
X121682462Y-85798171D01*
X121862974Y-85802703D01*
X121918568Y-85803704D01*
X122158846Y-85802632D01*
X122339160Y-85791332D01*
X122462263Y-85769653D01*
X122651402Y-85692820D01*
X122838937Y-85555905D01*
X122984760Y-85374161D01*
X123082399Y-85154015D01*
X123089286Y-85123822D01*
X123102651Y-85015226D01*
X123113569Y-84856435D01*
X123122058Y-84656949D01*
X123128137Y-84426267D01*
X123131823Y-84173891D01*
X123133134Y-83909320D01*
X123132089Y-83642055D01*
X123128706Y-83381596D01*
X123123003Y-83137442D01*
X123114998Y-82919096D01*
X123104710Y-82736056D01*
X123092156Y-82597823D01*
X123077354Y-82513897D01*
X123035642Y-82412053D01*
X122935940Y-82258914D01*
X122805444Y-82118286D01*
X122660184Y-82006558D01*
X122516191Y-81940121D01*
X122472216Y-81930373D01*
X122343461Y-81914905D01*
X122179262Y-81906462D01*
X121993816Y-81904610D01*
X121801322Y-81908916D01*
X121615975Y-81918943D01*
X121451974Y-81934259D01*
X121323515Y-81954429D01*
X121244795Y-81979018D01*
X121199733Y-82005960D01*
X121046309Y-82133809D01*
X120914043Y-82296864D01*
X120822083Y-82472758D01*
X120815466Y-82490685D01*
X120799773Y-82537584D01*
X120787166Y-82587322D01*
X120777372Y-82646701D01*
X120770118Y-82722524D01*
X120765131Y-82821592D01*
X120762137Y-82950708D01*
X120760864Y-83116673D01*
X120101387Y-83116673D01*
X120101387Y-82401387D01*
X120199926Y-82193013D01*
X120348060Y-81947070D01*
X120543958Y-81727344D01*
X120775238Y-81545071D01*
X121030635Y-81409113D01*
X121298886Y-81328334D01*
X121336444Y-81322472D01*
X121474424Y-81309780D01*
X121653082Y-81301546D01*
X121855491Y-81297780D01*
X122064724Y-81298492D01*
X122263854Y-81303691D01*
X122435955Y-81313389D01*
X122564100Y-81327594D01*
X122734950Y-81367194D01*
X123003703Y-81478816D01*
X123247394Y-81641220D01*
X123457234Y-81846720D01*
X123624432Y-82087627D01*
X123740199Y-82356255D01*
X123753869Y-82403565D01*
X123766692Y-82460272D01*
X123776961Y-82526824D01*
X123784952Y-82609997D01*
X123790941Y-82716569D01*
X123795203Y-82853316D01*
X123798014Y-83027016D01*
X123799650Y-83244444D01*
X123800388Y-83512378D01*
X123800502Y-83837595D01*
X123800396Y-83909320D01*
G37*
G36*
X134001216Y-87002217D02*
G01*
X134238385Y-87006958D01*
X134436964Y-87017355D01*
X134605910Y-87034667D01*
X134754182Y-87060154D01*
X134890738Y-87095074D01*
X135024536Y-87140686D01*
X135164534Y-87198249D01*
X135319690Y-87269022D01*
X135659279Y-87451185D01*
X136034174Y-87713450D01*
X136367182Y-88018033D01*
X136652946Y-88359923D01*
X136886108Y-88734112D01*
X136908341Y-88779978D01*
X136960132Y-88899826D01*
X137027997Y-89067411D01*
X137109152Y-89275051D01*
X137200808Y-89515063D01*
X137300179Y-89779766D01*
X137404480Y-90061477D01*
X137510922Y-90352514D01*
X137616719Y-90645195D01*
X137719085Y-90931837D01*
X137815232Y-91204760D01*
X137902375Y-91456280D01*
X137977726Y-91678716D01*
X138038499Y-91864385D01*
X138081907Y-92005606D01*
X138105163Y-92094696D01*
X138137515Y-92325032D01*
X138132626Y-92629859D01*
X138071428Y-92909625D01*
X137956566Y-93160228D01*
X137790685Y-93377564D01*
X137576428Y-93557530D01*
X137316441Y-93696022D01*
X137013367Y-93788936D01*
X136993494Y-93791840D01*
X136905368Y-93797851D01*
X136766030Y-93802683D01*
X136584466Y-93806188D01*
X136369664Y-93808224D01*
X136130610Y-93808643D01*
X135876292Y-93807301D01*
X135678877Y-93805441D01*
X135430023Y-93802369D01*
X135231165Y-93798505D01*
X135073858Y-93793328D01*
X134949657Y-93786315D01*
X134850116Y-93776947D01*
X134766790Y-93764703D01*
X134691233Y-93749061D01*
X134615000Y-93729501D01*
X134382358Y-93654404D01*
X134001902Y-93479265D01*
X133643215Y-93246454D01*
X133631195Y-93237410D01*
X133501252Y-93140889D01*
X133408473Y-93067275D01*
X133351975Y-93005285D01*
X133330872Y-92943635D01*
X133344281Y-92871043D01*
X133391317Y-92776226D01*
X133471096Y-92647900D01*
X133582733Y-92474783D01*
X133879281Y-92010466D01*
X134047189Y-92000709D01*
X134112459Y-91998082D01*
X134194486Y-92006000D01*
X134261806Y-92038890D01*
X134343958Y-92107371D01*
X134406427Y-92162046D01*
X134561166Y-92278829D01*
X134717833Y-92364775D01*
X134888571Y-92423371D01*
X135085521Y-92458104D01*
X135320828Y-92472459D01*
X135606635Y-92469924D01*
X135757876Y-92463565D01*
X135930689Y-92448265D01*
X136059852Y-92422213D01*
X136157356Y-92381465D01*
X136235192Y-92322077D01*
X136305353Y-92240106D01*
X136316876Y-92223831D01*
X136350683Y-92154977D01*
X136366409Y-92066227D01*
X136368577Y-91935818D01*
X136368475Y-91931103D01*
X136365253Y-91873948D01*
X136357019Y-91811555D01*
X136341839Y-91737840D01*
X136317779Y-91646715D01*
X136282908Y-91532095D01*
X136235291Y-91387893D01*
X136172995Y-91208023D01*
X136094088Y-90986399D01*
X135996636Y-90716935D01*
X135878706Y-90393545D01*
X135814352Y-90218490D01*
X135711424Y-89942560D01*
X135613427Y-89684622D01*
X135523140Y-89451728D01*
X135443342Y-89250931D01*
X135376813Y-89089284D01*
X135326332Y-88973838D01*
X135294679Y-88911646D01*
X135293328Y-88909548D01*
X135145148Y-88723991D01*
X134959376Y-88557703D01*
X134760433Y-88432582D01*
X134708356Y-88408488D01*
X134652556Y-88388897D01*
X134587261Y-88375276D01*
X134501558Y-88366552D01*
X134384535Y-88361649D01*
X134225279Y-88359495D01*
X134012878Y-88359016D01*
X133821409Y-88359752D01*
X133628738Y-88364392D01*
X133484539Y-88375943D01*
X133380102Y-88397378D01*
X133306715Y-88431672D01*
X133255668Y-88481801D01*
X133218250Y-88550737D01*
X133185750Y-88641456D01*
X133137705Y-88791088D01*
X132944909Y-88791257D01*
X132752112Y-88791425D01*
X132128137Y-88332636D01*
X132074648Y-88293334D01*
X131881980Y-88151434D01*
X131735053Y-88039899D01*
X131629610Y-87951978D01*
X131561392Y-87880920D01*
X131526141Y-87819971D01*
X131519599Y-87762381D01*
X131537507Y-87701398D01*
X131575607Y-87630270D01*
X131629640Y-87542244D01*
X131763303Y-87370321D01*
X131964799Y-87207628D01*
X132215270Y-87084273D01*
X132223989Y-87081015D01*
X132278451Y-87062237D01*
X132334774Y-87047210D01*
X132400733Y-87035422D01*
X132484103Y-87026361D01*
X132592659Y-87019516D01*
X132734176Y-87014375D01*
X132916427Y-87010427D01*
X133147189Y-87007160D01*
X133434235Y-87004062D01*
X133716498Y-87001874D01*
X134001216Y-87002217D01*
G37*
G36*
X126938343Y-87035916D02*
G01*
X127101989Y-87038505D01*
X127221165Y-87043000D01*
X127301122Y-87049548D01*
X127347110Y-87058296D01*
X127364380Y-87069392D01*
X127364776Y-87070454D01*
X127380044Y-87112226D01*
X127415607Y-87209820D01*
X127470038Y-87359312D01*
X127541908Y-87556780D01*
X127629792Y-87798301D01*
X127732261Y-88079953D01*
X127847890Y-88397813D01*
X127975250Y-88747958D01*
X128112916Y-89126466D01*
X128259459Y-89529414D01*
X128413453Y-89952879D01*
X128573471Y-90392938D01*
X128592531Y-90445357D01*
X128751916Y-90883674D01*
X128905109Y-91304938D01*
X129050682Y-91705226D01*
X129187210Y-92080615D01*
X129313265Y-92427183D01*
X129427421Y-92741006D01*
X129528249Y-93018161D01*
X129614323Y-93254726D01*
X129684215Y-93446778D01*
X129736500Y-93590394D01*
X129769750Y-93681651D01*
X129782537Y-93716626D01*
X129779117Y-93726770D01*
X129749353Y-93736948D01*
X129685528Y-93744198D01*
X129581648Y-93748758D01*
X129431717Y-93750864D01*
X129229739Y-93750751D01*
X128969721Y-93748656D01*
X128141625Y-93740101D01*
X127589172Y-92218663D01*
X127502892Y-91980466D01*
X127377975Y-91633793D01*
X127251680Y-91281390D01*
X127127908Y-90934238D01*
X127010561Y-90603316D01*
X126903540Y-90299605D01*
X126810747Y-90034086D01*
X126736083Y-89817740D01*
X126716940Y-89761928D01*
X126639968Y-89541303D01*
X126568737Y-89342951D01*
X126506154Y-89174568D01*
X126455128Y-89043855D01*
X126418565Y-88958509D01*
X126399375Y-88926231D01*
X126398265Y-88925940D01*
X126382381Y-88946328D01*
X126371521Y-89017495D01*
X126365293Y-89143828D01*
X126363304Y-89329717D01*
X126362765Y-89413744D01*
X126358771Y-89617711D01*
X126351520Y-89851447D01*
X126341772Y-90092226D01*
X126330287Y-90317317D01*
X126327890Y-90358321D01*
X126320365Y-90480254D01*
X126311797Y-90607984D01*
X126301734Y-90746782D01*
X126289724Y-90901919D01*
X126275317Y-91078667D01*
X126258060Y-91282295D01*
X126237503Y-91518076D01*
X126213194Y-91791279D01*
X126184682Y-92107177D01*
X126151516Y-92471040D01*
X126113243Y-92888139D01*
X126069414Y-93363745D01*
X126033199Y-93756116D01*
X124904453Y-93756116D01*
X124751797Y-93756078D01*
X124480855Y-93755644D01*
X124264626Y-93754480D01*
X124096812Y-93752276D01*
X123971113Y-93748727D01*
X123881232Y-93743526D01*
X123820870Y-93736366D01*
X123783728Y-93726940D01*
X123763508Y-93714941D01*
X123753911Y-93700063D01*
X123749858Y-93689427D01*
X123724065Y-93619957D01*
X123679307Y-93498197D01*
X123617290Y-93328834D01*
X123539715Y-93116554D01*
X123448288Y-92866046D01*
X123344712Y-92581994D01*
X123230691Y-92269086D01*
X123107929Y-91932009D01*
X122978129Y-91575448D01*
X122842995Y-91204092D01*
X122704232Y-90822626D01*
X122563542Y-90435738D01*
X122422631Y-90048113D01*
X122283201Y-89664439D01*
X122146956Y-89289402D01*
X122015601Y-88927689D01*
X121890839Y-88583987D01*
X121774374Y-88262983D01*
X121667909Y-87969362D01*
X121573149Y-87707812D01*
X121491798Y-87483019D01*
X121425559Y-87299671D01*
X121376135Y-87162453D01*
X121345232Y-87076053D01*
X121334552Y-87045157D01*
X121358865Y-87041438D01*
X121439315Y-87038223D01*
X121567838Y-87036113D01*
X121735976Y-87035190D01*
X121935267Y-87035534D01*
X122157252Y-87037227D01*
X122979953Y-87045775D01*
X123486513Y-88439092D01*
X123515187Y-88518036D01*
X123638103Y-88857868D01*
X123767298Y-89217100D01*
X123898049Y-89582476D01*
X124025631Y-89940737D01*
X124145322Y-90278628D01*
X124252396Y-90582892D01*
X124342131Y-90840271D01*
X124400805Y-91008607D01*
X124481477Y-91236406D01*
X124554794Y-91439238D01*
X124618099Y-91609968D01*
X124668734Y-91741460D01*
X124704040Y-91826580D01*
X124721360Y-91858192D01*
X124723272Y-91857746D01*
X124733927Y-91819206D01*
X124744676Y-91724534D01*
X124755021Y-91580419D01*
X124764465Y-91393555D01*
X124772509Y-91170631D01*
X124772753Y-91162551D01*
X124780359Y-90939567D01*
X124789815Y-90718213D01*
X124801657Y-90491227D01*
X124816420Y-90251350D01*
X124834639Y-89991322D01*
X124856849Y-89703883D01*
X124883585Y-89381771D01*
X124915383Y-89017728D01*
X124952778Y-88604492D01*
X124996305Y-88134804D01*
X125098108Y-87045775D01*
X126223592Y-87037362D01*
X126456639Y-87035865D01*
X126724977Y-87035085D01*
X126938343Y-87035916D01*
G37*
G36*
X149408243Y-90173276D02*
G01*
X149489155Y-90395463D01*
X149528228Y-90502732D01*
X149688276Y-90942233D01*
X149841722Y-91363778D01*
X149987171Y-91763527D01*
X150123229Y-92137640D01*
X150248501Y-92482280D01*
X150361594Y-92793607D01*
X150461113Y-93067781D01*
X150545664Y-93300965D01*
X150613853Y-93489318D01*
X150664286Y-93629001D01*
X150695568Y-93716177D01*
X150706305Y-93747004D01*
X150681641Y-93749220D01*
X150600840Y-93750883D01*
X150472002Y-93751675D01*
X150303577Y-93751578D01*
X150104015Y-93750575D01*
X149881769Y-93748649D01*
X149057233Y-93740101D01*
X148640596Y-92595292D01*
X148223959Y-91450484D01*
X147800169Y-91450210D01*
X147771609Y-91450195D01*
X147608328Y-91450699D01*
X147497037Y-91453490D01*
X147427190Y-91460293D01*
X147388244Y-91472831D01*
X147369654Y-91492827D01*
X147360876Y-91522005D01*
X147357951Y-91538705D01*
X147346529Y-91615815D01*
X147328655Y-91744082D01*
X147305448Y-91915220D01*
X147278026Y-92120946D01*
X147247506Y-92352976D01*
X147215006Y-92603026D01*
X147198727Y-92728640D01*
X147167069Y-92970798D01*
X147137944Y-93190832D01*
X147112470Y-93380458D01*
X147091766Y-93531392D01*
X147076948Y-93635349D01*
X147069136Y-93684048D01*
X147053634Y-93756116D01*
X145363272Y-93756116D01*
X145314422Y-93612748D01*
X145303005Y-93577123D01*
X145293824Y-93536930D01*
X145289508Y-93490178D01*
X145290959Y-93429825D01*
X145299078Y-93348826D01*
X145314768Y-93240136D01*
X145338930Y-93096712D01*
X145372467Y-92911509D01*
X145416279Y-92677483D01*
X145471270Y-92387591D01*
X145509325Y-92186606D01*
X145554792Y-91944091D01*
X145595120Y-91726309D01*
X145628919Y-91540896D01*
X145654802Y-91395487D01*
X145671379Y-91297717D01*
X145677260Y-91255223D01*
X145666895Y-91231292D01*
X145608588Y-91181231D01*
X145510279Y-91127102D01*
X145353762Y-91046592D01*
X145120976Y-90902938D01*
X144898644Y-90740656D01*
X144712453Y-90577443D01*
X144643938Y-90507851D01*
X144486474Y-90329453D01*
X144347781Y-90140055D01*
X144222007Y-89929218D01*
X144103298Y-89686502D01*
X143985800Y-89401470D01*
X143863661Y-89063682D01*
X143853958Y-89035431D01*
X143795976Y-88863107D01*
X143755945Y-88731795D01*
X143753229Y-88720340D01*
X145462097Y-88720340D01*
X145477866Y-88911543D01*
X145541918Y-89144048D01*
X145603895Y-89313391D01*
X145704355Y-89544485D01*
X145809459Y-89726472D01*
X145925873Y-89868453D01*
X146060264Y-89979528D01*
X146219298Y-90068798D01*
X146261138Y-90088003D01*
X146319208Y-90111321D01*
X146379733Y-90128561D01*
X146452979Y-90140849D01*
X146549214Y-90149311D01*
X146678704Y-90155072D01*
X146851717Y-90159257D01*
X147078520Y-90162993D01*
X147758805Y-90173276D01*
X147656029Y-89890736D01*
X147655336Y-89888829D01*
X147611107Y-89767317D01*
X147550525Y-89600984D01*
X147479075Y-89404884D01*
X147402244Y-89194074D01*
X147325515Y-88983606D01*
X147097776Y-88359016D01*
X146475748Y-88349355D01*
X146314065Y-88347817D01*
X146109838Y-88349008D01*
X145939296Y-88353790D01*
X145812546Y-88361842D01*
X145739696Y-88372839D01*
X145707380Y-88383267D01*
X145576565Y-88457330D01*
X145494900Y-88569312D01*
X145462097Y-88720340D01*
X143753229Y-88720340D01*
X143730527Y-88624609D01*
X143716385Y-88524663D01*
X143710183Y-88415069D01*
X143708583Y-88278940D01*
X143709166Y-88156526D01*
X143714592Y-88031109D01*
X143728208Y-87936338D01*
X143753138Y-87852959D01*
X143792507Y-87761717D01*
X143824177Y-87699086D01*
X143963003Y-87501409D01*
X144146887Y-87338907D01*
X144380521Y-87208066D01*
X144668600Y-87105369D01*
X144704932Y-87096059D01*
X144761405Y-87085175D01*
X144831855Y-87075941D01*
X144921846Y-87068159D01*
X145036943Y-87061632D01*
X145182712Y-87056159D01*
X145364717Y-87051543D01*
X145588522Y-87047585D01*
X145859694Y-87044086D01*
X146183796Y-87040849D01*
X146566393Y-87037674D01*
X146723591Y-87036518D01*
X147038512Y-87034593D01*
X147330509Y-87033329D01*
X147593704Y-87032718D01*
X147822223Y-87032755D01*
X148010188Y-87033436D01*
X148151724Y-87034753D01*
X148240955Y-87036703D01*
X148272005Y-87039279D01*
X148272620Y-87041440D01*
X148288363Y-87086610D01*
X148324325Y-87187205D01*
X148379112Y-87339381D01*
X148451328Y-87539290D01*
X148539580Y-87783087D01*
X148642471Y-88066926D01*
X148758608Y-88386961D01*
X148886595Y-88739345D01*
X149025039Y-89120234D01*
X149172543Y-89525780D01*
X149327713Y-89952139D01*
X149408243Y-90173276D01*
G37*
G36*
X108450378Y-92706108D02*
G01*
X108595025Y-92711855D01*
X108713848Y-92720992D01*
X108793080Y-92732221D01*
X108820488Y-92744280D01*
X108817258Y-92750422D01*
X108773341Y-92781180D01*
X108696364Y-92813952D01*
X108678805Y-92820240D01*
X108595145Y-92856866D01*
X108542458Y-92890438D01*
X108541025Y-92892236D01*
X108528410Y-92942128D01*
X108517514Y-93043840D01*
X108508484Y-93186322D01*
X108501470Y-93358524D01*
X108496619Y-93549397D01*
X108494081Y-93747891D01*
X108494003Y-93942957D01*
X108496534Y-94123545D01*
X108501822Y-94278606D01*
X108510016Y-94397090D01*
X108521265Y-94467947D01*
X108583165Y-94588100D01*
X108693375Y-94688652D01*
X108835599Y-94755917D01*
X108996666Y-94787439D01*
X109163402Y-94780767D01*
X109322638Y-94733446D01*
X109461200Y-94643023D01*
X109488448Y-94616060D01*
X109562089Y-94522072D01*
X109608437Y-94431979D01*
X109619498Y-94368865D01*
X109629467Y-94246540D01*
X109637028Y-94076009D01*
X109641827Y-93865494D01*
X109643505Y-93623215D01*
X109643507Y-93495106D01*
X109642808Y-93289019D01*
X109639630Y-93133659D01*
X109632114Y-93020210D01*
X109618406Y-92939856D01*
X109596649Y-92883780D01*
X109564988Y-92843168D01*
X109521567Y-92809203D01*
X109464528Y-92773069D01*
X109449992Y-92757696D01*
X109469475Y-92746352D01*
X109531461Y-92739013D01*
X109643131Y-92734848D01*
X109811664Y-92733031D01*
X109961202Y-92734013D01*
X110100707Y-92739565D01*
X110189139Y-92749445D01*
X110220050Y-92763178D01*
X110214100Y-92778357D01*
X110170549Y-92795208D01*
X110166841Y-92795405D01*
X110109464Y-92820185D01*
X110042428Y-92873828D01*
X109963808Y-92952447D01*
X109963105Y-93730637D01*
X109962960Y-93828895D01*
X109961852Y-94056548D01*
X109959248Y-94232152D01*
X109954569Y-94364494D01*
X109947239Y-94462358D01*
X109936680Y-94534531D01*
X109922315Y-94589799D01*
X109903568Y-94636948D01*
X109868772Y-94705620D01*
X109799559Y-94799637D01*
X109704532Y-94873435D01*
X109565256Y-94943728D01*
X109438637Y-94985222D01*
X109238966Y-95014227D01*
X109028711Y-95011896D01*
X108834419Y-94977021D01*
X108778547Y-94956555D01*
X108652717Y-94889883D01*
X108538169Y-94806165D01*
X108499498Y-94772411D01*
X108431845Y-94721252D01*
X108392525Y-94718798D01*
X108368913Y-94769930D01*
X108348385Y-94879527D01*
X108318815Y-94979876D01*
X108244963Y-95123794D01*
X108146133Y-95258892D01*
X108038463Y-95360142D01*
X108000360Y-95384725D01*
X107888448Y-95443390D01*
X107770405Y-95492111D01*
X107685269Y-95519265D01*
X107585716Y-95541017D01*
X107488453Y-95545735D01*
X107383773Y-95531059D01*
X107261967Y-95494631D01*
X107113329Y-95434092D01*
X106928149Y-95347084D01*
X106696721Y-95231248D01*
X106674932Y-95206941D01*
X106656515Y-95145701D01*
X106643002Y-95039461D01*
X106632660Y-94878698D01*
X106630859Y-94842337D01*
X106622552Y-94704751D01*
X106611883Y-94613981D01*
X106595138Y-94555814D01*
X106568603Y-94516041D01*
X106528562Y-94480450D01*
X106518666Y-94472428D01*
X106463135Y-94420784D01*
X106440479Y-94387510D01*
X106440499Y-94387276D01*
X106471912Y-94378497D01*
X106554692Y-94371317D01*
X106676461Y-94366470D01*
X106824842Y-94364691D01*
X106976613Y-94365650D01*
X107093072Y-94369704D01*
X107164124Y-94378086D01*
X107199568Y-94392022D01*
X107209205Y-94412736D01*
X107197315Y-94440754D01*
X107145145Y-94460782D01*
X107083862Y-94478678D01*
X107013779Y-94528086D01*
X107005085Y-94537046D01*
X106974677Y-94579105D01*
X106958651Y-94634262D01*
X106954097Y-94719421D01*
X106958105Y-94851488D01*
X106961278Y-94915464D01*
X106970442Y-95023675D01*
X106986749Y-95093304D01*
X107015721Y-95142073D01*
X107062881Y-95187706D01*
X107078664Y-95200997D01*
X107130768Y-95236584D01*
X107189111Y-95255117D01*
X107272894Y-95260510D01*
X107401316Y-95256675D01*
X107523842Y-95248617D01*
X107620303Y-95232388D01*
X107694356Y-95202562D01*
X107768029Y-95152907D01*
X107877376Y-95045139D01*
X107959400Y-94900055D01*
X108010833Y-94713667D01*
X108035303Y-94476797D01*
X108036947Y-94432669D01*
X108024854Y-94147682D01*
X107969722Y-93900074D01*
X107869317Y-93679108D01*
X107821504Y-93609263D01*
X107691205Y-93493985D01*
X107521191Y-93426053D01*
X107308032Y-93403783D01*
X107285141Y-93403923D01*
X107112721Y-93418841D01*
X106986816Y-93463050D01*
X106895107Y-93543243D01*
X106825276Y-93666115D01*
X106793475Y-93731642D01*
X106754773Y-93789028D01*
X106729083Y-93800010D01*
X106723293Y-93787837D01*
X106710437Y-93721713D01*
X106699231Y-93614990D01*
X106691595Y-93483859D01*
X106680706Y-93195586D01*
X107161160Y-93195586D01*
X107277145Y-93195685D01*
X107431253Y-93197112D01*
X107542064Y-93201775D01*
X107622657Y-93211584D01*
X107686110Y-93228452D01*
X107745502Y-93254291D01*
X107813913Y-93291013D01*
X107932592Y-93370406D01*
X108079844Y-93514724D01*
X108224283Y-93712647D01*
X108225989Y-93715213D01*
X108241042Y-93724832D01*
X108251664Y-93698381D01*
X108258594Y-93628866D01*
X108262567Y-93509295D01*
X108264320Y-93332674D01*
X108266204Y-92893216D01*
X108170113Y-92822173D01*
X108155247Y-92810857D01*
X108097438Y-92759050D01*
X108074022Y-92724107D01*
X108103048Y-92714425D01*
X108183775Y-92707711D01*
X108303717Y-92704740D01*
X108450378Y-92706108D01*
G37*
G36*
X117653586Y-87013855D02*
G01*
X117940464Y-87014971D01*
X118177199Y-87018214D01*
X118372323Y-87024695D01*
X118534368Y-87035522D01*
X118671867Y-87051805D01*
X118793351Y-87074652D01*
X118907353Y-87105175D01*
X119022405Y-87144481D01*
X119147039Y-87193680D01*
X119289787Y-87253882D01*
X119523754Y-87365607D01*
X119887457Y-87587332D01*
X120226431Y-87852799D01*
X120530971Y-88153097D01*
X120791373Y-88479314D01*
X120997932Y-88822537D01*
X121026772Y-88886951D01*
X121075771Y-89007415D01*
X121140448Y-89173038D01*
X121218068Y-89376312D01*
X121305896Y-89609732D01*
X121401195Y-89865790D01*
X121501230Y-90136980D01*
X121603265Y-90415795D01*
X121704565Y-90694730D01*
X121802393Y-90966276D01*
X121894014Y-91222929D01*
X121976692Y-91457181D01*
X122047691Y-91661526D01*
X122104276Y-91828456D01*
X122143711Y-91950467D01*
X122163260Y-92020050D01*
X122179890Y-92117055D01*
X122196389Y-92328522D01*
X122191598Y-92542467D01*
X122165421Y-92727475D01*
X122117962Y-92885816D01*
X121992551Y-93136208D01*
X121816634Y-93355453D01*
X121596254Y-93537919D01*
X121337454Y-93677978D01*
X121046280Y-93769998D01*
X120983854Y-93781064D01*
X120820802Y-93798658D01*
X120613870Y-93811107D01*
X120376243Y-93818476D01*
X120121109Y-93820834D01*
X119861656Y-93818248D01*
X119611070Y-93810784D01*
X119382539Y-93798510D01*
X119189249Y-93781493D01*
X119044388Y-93759800D01*
X118850996Y-93711631D01*
X118564248Y-93616692D01*
X118281604Y-93499200D01*
X118033042Y-93370687D01*
X117964529Y-93329341D01*
X117643438Y-93106305D01*
X117343119Y-92850556D01*
X117074188Y-92572837D01*
X116847260Y-92283888D01*
X116672950Y-91994451D01*
X116669028Y-91986407D01*
X116636848Y-91912142D01*
X116588467Y-91792231D01*
X116527153Y-91635461D01*
X116456173Y-91450618D01*
X116378793Y-91246488D01*
X116298282Y-91031856D01*
X116217905Y-90815509D01*
X116140931Y-90606234D01*
X116070625Y-90412815D01*
X116010256Y-90244040D01*
X115963090Y-90108694D01*
X115932395Y-90015563D01*
X115921437Y-89973434D01*
X115923608Y-89971644D01*
X115970551Y-89965165D01*
X116074603Y-89959360D01*
X116230257Y-89954349D01*
X116432002Y-89950249D01*
X116674330Y-89947181D01*
X116951733Y-89945262D01*
X117258701Y-89944612D01*
X118595964Y-89944710D01*
X118782589Y-90459984D01*
X118831312Y-90596678D01*
X118883874Y-90750043D01*
X118923842Y-90873702D01*
X118947974Y-90957540D01*
X118953026Y-90991446D01*
X118939610Y-90994603D01*
X118872152Y-90999172D01*
X118758447Y-91002293D01*
X118609827Y-91003708D01*
X118437628Y-91003160D01*
X118417266Y-91002986D01*
X118223668Y-91002680D01*
X118085350Y-91005773D01*
X117994308Y-91012858D01*
X117942537Y-91024530D01*
X117922035Y-91041380D01*
X117921317Y-91053584D01*
X117934591Y-91118846D01*
X117965107Y-91223755D01*
X118008016Y-91354413D01*
X118058468Y-91496924D01*
X118111611Y-91637390D01*
X118162595Y-91761915D01*
X118206570Y-91856601D01*
X118214031Y-91870590D01*
X118320321Y-92023493D01*
X118465890Y-92177874D01*
X118631519Y-92315484D01*
X118797988Y-92418080D01*
X119011011Y-92522951D01*
X119572214Y-92522951D01*
X119731055Y-92522706D01*
X119894174Y-92521031D01*
X120012209Y-92516749D01*
X120095989Y-92508703D01*
X120156348Y-92495732D01*
X120204114Y-92476677D01*
X120250121Y-92450378D01*
X120303465Y-92412630D01*
X120404779Y-92294616D01*
X120456471Y-92141968D01*
X120460843Y-91949218D01*
X120457873Y-91927524D01*
X120434508Y-91827915D01*
X120391377Y-91679249D01*
X120331319Y-91489317D01*
X120257172Y-91265914D01*
X120171775Y-91016832D01*
X120077970Y-90749864D01*
X119978593Y-90472804D01*
X119876485Y-90193444D01*
X119774485Y-89919578D01*
X119675432Y-89658998D01*
X119582165Y-89419498D01*
X119497524Y-89208870D01*
X119424348Y-89034908D01*
X119365476Y-88905405D01*
X119323747Y-88828154D01*
X119157714Y-88628448D01*
X118951069Y-88462066D01*
X118722951Y-88345327D01*
X118661450Y-88324183D01*
X118584046Y-88304692D01*
X118493689Y-88291624D01*
X118377609Y-88283777D01*
X118223033Y-88279949D01*
X118017189Y-88278940D01*
X117885319Y-88279458D01*
X117686743Y-88283936D01*
X117536408Y-88294749D01*
X117424116Y-88313977D01*
X117339669Y-88343703D01*
X117272869Y-88386007D01*
X117213519Y-88442971D01*
X117200153Y-88459338D01*
X117147579Y-88550120D01*
X117108187Y-88655296D01*
X117094556Y-88704401D01*
X117067755Y-88764224D01*
X117024015Y-88787493D01*
X116942370Y-88791425D01*
X116940667Y-88791421D01*
X116897526Y-88788135D01*
X116850711Y-88775840D01*
X116793430Y-88750327D01*
X116718890Y-88707389D01*
X116620296Y-88642818D01*
X116490856Y-88552406D01*
X116323776Y-88431943D01*
X116112263Y-88277224D01*
X115926533Y-88141193D01*
X115753228Y-88013474D01*
X115622823Y-87913539D01*
X115531055Y-87835339D01*
X115473661Y-87772827D01*
X115446378Y-87719954D01*
X115444944Y-87670674D01*
X115465095Y-87618938D01*
X115502569Y-87558699D01*
X115553103Y-87483908D01*
X115686297Y-87332653D01*
X115877742Y-87196873D01*
X116115514Y-87088213D01*
X116170120Y-87069122D01*
X116224139Y-87053042D01*
X116282626Y-87040419D01*
X116353032Y-87030835D01*
X116442803Y-87023872D01*
X116559391Y-87019112D01*
X116710242Y-87016137D01*
X116902808Y-87014529D01*
X117144536Y-87013871D01*
X117442875Y-87013745D01*
X117653586Y-87013855D01*
G37*
G36*
X114596153Y-85406495D02*
G01*
X114594941Y-85436254D01*
X114588104Y-85563731D01*
X114577986Y-85755474D01*
X114566416Y-85977146D01*
X114554346Y-86210479D01*
X114542729Y-86437200D01*
X114540111Y-86488256D01*
X114493808Y-87299631D01*
X114440376Y-88080826D01*
X114380234Y-88828460D01*
X114313799Y-89539152D01*
X114241490Y-90209520D01*
X114163723Y-90836184D01*
X114080916Y-91415762D01*
X113993489Y-91944872D01*
X113901857Y-92420134D01*
X113806440Y-92838166D01*
X113707654Y-93195586D01*
X113691511Y-93247262D01*
X113588143Y-93540133D01*
X113475629Y-93788974D01*
X113345237Y-94011063D01*
X113188239Y-94223680D01*
X113028012Y-94406798D01*
X112764829Y-94668066D01*
X112448236Y-94946758D01*
X112082054Y-95240159D01*
X111670103Y-95545556D01*
X111216205Y-95860235D01*
X110724180Y-96181482D01*
X110197849Y-96506585D01*
X109641033Y-96832828D01*
X109057552Y-97157499D01*
X109001651Y-97187855D01*
X108842601Y-97274622D01*
X108697654Y-97354241D01*
X108580901Y-97418951D01*
X108506431Y-97460993D01*
X108468566Y-97481997D01*
X108389252Y-97520132D01*
X108340256Y-97535384D01*
X108306201Y-97525102D01*
X108219729Y-97485871D01*
X108090526Y-97420865D01*
X107925430Y-97333871D01*
X107731283Y-97228676D01*
X107514923Y-97109069D01*
X107283191Y-96978836D01*
X107042926Y-96841765D01*
X106800969Y-96701644D01*
X106564158Y-96562259D01*
X106339335Y-96427400D01*
X106204618Y-96345078D01*
X105704542Y-96027995D01*
X105239219Y-95714380D01*
X104811731Y-95406796D01*
X104425162Y-95107802D01*
X104082594Y-94819959D01*
X103787109Y-94545828D01*
X103541789Y-94287969D01*
X103349718Y-94048943D01*
X103213978Y-93831309D01*
X103109708Y-93604554D01*
X102993645Y-93286877D01*
X102883669Y-92911594D01*
X102779603Y-92477808D01*
X102681271Y-91984625D01*
X102588496Y-91431149D01*
X102501102Y-90816483D01*
X102418914Y-90139732D01*
X102341754Y-89400000D01*
X102321950Y-89189582D01*
X102289953Y-88826101D01*
X102258382Y-88440488D01*
X102227789Y-88041336D01*
X102198725Y-87637236D01*
X102171742Y-87236779D01*
X102147392Y-86848558D01*
X102126225Y-86481163D01*
X102108794Y-86143187D01*
X102095650Y-85843220D01*
X102087345Y-85589854D01*
X102084663Y-85407589D01*
X102467440Y-85407589D01*
X102484718Y-85730213D01*
X102530202Y-86537671D01*
X102584428Y-87399210D01*
X102641439Y-88200301D01*
X102701468Y-88942848D01*
X102764749Y-89628753D01*
X102831516Y-90259916D01*
X102902002Y-90838241D01*
X102976443Y-91365628D01*
X103055070Y-91843980D01*
X103138119Y-92275199D01*
X103225824Y-92661187D01*
X103318417Y-93003845D01*
X103416133Y-93305075D01*
X103437473Y-93363417D01*
X103519593Y-93559221D01*
X103613618Y-93732770D01*
X103729605Y-93898935D01*
X103877609Y-94072588D01*
X104067687Y-94268600D01*
X104186373Y-94382298D01*
X104490554Y-94649115D01*
X104847150Y-94933440D01*
X105250983Y-95231745D01*
X105696874Y-95540503D01*
X106179643Y-95856184D01*
X106694113Y-96175261D01*
X107235104Y-96494206D01*
X107797436Y-96809490D01*
X107948155Y-96890957D01*
X108096794Y-96969299D01*
X108218410Y-97031244D01*
X108303348Y-97071882D01*
X108341951Y-97086304D01*
X108346453Y-97085278D01*
X108396675Y-97062910D01*
X108491536Y-97014842D01*
X108622127Y-96945767D01*
X108779536Y-96860381D01*
X108954855Y-96763377D01*
X109349552Y-96539890D01*
X109943037Y-96191099D01*
X110493291Y-95851449D01*
X110998427Y-95522358D01*
X111456562Y-95205245D01*
X111865810Y-94901529D01*
X112224287Y-94612630D01*
X112530107Y-94339966D01*
X112781385Y-94084955D01*
X112976236Y-93849018D01*
X113112775Y-93633572D01*
X113134806Y-93589906D01*
X113242680Y-93333729D01*
X113346702Y-93015399D01*
X113446665Y-92636419D01*
X113542364Y-92198294D01*
X113633592Y-91702526D01*
X113720145Y-91150621D01*
X113801817Y-90544082D01*
X113878402Y-89884414D01*
X113949695Y-89173120D01*
X114015490Y-88411705D01*
X114075582Y-87601673D01*
X114129764Y-86744527D01*
X114177832Y-85841772D01*
X114198979Y-85406495D01*
X113963171Y-85358605D01*
X113924744Y-85350767D01*
X113818428Y-85329002D01*
X113657842Y-85296079D01*
X113448059Y-85253040D01*
X113194149Y-85200926D01*
X112901183Y-85140777D01*
X112574232Y-85073636D01*
X112218367Y-85000543D01*
X111838659Y-84922540D01*
X111440178Y-84840667D01*
X111027997Y-84755966D01*
X108328630Y-84201217D01*
X105710973Y-84738011D01*
X105517783Y-84777634D01*
X105114441Y-84860397D01*
X104725602Y-84940235D01*
X104356628Y-85016043D01*
X104012879Y-85086719D01*
X103699717Y-85151160D01*
X103422505Y-85208260D01*
X103186603Y-85256918D01*
X102997374Y-85296029D01*
X102860178Y-85324490D01*
X102780378Y-85341197D01*
X102467440Y-85407589D01*
X102084663Y-85407589D01*
X102084429Y-85391681D01*
X102084430Y-85375051D01*
X102085505Y-85237811D01*
X102090464Y-85150780D01*
X102102086Y-85101345D01*
X102123149Y-85076895D01*
X102156431Y-85064820D01*
X102166511Y-85062554D01*
X102232977Y-85048464D01*
X102355930Y-85022808D01*
X102530975Y-84986491D01*
X102753715Y-84940420D01*
X103019754Y-84885501D01*
X103324698Y-84822641D01*
X103664149Y-84752745D01*
X104033713Y-84676721D01*
X104428993Y-84595475D01*
X104845594Y-84509913D01*
X105279120Y-84420942D01*
X108329740Y-83795101D01*
X111448607Y-84435508D01*
X111701862Y-84487493D01*
X112129313Y-84575163D01*
X112536569Y-84658598D01*
X112919376Y-84736933D01*
X113273477Y-84809300D01*
X113594617Y-84874831D01*
X113878541Y-84932660D01*
X114120995Y-84981919D01*
X114317722Y-85021741D01*
X114464468Y-85051259D01*
X114556977Y-85069606D01*
X114590994Y-85075914D01*
X114598158Y-85100340D01*
X114601797Y-85176876D01*
X114600771Y-85293094D01*
X114596153Y-85406495D01*
G37*
G36*
X113206031Y-89480852D02*
G01*
X113233292Y-89494911D01*
X113309195Y-89561808D01*
X113387380Y-89649059D01*
X113453208Y-89740537D01*
X113492037Y-89820117D01*
X113499941Y-89848263D01*
X113515061Y-89923226D01*
X113513202Y-89961156D01*
X113508690Y-89963265D01*
X113461244Y-89956987D01*
X113385325Y-89930736D01*
X113282094Y-89892389D01*
X113136257Y-89860584D01*
X112988004Y-89861118D01*
X112820136Y-89894692D01*
X112615450Y-89962004D01*
X112533216Y-89991391D01*
X112359451Y-90050174D01*
X112154658Y-90116515D01*
X111937893Y-90184283D01*
X111728214Y-90247350D01*
X111170425Y-90411164D01*
X111015540Y-90773415D01*
X111012857Y-90779695D01*
X110953654Y-90920720D01*
X110905270Y-91040481D01*
X110872630Y-91126490D01*
X110860655Y-91166259D01*
X110862760Y-91171362D01*
X110903217Y-91203897D01*
X110984567Y-91251634D01*
X111092875Y-91306178D01*
X111100394Y-91309704D01*
X111187344Y-91347577D01*
X111272366Y-91376748D01*
X111364880Y-91398128D01*
X111474307Y-91412630D01*
X111610069Y-91421165D01*
X111781586Y-91424647D01*
X111998280Y-91423986D01*
X112269571Y-91420095D01*
X112293200Y-91419782D01*
X112426049Y-91422428D01*
X112515970Y-91432415D01*
X112552505Y-91448688D01*
X112584109Y-91471368D01*
X112652700Y-91481967D01*
X112710262Y-91489584D01*
X112808618Y-91536232D01*
X112881864Y-91611342D01*
X112910592Y-91698610D01*
X112909619Y-91737473D01*
X112899410Y-91760012D01*
X112870555Y-91729758D01*
X112868953Y-91727684D01*
X112786901Y-91663958D01*
X112680955Y-91631222D01*
X112582601Y-91639362D01*
X112510214Y-91666807D01*
X112594765Y-91706040D01*
X112603520Y-91710354D01*
X112685107Y-91780068D01*
X112732196Y-91874412D01*
X112732231Y-91969337D01*
X112731540Y-91971499D01*
X112714973Y-92006294D01*
X112692681Y-91995771D01*
X112652158Y-91934486D01*
X112566590Y-91844873D01*
X112451738Y-91808558D01*
X112316210Y-91830598D01*
X112276488Y-91842248D01*
X112193725Y-91851875D01*
X112080607Y-91847661D01*
X111921046Y-91829566D01*
X111854123Y-91821096D01*
X111736138Y-91808594D01*
X111651627Y-91802977D01*
X111615546Y-91805428D01*
X111612689Y-91815577D01*
X111616501Y-91873142D01*
X111632531Y-91960566D01*
X111643263Y-92014388D01*
X111647156Y-92088937D01*
X111625767Y-92124806D01*
X111613901Y-92136530D01*
X111614788Y-92181929D01*
X111655369Y-92263659D01*
X111693731Y-92334831D01*
X111699295Y-92371387D01*
X111661319Y-92364457D01*
X111575882Y-92316657D01*
X111503213Y-92251946D01*
X111421185Y-92137552D01*
X111326101Y-91967729D01*
X111303165Y-91923989D01*
X111215324Y-91772767D01*
X111136746Y-91668812D01*
X111059298Y-91600943D01*
X111003738Y-91568956D01*
X110844853Y-91507811D01*
X110645437Y-91460059D01*
X110421168Y-91428993D01*
X110187728Y-91417906D01*
X109907021Y-91417906D01*
X109885425Y-91273893D01*
X109884758Y-91269484D01*
X109865050Y-91179119D01*
X109833626Y-91132723D01*
X109777690Y-91110939D01*
X109714937Y-91096892D01*
X109672259Y-91086795D01*
X109670899Y-91081042D01*
X109680040Y-91028630D01*
X109704611Y-90930563D01*
X109741757Y-90797769D01*
X109788626Y-90641173D01*
X109808944Y-90574892D01*
X109853381Y-90427384D01*
X109888045Y-90308670D01*
X109909825Y-90229532D01*
X109915613Y-90200756D01*
X109913776Y-90201228D01*
X109873611Y-90218183D01*
X109793125Y-90254585D01*
X109687139Y-90303753D01*
X109643907Y-90323520D01*
X109504725Y-90377198D01*
X109376155Y-90405193D01*
X109244729Y-90406694D01*
X109096977Y-90380887D01*
X108919428Y-90326961D01*
X108698613Y-90244101D01*
X108661440Y-90229431D01*
X108438792Y-90143245D01*
X108258262Y-90078164D01*
X108105232Y-90030594D01*
X107965085Y-89996945D01*
X107823203Y-89973623D01*
X107664967Y-89957036D01*
X107475762Y-89943592D01*
X107310656Y-89931197D01*
X107129784Y-89911726D01*
X106990209Y-89889422D01*
X106903313Y-89865832D01*
X106877628Y-89855175D01*
X106808726Y-89827491D01*
X106777366Y-89816393D01*
X106772714Y-89831465D01*
X106762940Y-89894577D01*
X106751810Y-89990155D01*
X106749770Y-90008240D01*
X106718033Y-90166483D01*
X106666712Y-90310669D01*
X106603051Y-90424142D01*
X106534296Y-90490245D01*
X106487310Y-90509423D01*
X106344193Y-90524482D01*
X106162284Y-90496545D01*
X105947154Y-90426217D01*
X105862813Y-90393553D01*
X105727915Y-90348995D01*
X105616541Y-90329863D01*
X105521427Y-90340804D01*
X105435308Y-90386462D01*
X105350921Y-90471482D01*
X105261003Y-90600508D01*
X105158288Y-90778186D01*
X105035514Y-91009159D01*
X105028773Y-91022060D01*
X104935288Y-91197474D01*
X104847849Y-91355480D01*
X104772195Y-91486149D01*
X104714064Y-91579552D01*
X104679191Y-91625762D01*
X104660892Y-91640163D01*
X104572342Y-91675178D01*
X104436538Y-91687627D01*
X104374185Y-91687600D01*
X104288138Y-91677925D01*
X104225199Y-91647345D01*
X104158558Y-91586065D01*
X104123565Y-91549522D01*
X104085868Y-91504000D01*
X104088525Y-91485477D01*
X104128017Y-91481967D01*
X104166333Y-91482184D01*
X104188656Y-91474815D01*
X104190479Y-91446503D01*
X104172200Y-91383867D01*
X104134217Y-91273529D01*
X104106064Y-91185743D01*
X104086000Y-91108539D01*
X104083428Y-91073738D01*
X104105909Y-91073004D01*
X104161481Y-91095009D01*
X104207679Y-91115193D01*
X104271117Y-91129634D01*
X104278478Y-91125511D01*
X104313011Y-91078579D01*
X104365122Y-90988367D01*
X104429366Y-90866239D01*
X104500299Y-90723559D01*
X104572476Y-90571688D01*
X104640450Y-90421990D01*
X104698779Y-90285828D01*
X104742015Y-90174565D01*
X104764715Y-90099563D01*
X104769596Y-90076015D01*
X104781423Y-90041654D01*
X104805492Y-90016147D01*
X104852003Y-89995683D01*
X104931157Y-89976454D01*
X105053154Y-89954649D01*
X105228195Y-89926458D01*
X105340081Y-89907823D01*
X105465813Y-89884666D01*
X105557187Y-89865178D01*
X105599701Y-89852255D01*
X105614993Y-89824963D01*
X105635218Y-89748654D01*
X105651603Y-89644533D01*
X105654741Y-89616133D01*
X105661281Y-89522047D01*
X105654228Y-89478400D01*
X105632429Y-89474980D01*
X105417606Y-89565001D01*
X104994938Y-89710824D01*
X104558666Y-89825087D01*
X104137028Y-89899770D01*
X104080376Y-89906594D01*
X104008194Y-89910577D01*
X103979936Y-89899791D01*
X103982855Y-89871934D01*
X103984016Y-89854079D01*
X103961239Y-89830327D01*
X103902085Y-89804646D01*
X103797744Y-89773479D01*
X103639405Y-89733267D01*
X103276690Y-89644802D01*
X103209026Y-89505529D01*
X103186644Y-89458729D01*
X103154139Y-89387167D01*
X103141362Y-89353333D01*
X103142088Y-89352043D01*
X103176159Y-89354978D01*
X103245460Y-89374117D01*
X103249212Y-89375229D01*
X103318798Y-89386452D01*
X103439464Y-89397639D01*
X103599432Y-89408015D01*
X103786925Y-89416803D01*
X103990164Y-89423225D01*
X104126043Y-89426331D01*
X104336441Y-89428852D01*
X104507739Y-89424557D01*
X104653676Y-89410264D01*
X104787993Y-89382794D01*
X104924430Y-89338967D01*
X104929230Y-89336970D01*
X112498417Y-89336970D01*
X112509699Y-89391395D01*
X112572745Y-89475398D01*
X112642639Y-89534126D01*
X112734501Y-89557077D01*
X112828712Y-89517386D01*
X112840183Y-89508780D01*
X112863789Y-89480852D01*
X112845667Y-89452331D01*
X112778781Y-89407777D01*
X112714682Y-89371018D01*
X112606957Y-89324797D01*
X112532852Y-89314109D01*
X112498417Y-89336970D01*
X104929230Y-89336970D01*
X105076728Y-89275603D01*
X105258627Y-89189522D01*
X105483867Y-89077545D01*
X105545402Y-89047205D01*
X105721510Y-88965041D01*
X105891342Y-88891861D01*
X106038133Y-88834689D01*
X106145117Y-88800547D01*
X106264952Y-88778332D01*
X106459736Y-88758786D01*
X106688865Y-88748518D01*
X106936178Y-88747532D01*
X107185512Y-88755831D01*
X107420706Y-88773417D01*
X107625599Y-88800293D01*
X107686579Y-88810569D01*
X107889317Y-88842656D01*
X108079737Y-88869850D01*
X108247677Y-88890948D01*
X108382976Y-88904746D01*
X108475474Y-88910042D01*
X108515007Y-88905631D01*
X108517514Y-88890477D01*
X108475234Y-88862256D01*
X108382770Y-88831604D01*
X108248559Y-88800666D01*
X108081041Y-88771585D01*
X107888655Y-88746505D01*
X107863467Y-88743641D01*
X107425689Y-88667974D01*
X107023704Y-88548225D01*
X106664691Y-88386505D01*
X106660522Y-88384241D01*
X106534531Y-88314705D01*
X106454447Y-88264862D01*
X106423290Y-88231787D01*
X106444078Y-88212556D01*
X106519832Y-88204245D01*
X106653571Y-88203931D01*
X106848316Y-88208688D01*
X106915893Y-88210413D01*
X107084969Y-88213300D01*
X107231448Y-88213835D01*
X107341524Y-88212038D01*
X107401387Y-88207928D01*
X107430911Y-88201828D01*
X107448218Y-88189110D01*
X107419080Y-88166620D01*
X107337326Y-88126516D01*
X107320066Y-88118622D01*
X107267911Y-88098164D01*
X107209742Y-88082882D01*
X107135887Y-88071970D01*
X107036670Y-88064622D01*
X106902417Y-88060032D01*
X106723452Y-88057392D01*
X106490103Y-88055897D01*
X106468307Y-88055798D01*
X106232464Y-88054408D01*
X106049255Y-88052069D01*
X105908113Y-88047866D01*
X105798471Y-88040879D01*
X105709762Y-88030191D01*
X105631418Y-88014885D01*
X105552872Y-87994043D01*
X105463556Y-87966746D01*
X105373247Y-87933233D01*
X105261168Y-87880188D01*
X105161652Y-87822471D01*
X105090416Y-87769369D01*
X105063177Y-87730170D01*
X105091059Y-87723042D01*
X105174953Y-87716197D01*
X105306561Y-87710285D01*
X105477513Y-87705598D01*
X105679440Y-87702424D01*
X105903972Y-87701053D01*
X106744766Y-87699711D01*
X106632660Y-87638335D01*
X106606241Y-87624974D01*
X106562376Y-87608678D01*
X106506003Y-87596457D01*
X106428531Y-87587709D01*
X106321368Y-87581830D01*
X106175922Y-87578217D01*
X105983601Y-87576266D01*
X105735813Y-87575375D01*
X105637158Y-87575053D01*
X105347097Y-87572040D01*
X105108349Y-87565335D01*
X104911146Y-87554020D01*
X104745726Y-87537176D01*
X104602320Y-87513884D01*
X104471166Y-87483225D01*
X104342497Y-87444280D01*
X104278950Y-87420235D01*
X104161298Y-87364305D01*
X104044854Y-87297673D01*
X103943945Y-87229538D01*
X103872894Y-87169094D01*
X103846027Y-87125540D01*
X103875016Y-87116424D01*
X103965613Y-87108351D01*
X104115396Y-87101834D01*
X104321880Y-87096952D01*
X104582582Y-87093782D01*
X104895019Y-87092405D01*
X105944010Y-87090989D01*
X105815889Y-87022019D01*
X105790010Y-87008702D01*
X105737360Y-86987071D01*
X105675014Y-86971412D01*
X105592101Y-86960533D01*
X105477747Y-86953239D01*
X105321079Y-86948336D01*
X105111223Y-86944630D01*
X104979020Y-86942199D01*
X104563776Y-86926624D01*
X104198842Y-86899132D01*
X103874279Y-86858815D01*
X103580148Y-86804764D01*
X103540509Y-86795790D01*
X103371140Y-86750021D01*
X103206307Y-86695089D01*
X103060527Y-86636680D01*
X102948317Y-86580481D01*
X102884194Y-86532176D01*
X102875653Y-86513413D01*
X102891754Y-86494884D01*
X102943244Y-86479257D01*
X103037277Y-86465149D01*
X103181007Y-86451176D01*
X103381589Y-86435953D01*
X103674873Y-86410591D01*
X104035978Y-86370196D01*
X104418496Y-86319528D01*
X104801211Y-86261614D01*
X105162912Y-86199481D01*
X105482384Y-86136157D01*
X105630483Y-86104399D01*
X105927270Y-86042735D01*
X106181667Y-85993427D01*
X106407359Y-85954187D01*
X106618031Y-85922723D01*
X106827368Y-85896745D01*
X107049054Y-85873964D01*
X107136274Y-85866466D01*
X107486937Y-85850738D01*
X107830069Y-85857173D01*
X108157759Y-85884332D01*
X108462096Y-85930780D01*
X108735170Y-85995078D01*
X108969068Y-86075790D01*
X109155882Y-86171478D01*
X109287699Y-86280705D01*
X109288478Y-86281592D01*
X109396251Y-86429871D01*
X109510380Y-86634251D01*
X109627268Y-86887606D01*
X109743316Y-87182812D01*
X109851702Y-87480000D01*
X110448122Y-88127705D01*
X110459827Y-88140417D01*
X110633981Y-88329261D01*
X110771969Y-88477350D01*
X110880594Y-88590707D01*
X110966666Y-88675354D01*
X111036989Y-88737313D01*
X111098369Y-88782606D01*
X111157615Y-88817256D01*
X111221531Y-88847285D01*
X111296924Y-88878715D01*
X111351075Y-88900008D01*
X111477315Y-88944959D01*
X111611100Y-88987813D01*
X111738830Y-89024755D01*
X111846904Y-89051966D01*
X111921723Y-89065630D01*
X111949684Y-89061928D01*
X111948672Y-89057472D01*
X111930221Y-89011824D01*
X111895898Y-88937050D01*
X111885539Y-88914402D01*
X111859943Y-88844732D01*
X111857128Y-88809244D01*
X111857364Y-88809034D01*
X111895273Y-88807940D01*
X111977737Y-88818769D01*
X112087313Y-88839248D01*
X112166916Y-88858604D01*
X112428930Y-88956408D01*
X112691165Y-89102414D01*
X112936657Y-89287668D01*
X112969605Y-89316066D01*
X113061603Y-89391608D01*
X113132390Y-89444278D01*
X113168784Y-89464060D01*
X113174313Y-89464494D01*
X113206031Y-89480852D01*
G37*
%TD*%
M02*
