%TF.GenerationSoftware,KiCad,Pcbnew,7.0.7*%
%TF.CreationDate,2023-11-16T19:54:27-05:00*%
%TF.ProjectId,GRC22_ShutdownChargerBoardV1,47524332-325f-4536-9875-74646f776e43,rev?*%
%TF.SameCoordinates,Original*%
%TF.FileFunction,Soldermask,Bot*%
%TF.FilePolarity,Negative*%
%FSLAX46Y46*%
G04 Gerber Fmt 4.6, Leading zero omitted, Abs format (unit mm)*
G04 Created by KiCad (PCBNEW 7.0.7) date 2023-11-16 19:54:27*
%MOMM*%
%LPD*%
G01*
G04 APERTURE LIST*
G04 Aperture macros list*
%AMRoundRect*
0 Rectangle with rounded corners*
0 $1 Rounding radius*
0 $2 $3 $4 $5 $6 $7 $8 $9 X,Y pos of 4 corners*
0 Add a 4 corners polygon primitive as box body*
4,1,4,$2,$3,$4,$5,$6,$7,$8,$9,$2,$3,0*
0 Add four circle primitives for the rounded corners*
1,1,$1+$1,$2,$3*
1,1,$1+$1,$4,$5*
1,1,$1+$1,$6,$7*
1,1,$1+$1,$8,$9*
0 Add four rect primitives between the rounded corners*
20,1,$1+$1,$2,$3,$4,$5,0*
20,1,$1+$1,$4,$5,$6,$7,0*
20,1,$1+$1,$6,$7,$8,$9,0*
20,1,$1+$1,$8,$9,$2,$3,0*%
G04 Aperture macros list end*
%ADD10C,1.270000*%
%ADD11RoundRect,0.250001X-0.499999X-0.759999X0.499999X-0.759999X0.499999X0.759999X-0.499999X0.759999X0*%
%ADD12O,1.500000X2.020000*%
%ADD13RoundRect,0.250001X0.499999X0.759999X-0.499999X0.759999X-0.499999X-0.759999X0.499999X-0.759999X0*%
%ADD14C,7.500000*%
%ADD15O,3.581400X1.790700*%
%ADD16C,1.950000*%
%ADD17C,3.000000*%
%ADD18C,1.000000*%
%ADD19RoundRect,0.250001X0.499999X0.499999X-0.499999X0.499999X-0.499999X-0.499999X0.499999X-0.499999X0*%
%ADD20C,1.500000*%
G04 APERTURE END LIST*
D10*
%TO.C,J6*%
X143199999Y-115000000D03*
X152199999Y-115000000D03*
D11*
X146199999Y-116960000D03*
D12*
X149199999Y-116960000D03*
%TD*%
D10*
%TO.C,J11*%
X168642000Y-57698000D03*
X159642000Y-57698000D03*
D13*
X165642000Y-55738000D03*
D12*
X162642000Y-55738000D03*
%TD*%
D14*
%TO.C,H4*%
X190000000Y-48000000D03*
%TD*%
D10*
%TO.C,J2*%
X178550000Y-115000000D03*
X187550000Y-115000000D03*
D11*
X181550000Y-116960000D03*
D12*
X184550000Y-116960000D03*
%TD*%
D15*
%TO.C,D5*%
X154482000Y-76677000D03*
X164642000Y-76677000D03*
%TD*%
D10*
%TO.C,J9*%
X154642000Y-57658000D03*
X145642000Y-57658000D03*
D13*
X151642000Y-55698000D03*
D12*
X148642000Y-55698000D03*
%TD*%
D14*
%TO.C,H3*%
X190000000Y-128000000D03*
%TD*%
D10*
%TO.C,J10*%
X183642000Y-57658000D03*
X174642000Y-57658000D03*
D13*
X180642000Y-55698000D03*
D12*
X177642000Y-55698000D03*
%TD*%
D10*
%TO.C,J7*%
X107850000Y-115000000D03*
X116850000Y-115000000D03*
D11*
X110850000Y-116960000D03*
D12*
X113850000Y-116960000D03*
%TD*%
D10*
%TO.C,J3*%
X166766665Y-115000000D03*
X175766665Y-115000000D03*
D11*
X169766665Y-116960000D03*
D12*
X172766665Y-116960000D03*
%TD*%
D16*
%TO.C,K2*%
X172262000Y-84043000D03*
X179882000Y-84043000D03*
X172262000Y-94203000D03*
X179882000Y-99283000D03*
X172262000Y-101823000D03*
%TD*%
%TO.C,K1*%
X155752000Y-84043000D03*
X163372000Y-84043000D03*
X155752000Y-94203000D03*
X163372000Y-99283000D03*
X155752000Y-101823000D03*
%TD*%
D15*
%TO.C,D4*%
X178020000Y-108900000D03*
X188180000Y-108900000D03*
%TD*%
D10*
%TO.C,J4*%
X154983332Y-115000000D03*
X163983332Y-115000000D03*
D11*
X157983332Y-116960000D03*
D12*
X160983332Y-116960000D03*
%TD*%
D10*
%TO.C,J5*%
X131416666Y-115000000D03*
X140416666Y-115000000D03*
D11*
X134416666Y-116960000D03*
D12*
X137416666Y-116960000D03*
%TD*%
D17*
%TO.C,F2*%
X131999000Y-62785000D03*
X131999000Y-66185000D03*
X145469000Y-62785000D03*
X145469000Y-66185000D03*
%TD*%
D10*
%TO.C,J8*%
X119633333Y-115000000D03*
X128633333Y-115000000D03*
D11*
X122633333Y-116960000D03*
D12*
X125633333Y-116960000D03*
%TD*%
D15*
%TO.C,D6*%
X170992000Y-76677000D03*
X181152000Y-76677000D03*
%TD*%
D14*
%TO.C,H2*%
X105000000Y-128000000D03*
%TD*%
D18*
%TO.C,J1*%
X119335000Y-62021000D03*
X104335000Y-62021000D03*
D19*
X116335000Y-65961000D03*
D20*
X113335000Y-65961000D03*
X110335000Y-65961000D03*
X107335000Y-65961000D03*
X116335000Y-62961000D03*
X113335000Y-62961000D03*
X110335000Y-62961000D03*
X107335000Y-62961000D03*
%TD*%
D14*
%TO.C,H1*%
X105000000Y-48000000D03*
%TD*%
M02*
