M48
; DRILL file {KiCad 7.0.1} date Thu Nov 16 22:14:13 2023
; FORMAT={-:-/ absolute / metric / decimal}
; #@! TF.CreationDate,2023-11-16T22:14:13-05:00
; #@! TF.GenerationSoftware,Kicad,Pcbnew,7.0.1
; #@! TF.FileFunction,Plated,1,2,PTH
FMAT,2
METRIC
; #@! TA.AperFunction,Plated,PTH,ViaDrill
T1C0.400
; #@! TA.AperFunction,Plated,PTH,ComponentDrill
T2C1.000
; #@! TA.AperFunction,Plated,PTH,ComponentDrill
T3C1.020
; #@! TA.AperFunction,Plated,PTH,ComponentDrill
T4C1.194
; #@! TA.AperFunction,Plated,PTH,ComponentDrill
T5C1.300
; #@! TA.AperFunction,Plated,PTH,ComponentDrill
T6C2.250
; #@! TA.AperFunction,Plated,PTH,ComponentDrill
T7C4.300
%
G90
G05
T1
X112.3Y-84.4
X116.128Y-79.979
X117.15Y-78.875
X119.65Y-98.575
X119.65Y-101.275
X120.92Y-84.805
X121.428Y-95.219
X121.85Y-79.775
X124.35Y-85.275
X127.25Y-72.975
X128.05Y-85.275
X130.098Y-90.139
X132.25Y-78.275
X132.35Y-85.821
X133.019Y-92.044
X134.035Y-94.076
X135.7Y-78.3
X140.05Y-87.575
X145.05Y-92.875
X167.727Y-48.72
T2
X107.335Y-62.961
X107.335Y-65.961
X110.335Y-62.961
X110.335Y-65.961
X113.335Y-62.961
X113.335Y-65.961
X116.335Y-62.961
X116.335Y-65.961
T3
X110.85Y-116.96
X113.85Y-116.96
X122.633Y-116.96
X125.633Y-116.96
X134.417Y-116.96
X137.417Y-116.96
X146.2Y-116.96
X148.642Y-55.698
X149.2Y-116.96
X151.642Y-55.698
X157.983Y-116.96
X160.983Y-116.96
X162.642Y-55.738
X165.642Y-55.738
X169.767Y-116.96
X172.767Y-116.96
X177.642Y-55.698
X180.642Y-55.698
X181.55Y-116.96
X184.55Y-116.96
T4
X154.482Y-76.677
X164.642Y-76.677
X170.992Y-76.677
X178.02Y-108.9
X181.152Y-76.677
X188.18Y-108.9
T5
X155.752Y-84.043
X155.752Y-94.203
X155.752Y-101.823
X163.372Y-84.043
X163.372Y-99.283
X172.262Y-84.043
X172.262Y-94.203
X172.262Y-101.823
X179.882Y-84.043
X179.882Y-99.283
T6
X131.999Y-62.785
X131.999Y-66.185
X145.469Y-62.785
X145.469Y-66.185
T7
X105.0Y-48.0
X105.0Y-128.0
X190.0Y-48.0
X190.0Y-128.0
T0
M30
