M48
; DRILL file {KiCad 7.0.1} date Thu Nov 16 22:14:13 2023
; FORMAT={-:-/ absolute / metric / decimal}
; #@! TF.CreationDate,2023-11-16T22:14:13-05:00
; #@! TF.GenerationSoftware,Kicad,Pcbnew,7.0.1
; #@! TF.FileFunction,NonPlated,1,2,NPTH
FMAT,2
METRIC
; #@! TA.AperFunction,NonPlated,NPTH,ComponentDrill
T1C1.000
; #@! TA.AperFunction,NonPlated,NPTH,ComponentDrill
T2C1.270
%
G90
G05
T1
X104.335Y-62.021
X119.335Y-62.021
T2
X107.85Y-115.0
X116.85Y-115.0
X119.633Y-115.0
X128.633Y-115.0
X131.417Y-115.0
X140.417Y-115.0
X143.2Y-115.0
X145.642Y-57.658
X152.2Y-115.0
X154.642Y-57.658
X154.983Y-115.0
X159.642Y-57.698
X163.983Y-115.0
X166.767Y-115.0
X168.642Y-57.698
X174.642Y-57.658
X175.767Y-115.0
X178.55Y-115.0
X183.642Y-57.658
X187.55Y-115.0
T0
M30
